#ammo_box_02_(1)_472_112.obj

v -0.484499 0.05152512 1.026371
v -0.484499 0.528924 1.026371
v 0.4844953 0.528924 1.026372
v 0.4844953 0.05152512 1.026372
v -0.484499 0.528924 1.026371
v -0.4844985 0.528924 -1.026374
v 0.4844958 0.528924 -1.026374
v 0.4844953 0.528924 1.026372
v -0.4844985 0.528924 -1.026374
v -0.4844985 0.05152512 -1.026374
v 0.4844958 0.05152512 -1.026374
v 0.4844958 0.528924 -1.026374
v -0.4844985 0.05152512 -1.026374
v -0.484499 0.05152512 1.026371
v 0.4844953 0.05152512 1.026372
v 0.4844958 0.05152512 -1.026374
v 0.4844953 0.05152512 1.026372
v 0.4844953 0.528924 1.026372
v 0.4844958 0.528924 -1.026374
v 0.4844958 0.05152512 -1.026374
v -0.4844985 0.05152512 -1.026374
v -0.4844985 0.528924 -1.026374
v -0.484499 0.528924 1.026371
v -0.484499 0.05152512 1.026371
v -0.5383931 0 -0.6879943
v -0.5383931 0.5804491 -0.6879943
v 0.5383911 0.5804491 -0.6879941
v 0.5383911 0 -0.6879941
v -0.5383931 0.5804491 -0.6879943
v -0.5383917 0.5804491 -0.8624182
v 0.538389 0.5804491 -0.8624195
v 0.5383911 0.5804491 -0.6879941
v -0.5383917 0.5804491 -0.8624182
v -0.5383917 0 -0.8624182
v 0.538389 0 -0.8624195
v 0.538389 0.5804491 -0.8624195
v -0.5383917 0 -0.8624182
v -0.5383931 0 -0.6879943
v 0.5383911 0 -0.6879941
v 0.538389 0 -0.8624195
v 0.5383911 0 -0.6879941
v 0.5383911 0.5804491 -0.6879941
v 0.538389 0.5804491 -0.8624195
v 0.538389 0 -0.8624195
v -0.5383917 0 -0.8624182
v -0.5383917 0.5804491 -0.8624182
v -0.5383931 0.5804491 -0.6879943
v -0.5383931 0 -0.6879943
v -0.5383948 0 0.8673331
v -0.5383948 0.5804491 0.8673331
v 0.5383893 0.5804491 0.8673332
v 0.5383893 0 0.8673332
v -0.5383948 0.5804491 0.8673331
v -0.5383934 0.5804491 0.6929092
v 0.5383908 0.5804491 0.6929093
v 0.5383893 0.5804491 0.8673332
v -0.5383934 0.5804491 0.6929092
v -0.5383934 0 0.6929092
v 0.5383908 0 0.6929093
v 0.5383908 0.5804491 0.6929093
v -0.5383934 0 0.6929092
v -0.5383948 0 0.8673331
v 0.5383893 0 0.8673332
v 0.5383908 0 0.6929093
v 0.5383893 0 0.8673332
v 0.5383893 0.5804491 0.8673332
v 0.5383908 0.5804491 0.6929093
v 0.5383908 0 0.6929093
v -0.5383934 0 0.6929092
v -0.5383934 0.5804491 0.6929092
v -0.5383948 0.5804491 0.8673331
v -0.5383948 0 0.8673331

vn -0.9284609 0 0.3714302
vn -0.9284609 0 0.3714302
vn -0.9284609 0 0.3714302
vn -0.9284609 0 0.3714302
vn 0 1 0
vn 0 1 0
vn 0 1 0
vn 0 1 0
vn 0.9284609 0 -0.3714302
vn 0.9284609 0 -0.3714302
vn 0.9284609 0 -0.3714302
vn 0.9284609 0 -0.3714302
vn 0 -1 0
vn 0 -1 0
vn 0 -1 0
vn 0 -1 0
vn 0.3714302 0 0.9284609
vn 0.3714302 0 0.9284609
vn 0.3714302 0 0.9284609
vn 0.3714302 0 0.9284609
vn -0.3714302 0 -0.9284609
vn -0.3714302 0 -0.9284609
vn -0.3714302 0 -0.9284609
vn -0.3714302 0 -0.9284609
vn -0.9284609 0 0.3714302
vn -0.9284609 0 0.3714302
vn -0.9284609 0 0.3714302
vn -0.9284609 0 0.3714302
vn 0 1 0
vn 0 1 0
vn 0 1 0
vn 0 1 0
vn 0.9284609 0 -0.3714302
vn 0.9284609 0 -0.3714302
vn 0.9284609 0 -0.3714302
vn 0.9284609 0 -0.3714302
vn 0 -1 0
vn 0 -1 0
vn 0 -1 0
vn 0 -1 0
vn 0.3714302 0 0.9284609
vn 0.3714302 0 0.9284609
vn 0.3714302 0 0.9284609
vn 0.3714302 0 0.9284609
vn -0.3714302 0 -0.9284609
vn -0.3714302 0 -0.9284609
vn -0.3714302 0 -0.9284609
vn -0.3714302 0 -0.9284609
vn -0.9284609 0 0.3714302
vn -0.9284609 0 0.3714302
vn -0.9284609 0 0.3714302
vn -0.9284609 0 0.3714302
vn 0 1 0
vn 0 1 0
vn 0 1 0
vn 0 1 0
vn 0.9284609 0 -0.3714302
vn 0.9284609 0 -0.3714302
vn 0.9284609 0 -0.3714302
vn 0.9284609 0 -0.3714302
vn 0 -1 0
vn 0 -1 0
vn 0 -1 0
vn 0 -1 0
vn 0.3714302 0 0.9284609
vn 0.3714302 0 0.9284609
vn 0.3714302 0 0.9284609
vn 0.3714302 0 0.9284609
vn -0.3714302 0 -0.9284609
vn -0.3714302 0 -0.9284609
vn -0.3714302 0 -0.9284609
vn -0.3714302 0 -0.9284609

vt 0.5507813 0.8256836
vt 0.5927734 0.8256836
vt 0.5927734 0.6801758
vt 0.5507813 0.6801758
vt 0.6259766 0.9873047
vt 0.6376953 0.9873047
vt 0.6376953 0.8432617
vt 0.6259766 0.8432617
vt 0.5507813 0.8256836
vt 0.5927734 0.8256836
vt 0.5927734 0.6801758
vt 0.5507813 0.6801758
vt 0.6269531 0.9873047
vt 0.6362305 0.9873047
vt 0.6362305 0.8417969
vt 0.6269531 0.8417969
vt 0.5634766 0.5292969
vt 0.5634766 0.5737305
vt 0.6083984 0.5737305
vt 0.6083984 0.5292969
vt 0.5634766 0.5766602
vt 0.5634766 0.621582
vt 0.6083984 0.621582
vt 0.6083984 0.5766602
vt 0.6484375 0.6020508
vt 0.6513672 0.6020508
vt 0.6513672 0.5961914
vt 0.6484375 0.5961914
vt 0.6640625 0.8876953
vt 0.6699219 0.8876953
vt 0.6699219 0.8476563
vt 0.6640625 0.8476563
vt 0.6450195 0.6137695
vt 0.6484375 0.6137695
vt 0.6484375 0.6079102
vt 0.6450195 0.6079102
vt 0.5859375 0.894043
vt 0.5869141 0.894043
vt 0.5869141 0.8901367
vt 0.5859375 0.8901367
vt 0.6459961 0.6992188
vt 0.6459961 0.7329102
vt 0.6518555 0.7329102
vt 0.6518555 0.6992188
vt 0.652832 0.6992188
vt 0.652832 0.7329102
vt 0.6586914 0.7329102
vt 0.6586914 0.6992188
vt 0.6484375 0.6083984
vt 0.6518555 0.6083984
vt 0.6518555 0.6020508
vt 0.6484375 0.6020508
vt 0.6503906 0.8876953
vt 0.65625 0.8876953
vt 0.65625 0.8476563
vt 0.6503906 0.8476563
vt 0.6416016 0.6137695
vt 0.6450195 0.6137695
vt 0.6450195 0.6079102
vt 0.6416016 0.6079102
vt 0.5849609 0.894043
vt 0.5854492 0.894043
vt 0.5854492 0.8901367
vt 0.5849609 0.8901367
vt 0.659668 0.6992188
vt 0.659668 0.7329102
vt 0.6655273 0.7329102
vt 0.6655273 0.6992188
vt 0.6660156 0.6992188
vt 0.6660156 0.7329102
vt 0.671875 0.7329102
vt 0.671875 0.6992188

g ammo_box_02_(1)_472_112
usemtl ammo_box_02_(1)_472_112
usemap ammo_box_02_(1)_472_112
f 1/1/1 3/3/3 2/2/2
f 1/1/1 4/4/4 3/3/3
f 5/5/5 7/7/7 6/6/6
f 5/5/5 8/8/8 7/7/7
f 9/9/9 11/11/11 10/10/10
f 9/9/9 12/12/12 11/11/11
f 13/13/13 15/15/15 14/14/14
f 13/13/13 16/16/16 15/15/15
f 17/17/17 19/19/19 18/18/18
f 17/17/17 20/20/20 19/19/19
f 21/21/21 23/23/23 22/22/22
f 21/21/21 24/24/24 23/23/23
f 25/25/25 27/27/27 26/26/26
f 25/25/25 28/28/28 27/27/27
f 29/29/29 31/31/31 30/30/30
f 29/29/29 32/32/32 31/31/31
f 33/33/33 35/35/35 34/34/34
f 33/33/33 36/36/36 35/35/35
f 37/37/37 39/39/39 38/38/38
f 37/37/37 40/40/40 39/39/39
f 41/41/41 43/43/43 42/42/42
f 41/41/41 44/44/44 43/43/43
f 45/45/45 47/47/47 46/46/46
f 45/45/45 48/48/48 47/47/47
f 49/49/49 51/51/51 50/50/50
f 49/49/49 52/52/52 51/51/51
f 53/53/53 55/55/55 54/54/54
f 53/53/53 56/56/56 55/55/55
f 57/57/57 59/59/59 58/58/58
f 57/57/57 60/60/60 59/59/59
f 61/61/61 63/63/63 62/62/62
f 61/61/61 64/64/64 63/63/63
f 65/65/65 67/67/67 66/66/66
f 65/65/65 68/68/68 67/67/67
f 69/69/69 71/71/71 70/70/70
f 69/69/69 72/72/72 71/71/71
