#barrel_02_(23)_613_254.obj

v 0.5019754 1.180666E-07 -0.5019665
v 0.5019759 2.015214 -0.5019675
v 5.013012E-06 2.015215 -0.7098937
v 4.549158E-06 1.328575E-07 -0.7098927
v 4.549158E-06 1.328575E-07 -0.7098927
v 5.013012E-06 2.015215 -0.7098937
v -0.5019724 2.015215 -0.5019675
v -0.501967 -1.276897E-07 -0.5019714
v -0.501967 -1.276897E-07 -0.5019714
v -0.5019724 2.015215 -0.5019675
v -0.7098927 2.015215 -1.500377E-06
v -0.7098932 1.633999E-07 -5.239044E-07
v -0.7098932 1.633999E-07 -5.239044E-07
v -0.7098927 2.015215 -1.500377E-06
v -0.5019665 2.015215 0.5019759
v -0.5019718 -1.180653E-07 0.5019709
v -0.5019718 -1.180653E-07 0.5019709
v -0.5019665 2.015215 0.5019759
v -4.702143E-07 2.015215 0.7098962
v -9.340679E-07 -1.328561E-07 0.7098972
v -9.340679E-07 -1.328561E-07 0.7098972
v -4.702143E-07 2.015215 0.7098962
v 0.501971 2.015215 0.5019748
v 0.5019705 1.27691E-07 0.5019758
v 0.5019705 1.27691E-07 0.5019758
v 0.501971 2.015215 0.5019748
v 0.7098972 2.015215 3.982849E-06
v 0.7098967 -1.633986E-07 4.959322E-06
v 0.7098967 -1.633986E-07 4.959322E-06
v 0.7098972 2.015215 3.982849E-06
v 0.5019759 2.015214 -0.5019675
v 0.5019754 1.180666E-07 -0.5019665
v 4.549158E-06 1.328575E-07 -0.7098927
v 1.807545E-06 6.585381E-13 2.217709E-06
v 0.5019754 1.180666E-07 -0.5019665
v -0.501967 -1.276897E-07 -0.5019714
v -0.7098932 1.633999E-07 -5.239044E-07
v -0.5019718 -1.180653E-07 0.5019709
v -9.340679E-07 -1.328561E-07 0.7098972
v 0.5019705 1.27691E-07 0.5019758
v 0.7098967 -1.633986E-07 4.959322E-06
v 0.5019759 2.015214 -0.5019675
v 2.271399E-06 2.015215 1.241236E-06
v 5.013012E-06 2.015215 -0.7098937
v -0.5019724 2.015215 -0.5019675
v -0.7098927 2.015215 -1.500377E-06
v -0.5019665 2.015215 0.5019759
v -4.702143E-07 2.015215 0.7098962
v 0.501971 2.015215 0.5019748
v 0.7098972 2.015215 3.982849E-06

vn -0.4743684 5.357505E-07 -0.8803264
vn -0.4743684 5.357505E-07 -0.8803264
vn -0.4743684 5.357505E-07 -0.8803264
vn -0.4743684 5.357505E-07 -0.8803264
vn -0.9579138 3.595816E-07 -0.2870561
vn -0.9579138 3.595816E-07 -0.2870561
vn -0.9579138 3.595816E-07 -0.2870561
vn -0.9579138 3.595816E-07 -0.2870561
vn -0.8803265 -2.722544E-08 0.4743683
vn -0.8803265 -2.722544E-08 0.4743683
vn -0.8803265 -2.722544E-08 0.4743683
vn -0.8803265 -2.722544E-08 0.4743683
vn -0.2870561 -3.98084E-07 0.9579138
vn -0.2870561 -3.98084E-07 0.9579138
vn -0.2870561 -3.98084E-07 0.9579138
vn -0.2870561 -3.98084E-07 0.9579138
vn 0.4743683 -5.357505E-07 0.8803265
vn 0.4743683 -5.357505E-07 0.8803265
vn 0.4743683 -5.357505E-07 0.8803265
vn 0.4743683 -5.357505E-07 0.8803265
vn 0.9579138 -3.595817E-07 0.2870561
vn 0.9579138 -3.595817E-07 0.2870561
vn 0.9579138 -3.595817E-07 0.2870561
vn 0.9579138 -3.595817E-07 0.2870561
vn 0.8803265 2.722533E-08 -0.4743682
vn 0.8803265 2.722533E-08 -0.4743682
vn 0.8803265 2.722533E-08 -0.4743682
vn 0.8803265 2.722533E-08 -0.4743682
vn 0.2870559 3.98084E-07 -0.9579138
vn 0.2870559 3.98084E-07 -0.9579138
vn 0.2870559 3.98084E-07 -0.9579138
vn 0.2870559 3.98084E-07 -0.9579138
vn -2.301758E-07 -1 -4.845502E-07
vn -2.301758E-07 -1 -4.845502E-07
vn -2.301758E-07 -1 -4.845502E-07
vn -2.301758E-07 -1 -4.845502E-07
vn -2.301758E-07 -1 -4.845502E-07
vn -2.301758E-07 -1 -4.845502E-07
vn -2.301758E-07 -1 -4.845502E-07
vn -2.301758E-07 -1 -4.845502E-07
vn -2.301758E-07 -1 -4.845502E-07
vn 2.301758E-07 1 4.845502E-07
vn 2.301758E-07 1 4.845502E-07
vn 2.301758E-07 1 4.845502E-07
vn 2.301758E-07 1 4.845502E-07
vn 2.301758E-07 1 4.845502E-07
vn 2.301758E-07 1 4.845502E-07
vn 2.301758E-07 1 4.845502E-07
vn 2.301758E-07 1 4.845502E-07
vn 2.301758E-07 1 4.845502E-07

vt 0.2088623 0.0138092
vt 0.2088623 0.2512207
vt 0.1690674 0.2512207
vt 0.1690674 0.0138092
vt 0.1419678 0.0138092
vt 0.1419678 0.2512207
vt 0.08691406 0.2512207
vt 0.08691406 0.0138092
vt 0.06109619 0.0138092
vt 0.06109619 0.2512207
vt 0.01113892 0.2512207
vt 0.01113892 0.0138092
vt 0.1306152 0.0138092
vt 0.1306152 0.2512207
vt 0.09112549 0.2512207
vt 0.09112549 0.0138092
vt 0.1636963 0.0138092
vt 0.1636963 0.2512207
vt 0.1958008 0.2512207
vt 0.1958008 0.0138092
vt 0.2427979 0.0138092
vt 0.2427979 0.2512207
vt 0.2839355 0.2512207
vt 0.2839355 0.0138092
vt 0.1588135 0.0138092
vt 0.1588135 0.2512207
vt 0.2076416 0.2512207
vt 0.2076416 0.0138092
vt 0.2301025 0.0138092
vt 0.2301025 0.2512207
vt 0.2744141 0.2512207
vt 0.2744141 0.0138092
vt 0.1204834 0.2712402
vt 0.1204834 0.3535156
vt 0.1810303 0.2963867
vt 0.05996704 0.2963867
vt 0.03491211 0.3569336
vt 0.05996704 0.4174805
vt 0.1204834 0.442627
vt 0.1810303 0.4174805
vt 0.2060547 0.3569336
vt 0.1809082 0.4172363
vt 0.1204224 0.3532715
vt 0.1204224 0.4423828
vt 0.05987549 0.4172363
vt 0.03482056 0.3566895
vt 0.05987549 0.2961426
vt 0.1204224 0.2712402
vt 0.1809082 0.2961426
vt 0.2059326 0.3566895

g barrel_02_(23)_613_254
usemtl barrel_02_(23)_613_254
usemap barrel_02_(23)_613_254
f 1/1/1 3/3/3 2/2/2
f 1/1/1 4/4/4 3/3/3
f 5/5/5 7/7/7 6/6/6
f 5/5/5 8/8/8 7/7/7
f 9/9/9 11/11/11 10/10/10
f 9/9/9 12/12/12 11/11/11
f 13/13/13 15/15/15 14/14/14
f 13/13/13 16/16/16 15/15/15
f 17/17/17 19/19/19 18/18/18
f 17/17/17 20/20/20 19/19/19
f 21/21/21 23/23/23 22/22/22
f 21/21/21 24/24/24 23/23/23
f 25/25/25 27/27/27 26/26/26
f 25/25/25 28/28/28 27/27/27
f 29/29/29 31/31/31 30/30/30
f 29/29/29 32/32/32 31/31/31
f 33/33/33 35/35/35 34/34/34
f 36/36/36 33/33/33 34/34/34
f 37/37/37 36/36/36 34/34/34
f 38/38/38 37/37/37 34/34/34
f 39/39/39 38/38/38 34/34/34
f 40/40/40 39/39/39 34/34/34
f 41/41/41 40/40/40 34/34/34
f 35/35/35 41/41/41 34/34/34
f 42/42/42 44/44/44 43/43/43
f 44/44/44 45/45/45 43/43/43
f 45/45/45 46/46/46 43/43/43
f 46/46/46 47/47/47 43/43/43
f 47/47/47 48/48/48 43/43/43
f 48/48/48 49/49/49 43/43/43
f 49/49/49 50/50/50 43/43/43
f 50/50/50 42/42/42 43/43/43
