#Barrier_1_(4)_742_107.obj

v -0.4048608 -0.002661228 1.619032
v -0.4048608 0.5221996 1.619032
v 0.4048569 0.5221996 1.619032
v 0.4048569 -0.002661228 1.619032
v -0.142841 1.439518 1.619033
v -0.1428451 1.439518 -1.619036
v 0.1428408 1.439518 -1.619037
v 0.1428449 1.439518 1.619032
v -0.4048573 0.5221996 -1.619038
v -0.4048573 -0.002661228 -1.619038
v 0.4048604 -0.002661228 -1.619038
v 0.4048604 0.5221996 -1.619038
v -0.4048573 -0.002661228 -1.619038
v -0.4048608 -0.002661228 1.619032
v 0.4048569 -0.002661228 1.619032
v 0.4048604 -0.002661228 -1.619038
v 0.4048569 -0.002661228 1.619032
v 0.4048569 0.5221996 1.619032
v 0.4048604 0.5221996 -1.619038
v 0.4048604 -0.002661228 -1.619038
v -0.4048573 -0.002661228 -1.619038
v -0.4048573 0.5221996 -1.619038
v -0.4048608 0.5221996 1.619032
v -0.4048608 -0.002661228 1.619032
v -0.1824982 1.3011 -1.619038
v -0.1824939 1.3011 1.619033
v -0.2617845 1.02432 1.619032
v -0.2617886 1.02432 -1.619037
v -0.2617886 1.02432 -1.619037
v 0.2617841 1.02432 -1.619038
v 0.1824937 1.3011 -1.619037
v -0.1824982 1.3011 -1.619038
v 0.2617841 1.02432 -1.619038
v 0.2617883 1.02432 1.619033
v 0.1824978 1.3011 1.619032
v 0.1824937 1.3011 -1.619037
v 0.2617883 1.02432 1.619033
v -0.2617845 1.02432 1.619032
v -0.1824939 1.3011 1.619033
v 0.1824978 1.3011 1.619032
v -0.4048608 0.5221996 1.619032
v -0.2617845 1.02432 1.619032
v 0.2617883 1.02432 1.619033
v 0.4048569 0.5221996 1.619032
v 0.4048569 0.5221996 1.619032
v 0.2617883 1.02432 1.619033
v 0.2617841 1.02432 -1.619038
v 0.4048604 0.5221996 -1.619038
v 0.4048604 0.5221996 -1.619038
v 0.2617841 1.02432 -1.619038
v -0.2617886 1.02432 -1.619037
v -0.4048573 0.5221996 -1.619038
v -0.4048573 0.5221996 -1.619038
v -0.2617886 1.02432 -1.619037
v -0.2617845 1.02432 1.619032
v -0.4048608 0.5221996 1.619032
v 0.1824937 1.3011 -1.619037
v 0.1428408 1.439518 -1.619037
v -0.1428451 1.439518 -1.619036
v -0.1824982 1.3011 -1.619038
v 0.1824978 1.3011 1.619032
v 0.1428449 1.439518 1.619032
v 0.1428408 1.439518 -1.619037
v 0.1824937 1.3011 -1.619037
v -0.1824939 1.3011 1.619033
v -0.142841 1.439518 1.619033
v 0.1428449 1.439518 1.619032
v 0.1824978 1.3011 1.619032
v -0.1824982 1.3011 -1.619038
v -0.1428451 1.439518 -1.619036
v -0.142841 1.439518 1.619033
v -0.1824939 1.3011 1.619033

vn 0.9974248 0 0.0717203
vn 0.9974248 0 0.0717203
vn 0.9974248 0 0.0717203
vn 0.9974248 0 0.0717203
vn 0 1 0
vn 0 1 0
vn 0 1 0
vn 0 1 0
vn -0.9974248 0 -0.0717203
vn -0.9974248 0 -0.0717203
vn -0.9974248 0 -0.0717203
vn -0.9974248 0 -0.0717203
vn 0 -1 0
vn 0 -1 0
vn 0 -1 0
vn 0 -1 0
vn 0.0717203 0 -0.9974248
vn 0.0717203 0 -0.9974248
vn 0.0717203 0 -0.9974248
vn 0.0717203 0 -0.9974248
vn -0.0717203 0 0.9974248
vn -0.0717203 0 0.9974248
vn -0.0717203 0 0.9974248
vn -0.0717203 0 0.9974248
vn -0.06894688 0.2753989 0.9588544
vn -0.06894688 0.2753989 0.9588544
vn -0.06894688 0.2753989 0.9588544
vn -0.06894688 0.2753989 0.9588544
vn -0.9974248 0 -0.0717203
vn -0.9974248 0 -0.0717203
vn -0.9974248 0 -0.0717203
vn -0.9974248 0 -0.0717203
vn 0.06894688 0.2753989 -0.9588544
vn 0.06894688 0.2753989 -0.9588544
vn 0.06894688 0.2753989 -0.9588544
vn 0.06894688 0.2753989 -0.9588544
vn 0.9974248 0 0.0717203
vn 0.9974248 0 0.0717203
vn 0.9974248 0 0.0717203
vn 0.9974248 0 0.0717203
vn 0.9974248 0 0.0717203
vn 0.9974248 0 0.0717203
vn 0.9974248 0 0.0717203
vn 0.9974248 0 0.0717203
vn 0.06894688 0.2753986 -0.9588545
vn 0.06894688 0.2753986 -0.9588545
vn 0.06894688 0.2753986 -0.9588545
vn 0.06894688 0.2753986 -0.9588545
vn -0.9974248 0 -0.0717203
vn -0.9974248 0 -0.0717203
vn -0.9974248 0 -0.0717203
vn -0.9974248 0 -0.0717203
vn -0.06894688 0.2753986 0.9588545
vn -0.06894688 0.2753986 0.9588545
vn -0.06894688 0.2753986 0.9588545
vn -0.06894688 0.2753986 0.9588545
vn -0.9974248 0 -0.0717203
vn -0.9974248 0 -0.0717203
vn -0.9974248 0 -0.0717203
vn -0.9974248 0 -0.0717203
vn 0.06894689 0.2753983 -0.9588546
vn 0.06894689 0.2753983 -0.9588546
vn 0.06894689 0.2753983 -0.9588546
vn 0.06894689 0.2753983 -0.9588546
vn 0.9974248 0 0.0717203
vn 0.9974248 0 0.0717203
vn 0.9974248 0 0.0717203
vn 0.9974248 0 0.0717203
vn -0.06894689 0.2753983 0.9588546
vn -0.06894689 0.2753983 0.9588546
vn -0.06894689 0.2753983 0.9588546
vn -0.06894689 0.2753983 0.9588546

vt 0.6503906 0.8564453
vt 0.6503906 0.8754883
vt 0.6459961 0.8774414
vt 0.6459961 0.8583984
vt 0.4069824 0.4316406
vt 0.4035645 0.4311523
vt 0.4030762 0.4313965
vt 0.4067383 0.4316406
vt 0.6293945 0.8706055
vt 0.6293945 0.8515625
vt 0.6245117 0.8535156
vt 0.6245117 0.8725586
vt 0.4038086 0.4272461
vt 0.4074707 0.4274902
vt 0.4064941 0.4277344
vt 0.402832 0.4272461
vt 0.6459961 0.8583984
vt 0.6459961 0.8774414
vt 0.6245117 0.8725586
vt 0.6245117 0.8535156
vt 0.6293945 0.8515625
vt 0.6293945 0.8706055
vt 0.6503906 0.8754883
vt 0.6503906 0.8564453
vt 0.5571289 0.9101563
vt 0.5922852 0.9223633
vt 0.5932617 0.8964844
vt 0.5576172 0.8842773
vt 0.5576172 0.8842773
vt 0.5532227 0.887207
vt 0.5537109 0.9121094
vt 0.5571289 0.9101563
vt 0.5532227 0.887207
vt 0.5883789 0.8994141
vt 0.5893555 0.9243164
vt 0.5537109 0.9121094
vt 0.5883789 0.8994141
vt 0.5932617 0.8964844
vt 0.5922852 0.9223633
vt 0.5893555 0.9243164
vt 0.4074707 0.4289551
vt 0.4072266 0.4304199
vt 0.4067383 0.4306641
vt 0.4064941 0.4289551
vt 0.4064941 0.4289551
vt 0.4067383 0.4306641
vt 0.4030762 0.4301758
vt 0.402832 0.4287109
vt 0.402832 0.4287109
vt 0.4030762 0.4301758
vt 0.4035645 0.4301758
vt 0.4038086 0.4284668
vt 0.4038086 0.4284668
vt 0.4035645 0.4301758
vt 0.4072266 0.4304199
vt 0.4074707 0.4289551
vt 0.4030762 0.4309082
vt 0.4030762 0.4313965
vt 0.4035645 0.4311523
vt 0.4035645 0.4309082
vt 0.4067383 0.4313965
vt 0.4067383 0.4316406
vt 0.4030762 0.4313965
vt 0.4030762 0.4309082
vt 0.4072266 0.4311523
vt 0.4069824 0.4316406
vt 0.4067383 0.4316406
vt 0.4067383 0.4313965
vt 0.4035645 0.4309082
vt 0.4035645 0.4311523
vt 0.4069824 0.4316406
vt 0.4072266 0.4311523

g Barrier_1_(4)_742_107
usemtl Barrier_1_(4)_742_107
usemap Barrier_1_(4)_742_107
f 1/1/1 3/3/3 2/2/2
f 1/1/1 4/4/4 3/3/3
f 5/5/5 7/7/7 6/6/6
f 5/5/5 8/8/8 7/7/7
f 9/9/9 11/11/11 10/10/10
f 9/9/9 12/12/12 11/11/11
f 13/13/13 15/15/15 14/14/14
f 13/13/13 16/16/16 15/15/15
f 17/17/17 19/19/19 18/18/18
f 17/17/17 20/20/20 19/19/19
f 21/21/21 23/23/23 22/22/22
f 21/21/21 24/24/24 23/23/23
f 25/25/25 27/27/27 26/26/26
f 25/25/25 28/28/28 27/27/27
f 29/29/29 31/31/31 30/30/30
f 29/29/29 32/32/32 31/31/31
f 33/33/33 35/35/35 34/34/34
f 33/33/33 36/36/36 35/35/35
f 37/37/37 39/39/39 38/38/38
f 37/37/37 40/40/40 39/39/39
f 41/41/41 43/43/43 42/42/42
f 41/41/41 44/44/44 43/43/43
f 45/45/45 47/47/47 46/46/46
f 45/45/45 48/48/48 47/47/47
f 49/49/49 51/51/51 50/50/50
f 49/49/49 52/52/52 51/51/51
f 53/53/53 55/55/55 54/54/54
f 53/53/53 56/56/56 55/55/55
f 57/57/57 59/59/59 58/58/58
f 57/57/57 60/60/60 59/59/59
f 61/61/61 63/63/63 62/62/62
f 61/61/61 64/64/64 63/63/63
f 65/65/65 67/67/67 66/66/66
f 65/65/65 68/68/68 67/67/67
f 69/69/69 71/71/71 70/70/70
f 69/69/69 72/72/72 71/71/71
