#crate_02_(10)_708_247.obj

v 0.7437692 0.05045938 -0.5531143
v 0.7437665 1.328279 0.7247099
v 0.7437656 1.466295 0.5866947
v 0.7437681 0.1884766 -0.6911296
v 0.7437681 0.1884766 -0.6911296
v 0.7437656 1.466295 0.5866947
v 0.6184751 1.466295 0.5866867
v 0.6184779 0.1884766 -0.6911375
v 0.6184711 0.05045938 -0.553109
v 0.618476 1.328279 0.7247019
v 0.7437665 1.328279 0.7247099
v 0.7437692 0.05045938 -0.5531143
v -0.5872763 0.182416 0.6729054
v -0.5872763 1.371633 0.6729054
v 0.5875755 1.371633 0.672902
v 0.5875755 0.182416 0.672902
v -0.5879018 1.460101 0.6005576
v -0.587895 1.460101 -0.6005013
v 0.5876052 1.460101 -0.6004999
v 0.587606 1.460101 0.6005457
v -0.5872748 1.371633 -0.6728339
v -0.5872748 0.182416 -0.6728339
v 0.5875694 0.182416 -0.6728241
v 0.5875694 1.371633 -0.6728241
v -0.587895 0.09449673 -0.6005013
v -0.5879018 0.09449673 0.6005576
v 0.587606 0.09449673 0.6005457
v 0.5876052 0.09449673 -0.6004999
v 0.6733668 0.1825948 0.6004151
v 0.6733668 1.371715 0.6004151
v 0.6733614 1.371715 -0.6004922
v 0.6733614 0.1825948 -0.6004922
v -0.6732605 0.1825948 -0.6004946
v -0.6732605 1.371715 -0.6004946
v -0.6732627 1.371715 0.6004259
v -0.6732627 0.1825948 0.6004259
v -0.7771589 0 0.7771559
v -0.5872788 0.182416 0.7771642
v 0.587573 0.182416 0.7771608
v 0.7771629 0 0.7771599
v 0.587573 1.371633 0.7771608
v 0.7771629 1.554323 0.7771599
v -0.5872788 1.371633 0.7771642
v -0.7771589 1.554323 0.7771559
v -0.777163 1.554323 -0.7771599
v -0.5872754 1.371633 -0.7771649
v 0.587569 1.371633 -0.777155
v 0.7771589 1.554323 -0.7771559
v 0.587569 0.182416 -0.777155
v 0.7771589 0 -0.7771559
v -0.5872754 0.182416 -0.7771649
v -0.777163 0 -0.7771599
v -0.5872788 0.182416 0.7771642
v -0.5872763 0.182416 0.6729054
v 0.5875755 0.182416 0.672902
v 0.587573 0.182416 0.7771608
v 0.587573 0.182416 0.7771608
v 0.5875755 0.182416 0.672902
v 0.5875755 1.371633 0.672902
v 0.587573 1.371633 0.7771608
v 0.587573 1.371633 0.7771608
v 0.5875755 1.371633 0.672902
v -0.5872763 1.371633 0.6729054
v -0.5872788 1.371633 0.7771642
v -0.5872788 1.371633 0.7771642
v -0.5872763 1.371633 0.6729054
v -0.5872763 0.182416 0.6729054
v -0.5872788 0.182416 0.7771642
v -0.5872754 1.371633 -0.7771649
v -0.5872748 1.371633 -0.6728339
v 0.5875694 1.371633 -0.6728241
v 0.587569 1.371633 -0.777155
v 0.587569 1.371633 -0.777155
v 0.5875694 1.371633 -0.6728241
v 0.5875694 0.182416 -0.6728241
v 0.587569 0.182416 -0.777155
v 0.587569 0.182416 -0.777155
v 0.5875694 0.182416 -0.6728241
v -0.5872748 0.182416 -0.6728339
v -0.5872754 0.182416 -0.7771649
v -0.5872754 0.182416 -0.7771649
v -0.5872748 0.182416 -0.6728339
v -0.5872748 1.371633 -0.6728339
v -0.5872754 1.371633 -0.7771649
v 0.7771629 0 0.7771599
v 0.7771622 0.1825948 0.6004195
v 0.7771645 0.1825948 -0.6005009
v 0.7771589 0 -0.7771559
v 0.7771645 1.371715 -0.6005009
v 0.7771589 1.554323 -0.7771559
v 0.7771622 1.371715 0.6004195
v 0.7771629 1.554323 0.7771599
v -0.777163 0 -0.7771599
v -0.7771651 0.1825948 -0.6004917
v -0.7771597 0.1825948 0.6004155
v -0.7771589 0 0.7771559
v -0.7771597 1.371715 0.6004155
v -0.7771589 1.554323 0.7771559
v -0.7771651 1.371715 -0.6004917
v -0.777163 1.554323 -0.7771599
v 0.7771622 0.1825948 0.6004195
v 0.6733668 0.1825948 0.6004151
v 0.6733614 0.1825948 -0.6004922
v 0.7771645 0.1825948 -0.6005009
v 0.7771645 0.1825948 -0.6005009
v 0.6733614 0.1825948 -0.6004922
v 0.6733614 1.371715 -0.6004922
v 0.7771645 1.371715 -0.6005009
v 0.7771645 1.371715 -0.6005009
v 0.6733614 1.371715 -0.6004922
v 0.6733668 1.371715 0.6004151
v 0.7771622 1.371715 0.6004195
v 0.7771622 1.371715 0.6004195
v 0.6733668 1.371715 0.6004151
v 0.6733668 0.1825948 0.6004151
v 0.7771622 0.1825948 0.6004195
v -0.7771651 0.1825948 -0.6004917
v -0.6732605 0.1825948 -0.6004946
v -0.6732627 0.1825948 0.6004259
v -0.7771597 0.1825948 0.6004155
v -0.7771597 0.1825948 0.6004155
v -0.6732627 0.1825948 0.6004259
v -0.6732627 1.371715 0.6004259
v -0.7771597 1.371715 0.6004155
v -0.7771597 1.371715 0.6004155
v -0.6732627 1.371715 0.6004259
v -0.6732605 1.371715 -0.6004946
v -0.7771651 1.371715 -0.6004917
v -0.7771651 1.371715 -0.6004917
v -0.6732605 1.371715 -0.6004946
v -0.6732605 0.1825948 -0.6004946
v -0.7771651 0.1825948 -0.6004917
v -0.7771589 1.554323 0.7771559
v -0.5879018 1.554323 0.6005576
v 0.587606 1.554323 0.6005457
v 0.7771629 1.554323 0.7771599
v 0.5876052 1.554323 -0.6004999
v 0.7771589 1.554323 -0.7771559
v -0.587895 1.554323 -0.6005013
v -0.777163 1.554323 -0.7771599
v -0.777163 0 -0.7771599
v -0.587895 0 -0.6005013
v 0.5876052 0 -0.6004999
v 0.7771589 0 -0.7771559
v 0.587606 0 0.6005457
v 0.7771629 0 0.7771599
v -0.5879018 0 0.6005576
v -0.7771589 0 0.7771559
v -0.5879018 1.554323 0.6005576
v -0.5879018 1.460101 0.6005576
v 0.587606 1.460101 0.6005457
v 0.587606 1.554323 0.6005457
v 0.587606 1.554323 0.6005457
v 0.587606 1.460101 0.6005457
v 0.5876052 1.460101 -0.6004999
v 0.5876052 1.554323 -0.6004999
v 0.5876052 1.554323 -0.6004999
v 0.5876052 1.460101 -0.6004999
v -0.587895 1.460101 -0.6005013
v -0.587895 1.554323 -0.6005013
v -0.587895 1.554323 -0.6005013
v -0.587895 1.460101 -0.6005013
v -0.5879018 1.460101 0.6005576
v -0.5879018 1.554323 0.6005576
v -0.587895 0 -0.6005013
v -0.587895 0.09449673 -0.6005013
v 0.5876052 0.09449673 -0.6004999
v 0.5876052 0 -0.6004999
v 0.5876052 0 -0.6004999
v 0.5876052 0.09449673 -0.6004999
v 0.587606 0.09449673 0.6005457
v 0.587606 0 0.6005457
v 0.587606 0 0.6005457
v 0.587606 0.09449673 0.6005457
v -0.5879018 0.09449673 0.6005576
v -0.5879018 0 0.6005576
v -0.5879018 0 0.6005576
v -0.5879018 0.09449673 0.6005576
v -0.587895 0.09449673 -0.6005013
v -0.587895 0 -0.6005013
v -0.7437692 0.05045938 0.5531143
v -0.7437665 1.328279 -0.7247099
v -0.7437656 1.466295 -0.5866947
v -0.7437681 0.1884766 0.6911296
v -0.7437681 0.1884766 0.6911296
v -0.7437656 1.466295 -0.5866947
v -0.6184751 1.466295 -0.5866867
v -0.6184779 0.1884766 0.6911375
v -0.6184711 0.05045938 0.553109
v -0.618476 1.328279 -0.7247019
v -0.7437665 1.328279 -0.7247099
v -0.7437692 0.05045938 0.5531143
v -0.7267048 0.2240477 0.7437762
v 0.5511149 1.501866 0.7437747
v 0.6891316 1.36385 0.7437741
v -0.5886883 0.08603048 0.7437755
v -0.5886883 0.08603048 0.7437755
v 0.6891316 1.36385 0.7437741
v 0.6891359 1.36385 0.6184705
v -0.5886838 0.08603048 0.618472
v -0.7267005 0.2240477 0.6184726
v 0.5511192 1.501866 0.6184711
v 0.5511149 1.501866 0.7437747
v -0.7267048 0.2240477 0.7437762
v 0.7267048 0.2240477 -0.7437762
v -0.5511149 1.501866 -0.7437747
v -0.6891316 1.36385 -0.7437741
v 0.5886883 0.08603048 -0.7437755
v 0.5886883 0.08603048 -0.7437755
v -0.6891316 1.36385 -0.7437741
v -0.6891359 1.36385 -0.6184705
v 0.5886838 0.08603048 -0.618472
v 0.7267005 0.2240477 -0.6184726
v -0.5511192 1.501866 -0.6184711
v -0.5511149 1.501866 -0.7437747
v 0.7267048 0.2240477 -0.7437762
v -0.7267008 1.520931 0.5531138
v 0.551114 1.520931 -0.7246987
v 0.6891316 1.520931 -0.586684
v -0.5886832 1.520931 0.6911284
v -0.5886832 1.520931 0.6911284
v 0.6891316 1.520931 -0.586684
v 0.6891316 1.395636 -0.586684
v -0.5886832 1.395636 0.6911284
v -0.7267008 1.395636 0.5531138
v 0.551114 1.395636 -0.7246987
v 0.551114 1.520931 -0.7246987
v -0.7267008 1.520931 0.5531138
v 0.7266993 0.03339195 0.5531181
v -0.5511179 0.03339195 -0.7247047
v -0.6891337 0.03339195 -0.5866889
v 0.5886835 0.03339195 0.6911339
v 0.5886835 0.03339195 0.6911339
v -0.6891337 0.03339195 -0.5866889
v -0.6891337 0.1586876 -0.5866889
v 0.5886835 0.1586876 0.6911339
v 0.7266993 0.1586876 0.5531181
v -0.5511179 0.1586876 -0.7247047
v -0.5511179 0.03339195 -0.7247047
v 0.7266993 0.03339195 0.5531181

vn 0.8656783 0 -0.5006009
vn 0.8656783 0 -0.5006009
vn 0.8656783 0 -0.5006009
vn 0.8656783 0 -0.5006009
vn -0.3539782 0.7071069 -0.6121268
vn -0.3539782 0.7071069 -0.6121268
vn -0.3539782 0.7071069 -0.6121268
vn -0.3539782 0.7071069 -0.6121268
vn 0.3539782 -0.7071069 0.6121268
vn 0.3539782 -0.7071069 0.6121268
vn 0.3539782 -0.7071069 0.6121268
vn 0.3539782 -0.7071069 0.6121268
vn 0.5006009 0 0.8656783
vn 0.5006009 0 0.8656783
vn 0.5006009 0 0.8656783
vn 0.5006009 0 0.8656783
vn 0 1 0
vn 0 1 0
vn 0 1 0
vn 0 1 0
vn -0.5006009 0 -0.8656783
vn -0.5006009 0 -0.8656783
vn -0.5006009 0 -0.8656783
vn -0.5006009 0 -0.8656783
vn 0 -1 0
vn 0 -1 0
vn 0 -1 0
vn 0 -1 0
vn 0.8656783 0 -0.5006009
vn 0.8656783 0 -0.5006009
vn 0.8656783 0 -0.5006009
vn 0.8656783 0 -0.5006009
vn -0.8656783 0 0.5006009
vn -0.8656783 0 0.5006009
vn -0.8656783 0 0.5006009
vn -0.8656783 0 0.5006009
vn 0.5006009 0 0.8656783
vn 0.5006009 0 0.8656783
vn 0.5006009 0 0.8656783
vn 0.5006009 0 0.8656783
vn 0.5006009 0 0.8656783
vn 0.5006009 0 0.8656783
vn 0.5006009 0 0.8656783
vn 0.5006009 0 0.8656783
vn -0.5006009 0 -0.8656783
vn -0.5006009 0 -0.8656783
vn -0.5006009 0 -0.8656783
vn -0.5006009 0 -0.8656783
vn -0.5006009 0 -0.8656783
vn -0.5006009 0 -0.8656783
vn -0.5006009 0 -0.8656783
vn -0.5006009 0 -0.8656783
vn 0 1 0
vn 0 1 0
vn 0 1 0
vn 0 1 0
vn -0.8656783 0 0.5006009
vn -0.8656783 0 0.5006009
vn -0.8656783 0 0.5006009
vn -0.8656783 0 0.5006009
vn 0 -1 0
vn 0 -1 0
vn 0 -1 0
vn 0 -1 0
vn 0.8656783 0 -0.5006009
vn 0.8656783 0 -0.5006009
vn 0.8656783 0 -0.5006009
vn 0.8656783 0 -0.5006009
vn 0 -1 0
vn 0 -1 0
vn 0 -1 0
vn 0 -1 0
vn -0.8656783 0 0.5006009
vn -0.8656783 0 0.5006009
vn -0.8656783 0 0.5006009
vn -0.8656783 0 0.5006009
vn 0 1 0
vn 0 1 0
vn 0 1 0
vn 0 1 0
vn 0.8656783 0 -0.5006009
vn 0.8656783 0 -0.5006009
vn 0.8656783 0 -0.5006009
vn 0.8656783 0 -0.5006009
vn 0.8656783 0 -0.5006009
vn 0.8656783 0 -0.5006009
vn 0.8656783 0 -0.5006009
vn 0.8656783 0 -0.5006009
vn 0.8656783 0 -0.5006009
vn 0.8656783 0 -0.5006009
vn 0.8656783 0 -0.5006009
vn 0.8656783 0 -0.5006009
vn -0.8656783 0 0.5006009
vn -0.8656783 0 0.5006009
vn -0.8656783 0 0.5006009
vn -0.8656783 0 0.5006009
vn -0.8656783 0 0.5006009
vn -0.8656783 0 0.5006009
vn -0.8656783 0 0.5006009
vn -0.8656783 0 0.5006009
vn 0 1 0
vn 0 1 0
vn 0 1 0
vn 0 1 0
vn 0.5006009 0 0.8656783
vn 0.5006009 0 0.8656783
vn 0.5006009 0 0.8656783
vn 0.5006009 0 0.8656783
vn 0 -1 0
vn 0 -1 0
vn 0 -1 0
vn 0 -1 0
vn -0.5006009 0 -0.8656783
vn -0.5006009 0 -0.8656783
vn -0.5006009 0 -0.8656783
vn -0.5006009 0 -0.8656783
vn 0 1 0
vn 0 1 0
vn 0 1 0
vn 0 1 0
vn -0.5006009 0 -0.8656783
vn -0.5006009 0 -0.8656783
vn -0.5006009 0 -0.8656783
vn -0.5006009 0 -0.8656783
vn 0 -1 0
vn 0 -1 0
vn 0 -1 0
vn 0 -1 0
vn 0.5006009 0 0.8656783
vn 0.5006009 0 0.8656783
vn 0.5006009 0 0.8656783
vn 0.5006009 0 0.8656783
vn 0 1 0
vn 0 1 0
vn 0 1 0
vn 0 1 0
vn 0 1 0
vn 0 1 0
vn 0 1 0
vn 0 1 0
vn 0 -1 0
vn 0 -1 0
vn 0 -1 0
vn 0 -1 0
vn 0 -1 0
vn 0 -1 0
vn 0 -1 0
vn 0 -1 0
vn -0.5006009 0 -0.8656783
vn -0.5006009 0 -0.8656783
vn -0.5006009 0 -0.8656783
vn -0.5006009 0 -0.8656783
vn -0.8656783 0 0.5006009
vn -0.8656783 0 0.5006009
vn -0.8656783 0 0.5006009
vn -0.8656783 0 0.5006009
vn 0.5006009 0 0.8656783
vn 0.5006009 0 0.8656783
vn 0.5006009 0 0.8656783
vn 0.5006009 0 0.8656783
vn 0.8656783 0 -0.5006009
vn 0.8656783 0 -0.5006009
vn 0.8656783 0 -0.5006009
vn 0.8656783 0 -0.5006009
vn 0.5006009 0 0.8656783
vn 0.5006009 0 0.8656783
vn 0.5006009 0 0.8656783
vn 0.5006009 0 0.8656783
vn -0.8656783 0 0.5006009
vn -0.8656783 0 0.5006009
vn -0.8656783 0 0.5006009
vn -0.8656783 0 0.5006009
vn -0.5006009 0 -0.8656783
vn -0.5006009 0 -0.8656783
vn -0.5006009 0 -0.8656783
vn -0.5006009 0 -0.8656783
vn 0.8656783 0 -0.5006009
vn 0.8656783 0 -0.5006009
vn 0.8656783 0 -0.5006009
vn 0.8656783 0 -0.5006009
vn -0.8656783 0 0.5006009
vn -0.8656783 0 0.5006009
vn -0.8656783 0 0.5006009
vn -0.8656783 0 0.5006009
vn 0.3539782 0.7071069 0.6121268
vn 0.3539782 0.7071069 0.6121268
vn 0.3539782 0.7071069 0.6121268
vn 0.3539782 0.7071069 0.6121268
vn -0.3539782 -0.7071069 -0.6121268
vn -0.3539782 -0.7071069 -0.6121268
vn -0.3539782 -0.7071069 -0.6121268
vn -0.3539782 -0.7071069 -0.6121268
vn 0.5006009 0 0.8656783
vn 0.5006009 0 0.8656783
vn 0.5006009 0 0.8656783
vn 0.5006009 0 0.8656783
vn 0.6121269 -0.7071068 -0.3539783
vn 0.6121269 -0.7071068 -0.3539783
vn 0.6121269 -0.7071068 -0.3539783
vn 0.6121269 -0.7071068 -0.3539783
vn -0.6121269 0.7071068 0.3539783
vn -0.6121269 0.7071068 0.3539783
vn -0.6121269 0.7071068 0.3539783
vn -0.6121269 0.7071068 0.3539783
vn -0.5006009 0 -0.8656783
vn -0.5006009 0 -0.8656783
vn -0.5006009 0 -0.8656783
vn -0.5006009 0 -0.8656783
vn -0.6121269 -0.7071068 0.3539783
vn -0.6121269 -0.7071068 0.3539783
vn -0.6121269 -0.7071068 0.3539783
vn -0.6121269 -0.7071068 0.3539783
vn 0.6121269 0.7071068 -0.3539783
vn 0.6121269 0.7071068 -0.3539783
vn 0.6121269 0.7071068 -0.3539783
vn 0.6121269 0.7071068 -0.3539783
vn 0 1 0
vn 0 1 0
vn 0 1 0
vn 0 1 0
vn 0.9661053 0 0.2581484
vn 0.9661053 0 0.2581484
vn 0.9661053 0 0.2581484
vn 0.9661053 0 0.2581484
vn -0.9661053 0 -0.2581484
vn -0.9661053 0 -0.2581484
vn -0.9661053 0 -0.2581484
vn -0.9661053 0 -0.2581484
vn 0 -1 0
vn 0 -1 0
vn 0 -1 0
vn 0 -1 0
vn -0.2581489 0 0.9661051
vn -0.2581489 0 0.9661051
vn -0.2581489 0 0.9661051
vn -0.2581489 0 0.9661051
vn 0.2581489 0 -0.9661051
vn 0.2581489 0 -0.9661051
vn 0.2581489 0 -0.9661051
vn 0.2581489 0 -0.9661051

vt 0.7387695 0.7993164
vt 0.7387695 0.8081055
vt 0.7475586 0.8081055
vt 0.7475586 0.7993164
vt 0.7451172 0.9726563
vt 0.7451172 0.9814453
vt 0.7543945 0.9814453
vt 0.7543945 0.9726563
vt 0.7275391 0.9726563
vt 0.7275391 0.9814453
vt 0.7363281 0.9814453
vt 0.7363281 0.9726563
vt 0.8012695 0.9946289
vt 0.8515625 0.9946289
vt 0.8515625 0.7163086
vt 0.8012695 0.7163086
vt 0.8012695 0.9946289
vt 0.8515625 0.9946289
vt 0.8515625 0.7163086
vt 0.8012695 0.7163086
vt 0.8012695 0.9946289
vt 0.8515625 0.9946289
vt 0.8515625 0.7163086
vt 0.8012695 0.7163086
vt 0.8012695 0.9946289
vt 0.8515625 0.9946289
vt 0.8515625 0.7163086
vt 0.8012695 0.7163086
vt 0.8012695 0.9946289
vt 0.8515625 0.9946289
vt 0.8515625 0.7163086
vt 0.8012695 0.7163086
vt 0.8012695 0.9946289
vt 0.8515625 0.9946289
vt 0.8515625 0.7163086
vt 0.8012695 0.7163086
vt 0.7368164 0.9165039
vt 0.737793 0.9169922
vt 0.7431641 0.9169922
vt 0.7441406 0.9165039
vt 0.7431641 0.9199219
vt 0.7441406 0.9204102
vt 0.737793 0.9199219
vt 0.7368164 0.9204102
vt 0.7446289 0.9165039
vt 0.7451172 0.9169922
vt 0.7509766 0.9169922
vt 0.7519531 0.9165039
vt 0.7509766 0.9199219
vt 0.7519531 0.9204102
vt 0.7451172 0.9199219
vt 0.7446289 0.9204102
vt 0.7172852 0.9833984
vt 0.71875 0.9833984
vt 0.71875 0.9755859
vt 0.7172852 0.9755859
vt 0.7456055 0.9755859
vt 0.7441406 0.9755859
vt 0.7441406 0.9833984
vt 0.7456055 0.9833984
vt 0.7241211 0.9755859
vt 0.7231445 0.9755859
vt 0.7231445 0.9833984
vt 0.7241211 0.9833984
vt 0.7426758 0.9833984
vt 0.7436523 0.9833984
vt 0.7436523 0.9755859
vt 0.7426758 0.9755859
vt 0.7211914 0.9833984
vt 0.7226563 0.9833984
vt 0.7226563 0.9755859
vt 0.7211914 0.9755859
vt 0.7407227 0.9833984
vt 0.7421875 0.9833984
vt 0.7421875 0.9755859
vt 0.7407227 0.9755859
vt 0.7207031 0.9755859
vt 0.7192383 0.9755859
vt 0.7192383 0.9833984
vt 0.7207031 0.9833984
vt 0.7402344 0.9755859
vt 0.7387695 0.9755859
vt 0.7387695 0.9833984
vt 0.7402344 0.9833984
vt 0.7216797 0.8637695
vt 0.7226563 0.8642578
vt 0.7280273 0.8642578
vt 0.7290039 0.8637695
vt 0.7280273 0.8671875
vt 0.7290039 0.8676758
vt 0.7226563 0.8671875
vt 0.7216797 0.8676758
vt 0.7495117 0.8535156
vt 0.75 0.8540039
vt 0.7558594 0.8540039
vt 0.7568359 0.8535156
vt 0.7558594 0.8569336
vt 0.7568359 0.8574219
vt 0.75 0.8569336
vt 0.7495117 0.8574219
vt 0.7587891 0.9677734
vt 0.7573242 0.9677734
vt 0.7573242 0.9755859
vt 0.7587891 0.9755859
vt 0.7348633 0.9755859
vt 0.7333984 0.9755859
vt 0.7333984 0.9833984
vt 0.7348633 0.9833984
vt 0.7788086 0.9677734
vt 0.7773438 0.9677734
vt 0.7773438 0.9755859
vt 0.7788086 0.9755859
vt 0.7382813 0.9755859
vt 0.7368164 0.9755859
vt 0.7368164 0.9833984
vt 0.7382813 0.9833984
vt 0.7592773 0.9755859
vt 0.7607422 0.9755859
vt 0.7607422 0.9677734
vt 0.7592773 0.9677734
vt 0.7353516 0.9833984
vt 0.7363281 0.9833984
vt 0.7363281 0.9755859
vt 0.7353516 0.9755859
vt 0.777832 0.9833984
vt 0.7788086 0.9833984
vt 0.7788086 0.9755859
vt 0.777832 0.9755859
vt 0.7314453 0.9833984
vt 0.7329102 0.9833984
vt 0.7329102 0.9755859
vt 0.7314453 0.9755859
vt 0.7446289 0.7993164
vt 0.7451172 0.7998047
vt 0.7509766 0.7998047
vt 0.7519531 0.7993164
vt 0.7509766 0.8027344
vt 0.7519531 0.8027344
vt 0.7451172 0.8027344
vt 0.7446289 0.8027344
vt 0.7421875 0.9204102
vt 0.7431641 0.9208984
vt 0.7485352 0.9208984
vt 0.7495117 0.9204102
vt 0.7485352 0.9238281
vt 0.7495117 0.9243164
vt 0.7431641 0.9238281
vt 0.7421875 0.9243164
vt 0.7280273 0.9833984
vt 0.7294922 0.9833984
vt 0.7294922 0.9755859
vt 0.7280273 0.9755859
vt 0.7231445 0.9677734
vt 0.722168 0.9677734
vt 0.722168 0.9755859
vt 0.7231445 0.9755859
vt 0.730957 0.9755859
vt 0.7299805 0.9755859
vt 0.7299805 0.9833984
vt 0.730957 0.9833984
vt 0.7197266 0.9677734
vt 0.71875 0.9677734
vt 0.71875 0.9755859
vt 0.7197266 0.9755859
vt 0.7265625 0.9833984
vt 0.7275391 0.9833984
vt 0.7275391 0.9755859
vt 0.7265625 0.9755859
vt 0.7397461 0.9755859
vt 0.7412109 0.9755859
vt 0.7412109 0.9677734
vt 0.7397461 0.9677734
vt 0.7260742 0.9755859
vt 0.7246094 0.9755859
vt 0.7246094 0.9833984
vt 0.7260742 0.9833984
vt 0.7202148 0.9755859
vt 0.7216797 0.9755859
vt 0.7216797 0.9677734
vt 0.7202148 0.9677734
vt 0.7387695 0.7993164
vt 0.7387695 0.8081055
vt 0.7475586 0.8081055
vt 0.7475586 0.7993164
vt 0.7451172 0.9726563
vt 0.7451172 0.9814453
vt 0.7543945 0.9814453
vt 0.7543945 0.9726563
vt 0.7275391 0.9726563
vt 0.7275391 0.9814453
vt 0.7363281 0.9814453
vt 0.7363281 0.9726563
vt 0.7397461 0.8789063
vt 0.7397461 0.8876953
vt 0.7485352 0.8876953
vt 0.7485352 0.8789063
vt 0.7451172 0.9726563
vt 0.7451172 0.9814453
vt 0.7543945 0.9814453
vt 0.7543945 0.9726563
vt 0.7275391 0.9726563
vt 0.7275391 0.9814453
vt 0.7363281 0.9814453
vt 0.7363281 0.9726563
vt 0.7397461 0.8789063
vt 0.7397461 0.8876953
vt 0.7485352 0.8876953
vt 0.7485352 0.8789063
vt 0.7451172 0.9726563
vt 0.7451172 0.9814453
vt 0.7543945 0.9814453
vt 0.7543945 0.9726563
vt 0.7275391 0.9726563
vt 0.7275391 0.9814453
vt 0.7363281 0.9814453
vt 0.7363281 0.9726563
vt 0.7387695 0.7993164
vt 0.7387695 0.8081055
vt 0.7475586 0.8081055
vt 0.7475586 0.7993164
vt 0.7451172 0.9726563
vt 0.7451172 0.9814453
vt 0.7543945 0.9814453
vt 0.7543945 0.9726563
vt 0.7275391 0.9726563
vt 0.7275391 0.9814453
vt 0.7363281 0.9814453
vt 0.7363281 0.9726563
vt 0.7387695 0.7993164
vt 0.7387695 0.8081055
vt 0.7475586 0.8081055
vt 0.7475586 0.7993164
vt 0.7451172 0.9726563
vt 0.7451172 0.9814453
vt 0.7543945 0.9814453
vt 0.7543945 0.9726563
vt 0.7275391 0.9726563
vt 0.7275391 0.9814453
vt 0.7363281 0.9814453
vt 0.7363281 0.9726563

g crate_02_(10)_708_247
usemtl crate_02_(10)_708_247
usemap crate_02_(10)_708_247
f 1/1/1 3/3/3 2/2/2
f 1/1/1 4/4/4 3/3/3
f 5/5/5 7/7/7 6/6/6
f 5/5/5 8/8/8 7/7/7
f 9/9/9 11/11/11 10/10/10
f 9/9/9 12/12/12 11/11/11
f 13/13/13 15/15/15 14/14/14
f 13/13/13 16/16/16 15/15/15
f 17/17/17 19/19/19 18/18/18
f 17/17/17 20/20/20 19/19/19
f 21/21/21 23/23/23 22/22/22
f 21/21/21 24/24/24 23/23/23
f 25/25/25 27/27/27 26/26/26
f 25/25/25 28/28/28 27/27/27
f 29/29/29 31/31/31 30/30/30
f 29/29/29 32/32/32 31/31/31
f 33/33/33 35/35/35 34/34/34
f 33/33/33 36/36/36 35/35/35
f 37/37/37 39/39/39 38/38/38
f 37/37/37 40/40/40 39/39/39
f 40/40/40 41/41/41 39/39/39
f 40/40/40 42/42/42 41/41/41
f 42/42/42 43/43/43 41/41/41
f 42/42/42 44/44/44 43/43/43
f 44/44/44 38/38/38 43/43/43
f 44/44/44 37/37/37 38/38/38
f 45/45/45 47/47/47 46/46/46
f 45/45/45 48/48/48 47/47/47
f 48/48/48 49/49/49 47/47/47
f 48/48/48 50/50/50 49/49/49
f 50/50/50 51/51/51 49/49/49
f 50/50/50 52/52/52 51/51/51
f 52/52/52 46/46/46 51/51/51
f 52/52/52 45/45/45 46/46/46
f 53/53/53 55/55/55 54/54/54
f 53/53/53 56/56/56 55/55/55
f 57/57/57 59/59/59 58/58/58
f 57/57/57 60/60/60 59/59/59
f 61/61/61 63/63/63 62/62/62
f 61/61/61 64/64/64 63/63/63
f 65/65/65 67/67/67 66/66/66
f 65/65/65 68/68/68 67/67/67
f 69/69/69 71/71/71 70/70/70
f 69/69/69 72/72/72 71/71/71
f 73/73/73 75/75/75 74/74/74
f 73/73/73 76/76/76 75/75/75
f 77/77/77 79/79/79 78/78/78
f 77/77/77 80/80/80 79/79/79
f 81/81/81 83/83/83 82/82/82
f 81/81/81 84/84/84 83/83/83
f 85/85/85 87/87/87 86/86/86
f 85/85/85 88/88/88 87/87/87
f 88/88/88 89/89/89 87/87/87
f 88/88/88 90/90/90 89/89/89
f 90/90/90 91/91/91 89/89/89
f 90/90/90 92/92/92 91/91/91
f 92/92/92 86/86/86 91/91/91
f 92/92/92 85/85/85 86/86/86
f 93/93/93 95/95/95 94/94/94
f 93/93/93 96/96/96 95/95/95
f 96/96/96 97/97/97 95/95/95
f 96/96/96 98/98/98 97/97/97
f 98/98/98 99/99/99 97/97/97
f 98/98/98 100/100/100 99/99/99
f 100/100/100 94/94/94 99/99/99
f 100/100/100 93/93/93 94/94/94
f 101/101/101 103/103/103 102/102/102
f 101/101/101 104/104/104 103/103/103
f 105/105/105 107/107/107 106/106/106
f 105/105/105 108/108/108 107/107/107
f 109/109/109 111/111/111 110/110/110
f 109/109/109 112/112/112 111/111/111
f 113/113/113 115/115/115 114/114/114
f 113/113/113 116/116/116 115/115/115
f 117/117/117 119/119/119 118/118/118
f 117/117/117 120/120/120 119/119/119
f 121/121/121 123/123/123 122/122/122
f 121/121/121 124/124/124 123/123/123
f 125/125/125 127/127/127 126/126/126
f 125/125/125 128/128/128 127/127/127
f 129/129/129 131/131/131 130/130/130
f 129/129/129 132/132/132 131/131/131
f 133/133/133 135/135/135 134/134/134
f 133/133/133 136/136/136 135/135/135
f 136/136/136 137/137/137 135/135/135
f 136/136/136 138/138/138 137/137/137
f 138/138/138 139/139/139 137/137/137
f 138/138/138 140/140/140 139/139/139
f 140/140/140 134/134/134 139/139/139
f 140/140/140 133/133/133 134/134/134
f 141/141/141 143/143/143 142/142/142
f 141/141/141 144/144/144 143/143/143
f 144/144/144 145/145/145 143/143/143
f 144/144/144 146/146/146 145/145/145
f 146/146/146 147/147/147 145/145/145
f 146/146/146 148/148/148 147/147/147
f 148/148/148 142/142/142 147/147/147
f 148/148/148 141/141/141 142/142/142
f 149/149/149 151/151/151 150/150/150
f 149/149/149 152/152/152 151/151/151
f 153/153/153 155/155/155 154/154/154
f 153/153/153 156/156/156 155/155/155
f 157/157/157 159/159/159 158/158/158
f 157/157/157 160/160/160 159/159/159
f 161/161/161 163/163/163 162/162/162
f 161/161/161 164/164/164 163/163/163
f 165/165/165 167/167/167 166/166/166
f 165/165/165 168/168/168 167/167/167
f 169/169/169 171/171/171 170/170/170
f 169/169/169 172/172/172 171/171/171
f 173/173/173 175/175/175 174/174/174
f 173/173/173 176/176/176 175/175/175
f 177/177/177 179/179/179 178/178/178
f 177/177/177 180/180/180 179/179/179
f 181/181/181 183/183/183 182/182/182
f 181/181/181 184/184/184 183/183/183
f 185/185/185 187/187/187 186/186/186
f 185/185/185 188/188/188 187/187/187
f 189/189/189 191/191/191 190/190/190
f 189/189/189 192/192/192 191/191/191
f 193/193/193 195/195/195 194/194/194
f 193/193/193 196/196/196 195/195/195
f 197/197/197 199/199/199 198/198/198
f 197/197/197 200/200/200 199/199/199
f 201/201/201 203/203/203 202/202/202
f 201/201/201 204/204/204 203/203/203
f 205/205/205 207/207/207 206/206/206
f 205/205/205 208/208/208 207/207/207
f 209/209/209 211/211/211 210/210/210
f 209/209/209 212/212/212 211/211/211
f 213/213/213 215/215/215 214/214/214
f 213/213/213 216/216/216 215/215/215
f 217/217/217 219/219/219 218/218/218
f 217/217/217 220/220/220 219/219/219
f 221/221/221 223/223/223 222/222/222
f 221/221/221 224/224/224 223/223/223
f 225/225/225 227/227/227 226/226/226
f 225/225/225 228/228/228 227/227/227
f 229/229/229 231/231/231 230/230/230
f 229/229/229 232/232/232 231/231/231
f 233/233/233 235/235/235 234/234/234
f 233/233/233 236/236/236 235/235/235
f 237/237/237 239/239/239 238/238/238
f 237/237/237 240/240/240 239/239/239
