#Grill_Map2_743_121.obj

v 18.3992 0.5782633 -22.33562
v 18.3992 4.124066 -22.33562
v 18.3992 4.124066 -4.475403
v 18.3992 0.5782633 -4.475403
v 18.3992 4.124066 5.2285
v 18.3992 0.5782633 5.2285
v 18.3992 4.124066 13.93925
v 18.3992 0.5782633 13.93925
v 18.3992 4.124066 22.38882
v 18.3992 0.5782633 22.38882
v 18.3992 0.5782633 22.38882
v 18.3992 4.124066 22.38882
v -8.823895 4.124066 22.38882
v -8.823895 0.5782633 22.38882
v -8.823895 0.5782633 22.38882
v -8.823895 4.124066 22.38882
v -8.823895 4.124066 19.1654
v -8.823895 0.5782633 19.1654
v -8.823895 4.124066 14.00036
v -8.823895 0.5782633 14.00036
v -8.823895 4.124066 11.51108
v -8.823895 0.5782633 11.51108
v -13.84444 0.5782633 11.24403
v -13.84444 4.124066 11.24403
v -13.84444 4.124066 13.61884
v -13.84444 0.5782633 13.61884
v -13.84444 0.5782633 5.79538
v -13.84444 4.124066 5.79538
v -13.84444 0.5782633 13.61884
v -13.84444 4.124066 13.61884
v -18.23801 4.124066 13.61884
v -18.23801 0.5782633 13.61884
v -12.22532 0.5782633 -21.90974
v -12.22532 4.124066 -21.90974
v -9.536368 4.124066 -22.33562
v -9.536368 0.5782633 -22.33562
v -14.65107 0.5782633 -20.67376
v -14.65107 4.124066 -20.67376
v -12.22532 4.124066 -21.90974
v -12.22532 0.5782633 -21.90974
v -16.57615 0.5782633 -18.74867
v -16.57615 4.124066 -18.74867
v -14.65107 4.124066 -20.67376
v -14.65107 0.5782633 -20.67376
v -17.81212 0.5782633 -16.32294
v -17.81212 4.124066 -16.32294
v -16.57615 4.124066 -18.74867
v -16.57615 0.5782633 -18.74867
v -18.23801 0.5782633 -13.63397
v -18.23801 4.124066 -13.63397
v -17.81212 4.124066 -16.32294
v -17.81212 0.5782633 -16.32294
v -9.536368 0.5782633 -22.33562
v -9.536368 4.124066 -22.33562
v 3.429824 4.124066 -22.33562
v 3.429824 0.5782633 -22.33562
v 7.243159 4.124066 -22.33562
v 7.243159 0.5782633 -22.33562
v 18.3992 4.124066 -22.33562
v 18.3992 0.5782633 -22.33562
v -18.23801 0.5782633 13.61884
v -18.23801 4.124066 13.61884
v -18.23801 4.124066 5.228455
v -18.23801 0.5782633 5.228455
v -18.23801 4.124066 -4.475487
v -18.23801 0.5782633 -4.475487
v -18.23801 4.124066 -13.63397
v -18.23801 0.5782633 -13.63397
v 18.3992 0.5782633 -22.33562
v 18.3992 0.5782633 -4.475403
v 18.3992 4.124066 -4.475403
v 18.3992 4.124066 -22.33562
v 18.3992 4.124066 5.2285
v 18.3992 0.5782633 5.2285
v 18.3992 4.124066 13.93925
v 18.3992 0.5782633 13.93925
v 18.3992 4.124066 22.38882
v 18.3992 0.5782633 22.38882
v 18.3992 0.5782633 22.38882
v -8.823895 0.5782633 22.38882
v -8.823895 4.124066 22.38882
v 18.3992 4.124066 22.38882
v -8.823895 0.5782633 22.38882
v -8.823895 0.5782633 19.1654
v -8.823895 4.124066 19.1654
v -8.823895 4.124066 22.38882
v -8.823895 4.124066 14.00036
v -8.823895 0.5782633 14.00036
v -8.823895 4.124066 11.51108
v -8.823895 0.5782633 11.51108
v -13.84444 0.5782633 11.24403
v -13.84444 0.5782633 13.61884
v -13.84444 4.124066 13.61884
v -13.84444 4.124066 11.24403
v -13.84444 0.5782633 5.79538
v -13.84444 4.124066 5.79538
v -13.84444 0.5782633 13.61884
v -18.23801 0.5782633 13.61884
v -18.23801 4.124066 13.61884
v -13.84444 4.124066 13.61884
v -12.22532 0.5782633 -21.90974
v -9.536368 0.5782633 -22.33562
v -9.536368 4.124066 -22.33562
v -12.22532 4.124066 -21.90974
v -14.65107 0.5782633 -20.67376
v -12.22532 0.5782633 -21.90974
v -12.22532 4.124066 -21.90974
v -14.65107 4.124066 -20.67376
v -16.57615 0.5782633 -18.74867
v -14.65107 0.5782633 -20.67376
v -14.65107 4.124066 -20.67376
v -16.57615 4.124066 -18.74867
v -17.81212 0.5782633 -16.32294
v -16.57615 0.5782633 -18.74867
v -16.57615 4.124066 -18.74867
v -17.81212 4.124066 -16.32294
v -18.23801 0.5782633 -13.63397
v -17.81212 0.5782633 -16.32294
v -17.81212 4.124066 -16.32294
v -18.23801 4.124066 -13.63397
v -9.536368 0.5782633 -22.33562
v 3.429824 0.5782633 -22.33562
v 3.429824 4.124066 -22.33562
v -9.536368 4.124066 -22.33562
v 7.243159 4.124066 -22.33562
v 7.243159 0.5782633 -22.33562
v 18.3992 4.124066 -22.33562
v 18.3992 0.5782633 -22.33562
v -18.23801 0.5782633 13.61884
v -18.23801 0.5782633 5.228455
v -18.23801 4.124066 5.228455
v -18.23801 4.124066 13.61884
v -18.23801 4.124066 -4.475487
v -18.23801 0.5782633 -4.475487
v -18.23801 4.124066 -13.63397
v -18.23801 0.5782633 -13.63397

vn -1 0 0
vn -1 0 0
vn -1 0 0
vn -1 0 0
vn -1 0 0
vn -1 0 0
vn -1 0 0
vn -1 0 0
vn -1 0 0
vn -1 0 0
vn 0 0 -1
vn 0 0 -1
vn 0 0 -1
vn 0 0 -1
vn 1 0 0
vn 1 0 0
vn 1 0 0
vn 1 0 0
vn 1 0 0
vn 1 0 0
vn 1 0 0
vn 1 0 0
vn -1 0 0
vn -1 0 0
vn -1 0 0
vn -1 0 0
vn -1 0 0
vn -1 0 0
vn 0 0 -1
vn 0 0 -1
vn 0 0 -1
vn 0 0 -1
vn 0.1564343 0 0.9876884
vn 0.1564343 0 0.9876884
vn 0.1564343 0 0.9876884
vn 0.1564343 0 0.9876884
vn 0.4539899 0 0.8910068
vn 0.4539899 0 0.8910068
vn 0.4539899 0 0.8910068
vn 0.4539899 0 0.8910068
vn 0.7071074 0 0.7071062
vn 0.7071074 0 0.7071062
vn 0.7071074 0 0.7071062
vn 0.7071074 0 0.7071062
vn 0.8910064 0 0.4539907
vn 0.8910064 0 0.4539907
vn 0.8910064 0 0.4539907
vn 0.8910064 0 0.4539907
vn 0.9876884 0 0.156434
vn 0.9876884 0 0.156434
vn 0.9876884 0 0.156434
vn 0.9876884 0 0.156434
vn 0 0 1
vn 0 0 1
vn 0 0 1
vn 0 0 1
vn 0 0 1
vn 0 0 1
vn 0 0 1
vn 0 0 1
vn 1 0 0
vn 1 0 0
vn 1 0 0
vn 1 0 0
vn 1 0 0
vn 1 0 0
vn 1 0 0
vn 1 0 0
vn 1 0 0
vn 1 0 0
vn 1 0 0
vn 1 0 0
vn 1 0 0
vn 1 0 0
vn 1 0 0
vn 1 0 0
vn 1 0 0
vn 1 0 0
vn 0 0 1
vn 0 0 1
vn 0 0 1
vn 0 0 1
vn -1 0 0
vn -1 0 0
vn -1 0 0
vn -1 0 0
vn -1 0 0
vn -1 0 0
vn -1 0 0
vn -1 0 0
vn 1 0 0
vn 1 0 0
vn 1 0 0
vn 1 0 0
vn 1 0 0
vn 1 0 0
vn 0 0 1
vn 0 0 1
vn 0 0 1
vn 0 0 1
vn -0.1564343 0 -0.9876884
vn -0.1564343 0 -0.9876884
vn -0.1564343 0 -0.9876884
vn -0.1564343 0 -0.9876884
vn -0.4539899 0 -0.8910068
vn -0.4539899 0 -0.8910068
vn -0.4539899 0 -0.8910068
vn -0.4539899 0 -0.8910068
vn -0.7071074 0 -0.7071062
vn -0.7071074 0 -0.7071062
vn -0.7071074 0 -0.7071062
vn -0.7071074 0 -0.7071062
vn -0.8910064 0 -0.4539907
vn -0.8910064 0 -0.4539907
vn -0.8910064 0 -0.4539907
vn -0.8910064 0 -0.4539907
vn -0.9876884 0 -0.156434
vn -0.9876884 0 -0.156434
vn -0.9876884 0 -0.156434
vn -0.9876884 0 -0.156434
vn 0 0 -1
vn 0 0 -1
vn 0 0 -1
vn 0 0 -1
vn 0 0 -1
vn 0 0 -1
vn 0 0 -1
vn 0 0 -1
vn -1 0 0
vn -1 0 0
vn -1 0 0
vn -1 0 0
vn -1 0 0
vn -1 0 0
vn -1 0 0
vn -1 0 0

vt 3.783203 -8.625
vt 4.488281 -7.917969
vt 8.054688 -11.48438
vt 7.34375 -12.1875
vt 9.984375 -13.41406
vt 9.28125 -14.125
vt 11.72656 -15.15625
vt 11.01563 -15.85938
vt 13.40625 -16.84375
vt 12.70313 -17.54688
vt -22.6875 17.84375
vt -21.96875 18.54688
vt -16.54688 13.11719
vt -17.25 12.40625
vt -17.25 12.40625
vt -16.54688 13.11719
vt -15.90625 12.47656
vt -16.60938 11.76563
vt -14.875 11.44531
vt -15.57813 10.73438
vt -14.375 10.94531
vt -15.08594 10.24219
vt -11.28906 6.441406
vt -10.57813 7.152344
vt -10.10938 6.675781
vt -10.8125 5.96875
vt -12.375 7.53125
vt -11.66406 8.234375
vt -10.8125 5.96875
vt -10.10938 6.675781
vt -9.234375 5.800781
vt -9.9375 5.09375
vt -2.332031 -2.513672
vt -1.624023 -1.805664
vt -1.081055 -2.349609
vt -1.788086 -3.056641
vt -2.875 -1.969727
vt -2.167969 -1.262695
vt -1.624023 -1.805664
vt -2.332031 -2.513672
vt -3.417969 -1.426758
vt -2.710938 -0.7197266
vt -2.167969 -1.262695
vt -2.875 -1.969727
vt -3.960938 -0.8842773
vt -3.251953 -0.177002
vt -2.710938 -0.7197266
vt -3.417969 -1.426758
vt -4.503906 -0.3410645
vt -3.794922 0.3659668
vt -3.251953 -0.177002
vt -3.960938 -0.8842773
vt -1.788086 -3.056641
vt -1.081055 -2.349609
vt 1.504883 -4.933594
vt 0.7973633 -5.640625
vt 2.265625 -5.695313
vt 1.557617 -6.402344
vt 4.488281 -7.917969
vt 3.783203 -8.625
vt -9.9375 5.09375
vt -9.234375 5.800781
vt -7.558594 4.128906
vt -8.265625 3.419922
vt -5.621094 2.191406
vt -6.328125 1.485352
vt -3.794922 0.3659668
vt -4.503906 -0.3410645
vt -7.089844 2.244141
vt -10.64844 5.804688
vt -9.945313 6.511719
vt -6.382813 2.951172
vt -11.875 8.445313
vt -12.58594 7.742188
vt -13.61719 10.1875
vt -14.32031 9.476563
vt -15.29688 11.86719
vt -16 11.16406
vt -12.20313 7.359375
vt -17.625 12.78906
vt -16.92188 13.49219
vt -11.49219 8.0625
vt -17.625 12.78906
vt -18.28125 13.42969
vt -17.5625 14.14063
vt -16.92188 13.49219
vt -18.59375 15.16406
vt -19.29688 14.46094
vt -19.09375 15.66406
vt -19.79688 14.95313
vt 7.980469 -12.82813
vt 7.507813 -12.35156
vt 8.21875 -11.64844
vt 8.6875 -12.11719
vt 9.070313 -13.91406
vt 9.773438 -13.20313
vt 7.507813 -12.35156
vt 6.632813 -11.47656
vt 7.339844 -10.76563
vt 8.21875 -11.64844
vt -0.9741211 -3.869141
vt -1.516602 -3.326172
vt -0.8100586 -2.619141
vt -0.2670898 -3.162109
vt -0.4311523 -4.414063
vt -0.9741211 -3.869141
vt -0.2670898 -3.162109
vt 0.2758789 -3.705078
vt 0.1116943 -4.957031
vt -0.4311523 -4.414063
vt 0.2758789 -3.705078
vt 0.8188477 -4.25
vt 0.6547852 -5.5
vt 0.1116943 -4.957031
vt 0.8188477 -4.25
vt 1.361328 -4.792969
vt 1.197266 -6.042969
vt 0.6547852 -5.5
vt 1.361328 -4.792969
vt 1.904297 -5.335938
vt -1.516602 -3.326172
vt -4.101563 -0.7412109
vt -3.396484 -0.03427124
vt -0.8100586 -2.619141
vt -4.15625 0.7260742
vt -4.863281 0.01908875
vt -6.382813 2.951172
vt -7.089844 2.244141
vt 6.632813 -11.47656
vt 4.960938 -9.804688
vt 5.667969 -9.09375
vt 7.339844 -10.76563
vt 3.730469 -7.160156
vt 3.023438 -7.867188
vt 1.904297 -5.335938
vt 1.197266 -6.042969

g Grill_Map2_743_121
usemtl Grill_Map2_743_121
usemap Grill_Map2_743_121
f 1/1/1 3/3/3 2/2/2
f 1/1/1 4/4/4 3/3/3
f 4/4/4 5/5/5 3/3/3
f 4/4/4 6/6/6 5/5/5
f 6/6/6 7/7/7 5/5/5
f 6/6/6 8/8/8 7/7/7
f 8/8/8 9/9/9 7/7/7
f 8/8/8 10/10/10 9/9/9
f 11/11/11 13/13/13 12/12/12
f 11/11/11 14/14/14 13/13/13
f 15/15/15 17/17/17 16/16/16
f 15/15/15 18/18/18 17/17/17
f 18/18/18 19/19/19 17/17/17
f 18/18/18 20/20/20 19/19/19
f 20/20/20 21/21/21 19/19/19
f 20/20/20 22/22/22 21/21/21
f 23/23/23 25/25/25 24/24/24
f 23/23/23 26/26/26 25/25/25
f 27/27/27 23/23/23 24/24/24
f 27/27/27 24/24/24 28/28/28
f 29/29/29 31/31/31 30/30/30
f 29/29/29 32/32/32 31/31/31
f 33/33/33 35/35/35 34/34/34
f 33/33/33 36/36/36 35/35/35
f 37/37/37 39/39/39 38/38/38
f 37/37/37 40/40/40 39/39/39
f 41/41/41 43/43/43 42/42/42
f 41/41/41 44/44/44 43/43/43
f 45/45/45 47/47/47 46/46/46
f 45/45/45 48/48/48 47/47/47
f 49/49/49 51/51/51 50/50/50
f 49/49/49 52/52/52 51/51/51
f 53/53/53 55/55/55 54/54/54
f 53/53/53 56/56/56 55/55/55
f 56/56/56 57/57/57 55/55/55
f 56/56/56 58/58/58 57/57/57
f 58/58/58 59/59/59 57/57/57
f 58/58/58 60/60/60 59/59/59
f 61/61/61 63/63/63 62/62/62
f 61/61/61 64/64/64 63/63/63
f 64/64/64 65/65/65 63/63/63
f 64/64/64 66/66/66 65/65/65
f 66/66/66 67/67/67 65/65/65
f 66/66/66 68/68/68 67/67/67
f 69/69/69 71/71/71 70/70/70
f 69/69/69 72/72/72 71/71/71
f 70/70/70 71/71/71 73/73/73
f 70/70/70 73/73/73 74/74/74
f 74/74/74 73/73/73 75/75/75
f 74/74/74 75/75/75 76/76/76
f 76/76/76 75/75/75 77/77/77
f 76/76/76 77/77/77 78/78/78
f 79/79/79 81/81/81 80/80/80
f 79/79/79 82/82/82 81/81/81
f 83/83/83 85/85/85 84/84/84
f 83/83/83 86/86/86 85/85/85
f 84/84/84 85/85/85 87/87/87
f 84/84/84 87/87/87 88/88/88
f 88/88/88 87/87/87 89/89/89
f 88/88/88 89/89/89 90/90/90
f 91/91/91 93/93/93 92/92/92
f 91/91/91 94/94/94 93/93/93
f 95/95/95 94/94/94 91/91/91
f 95/95/95 96/96/96 94/94/94
f 97/97/97 99/99/99 98/98/98
f 97/97/97 100/100/100 99/99/99
f 101/101/101 103/103/103 102/102/102
f 101/101/101 104/104/104 103/103/103
f 105/105/105 107/107/107 106/106/106
f 105/105/105 108/108/108 107/107/107
f 109/109/109 111/111/111 110/110/110
f 109/109/109 112/112/112 111/111/111
f 113/113/113 115/115/115 114/114/114
f 113/113/113 116/116/116 115/115/115
f 117/117/117 119/119/119 118/118/118
f 117/117/117 120/120/120 119/119/119
f 121/121/121 123/123/123 122/122/122
f 121/121/121 124/124/124 123/123/123
f 122/122/122 123/123/123 125/125/125
f 122/122/122 125/125/125 126/126/126
f 126/126/126 125/125/125 127/127/127
f 126/126/126 127/127/127 128/128/128
f 129/129/129 131/131/131 130/130/130
f 129/129/129 132/132/132 131/131/131
f 130/130/130 131/131/131 133/133/133
f 130/130/130 133/133/133 134/134/134
f 134/134/134 133/133/133 135/135/135
f 134/134/134 135/135/135 136/136/136
