#gun_575_201.obj

v -0.2135395 0.1335306 -0.362307
v -0.2135395 0.5585213 -0.362307
v -0.2135399 0.5585213 0.6943768
v -0.2135399 0.1335306 0.6943768
v -0.2135395 0.5585213 -0.362307
v 0.2114565 0.5585213 -0.3623087
v 0.2114561 0.5585213 0.694375
v -0.2135399 0.5585213 0.6943768
v 0.2114565 0.5585213 -0.3623087
v 0.2114565 0.1335306 -0.3623087
v 0.2114561 0.1335306 0.694375
v 0.2114561 0.5585213 0.694375
v 0.2114565 0.1335306 -0.3623087
v -0.2135395 0.1335306 -0.362307
v -0.2135399 0.1335306 0.6943768
v 0.2114561 0.1335306 0.694375
v -0.2135399 0.1335306 0.6943768
v -0.2135399 0.5585213 0.6943768
v 0.2114561 0.5585213 0.694375
v 0.2114561 0.1335306 0.694375
v 0.2114565 0.1335306 -0.3623087
v 0.2114565 0.5585213 -0.3623087
v -0.2135395 0.5585213 -0.362307
v -0.2135395 0.1335306 -0.362307
v -0.08564732 0.4783301 -0.08835115
v -0.08564822 0.4783301 0.08086333
v -0.08564822 -0.5585227 0.08086333
v -0.08564732 -0.5585227 -0.08835115
v -0.08564822 0.4783301 0.08086333
v 0.08356477 0.4783301 0.08086304
v 0.08356477 -0.5585227 0.08086304
v -0.08564822 -0.5585227 0.08086333
v 0.08356477 0.4783301 0.08086304
v 0.08356567 0.4783301 -0.08835144
v 0.08356567 -0.5585227 -0.08835144
v 0.08356477 -0.5585227 0.08086304
v 0.08356567 0.4783301 -0.08835144
v -0.08564732 0.4783301 -0.08835115
v -0.08564732 -0.5585227 -0.08835115
v 0.08356567 -0.5585227 -0.08835144
v -0.8423952 -0.1278179 -0.237469
v -0.8423952 0.4206386 -0.237469
v -0.8423956 0.4206386 0.11247
v -0.8423956 -0.1278179 0.11247
v -0.8423952 0.4206386 -0.237469
v -0.1327742 0.4206386 -0.2374648
v -0.1327745 0.4206386 0.1124742
v -0.8423956 0.4206386 0.11247
v -0.1327742 0.4206386 -0.2374648
v -0.1327742 -0.1278179 -0.2374648
v -0.1327745 -0.1278179 0.1124742
v -0.1327745 0.4206386 0.1124742
v -0.1327742 -0.1278179 -0.2374648
v -0.8423952 -0.1278179 -0.237469
v -0.8423956 -0.1278179 0.11247
v -0.1327745 -0.1278179 0.1124742
v -0.8423956 -0.1278179 0.11247
v -0.8423956 0.4206386 0.11247
v -0.1327745 0.4206386 0.1124742
v -0.1327745 -0.1278179 0.1124742
v -0.1327742 -0.1278179 -0.2374648
v -0.1327742 0.4206386 -0.2374648
v -0.8423952 0.4206386 -0.237469
v -0.8423952 -0.1278179 -0.237469
v -0.05580428 0.3460259 -1.3324
v -0.1002754 0.3460259 -0.9592609
v -0.001040819 0.2467904 -0.9592621
v -0.001043355 0.2912631 -1.332398
v -0.001040819 0.4452605 -0.9592621
v -0.1002754 0.3460259 -0.9592609
v -0.05580428 0.3460259 -1.3324
v -0.05580428 0.3460259 -1.3324
v -0.001043355 0.4007885 -1.332398
v 0.05372235 0.3460259 -1.332401
v 0.09819379 0.3460259 -0.9592631
v -0.001040819 0.4452605 -0.9592621
v -0.001043355 0.4007885 -1.332398
v -0.001043355 0.2912631 -1.332398
v -0.001040819 0.2467904 -0.9592621
v 0.09819379 0.3460259 -0.9592631
v -0.001043355 0.2912631 -1.332398
v 0.05372235 0.3460259 -1.332401
v -0.001041556 0.2745569 -0.2938618
v -0.07251173 0.3460259 -0.2938589
v -0.001041556 0.4174941 -0.2938618
v 0.07043011 0.3460259 -0.2938634
v 0.05372235 0.3460259 -1.332401
v -0.001043355 0.4007885 -1.332398
v -0.05580428 0.3460259 -1.3324
v -0.001043355 0.2912631 -1.332398
v -0.001040819 0.4452605 -0.9592621
v 0.09819379 0.3460259 -0.9592631
v 0.07043012 0.3460255 -0.8312853
v -0.00104154 0.4174941 -0.8312836
v -0.001040819 0.2467904 -0.9592621
v -0.00104154 0.2745562 -0.8312836
v 0.07043012 0.3460255 -0.8312853
v 0.09819379 0.3460259 -0.9592631
v -0.1002754 0.3460259 -0.9592609
v -0.07251172 0.3460255 -0.8312807
v -0.00104154 0.2745562 -0.8312836
v -0.001040819 0.2467904 -0.9592621
v -0.001040819 0.4452605 -0.9592621
v -0.00104154 0.4174941 -0.8312836
v -0.07251172 0.3460255 -0.8312807
v -0.1002754 0.3460259 -0.9592609
v -0.00104154 0.4174941 -0.8312836
v -0.001041556 0.4174941 -0.2938618
v -0.07251173 0.3460259 -0.2938589
v -0.07251172 0.3460255 -0.8312807
v 0.07043012 0.3460255 -0.8312853
v 0.07043011 0.3460259 -0.2938634
v -0.001041556 0.4174941 -0.2938618
v -0.00104154 0.4174941 -0.8312836
v -0.00104154 0.2745562 -0.8312836
v -0.001041556 0.2745569 -0.2938618
v 0.07043011 0.3460259 -0.2938634
v 0.07043012 0.3460255 -0.8312853
v -0.07251172 0.3460255 -0.8312807
v -0.07251173 0.3460259 -0.2938589
v -0.001041556 0.2745569 -0.2938618
v -0.00104154 0.2745562 -0.8312836
v -0.2271731 -0.3335609 -0.2298777
v -0.2271736 -0.3335609 0.2223876
v -0.2271736 -0.4520938 0.2223876
v -0.2271731 -0.4520938 -0.2298777
v -0.2271736 -0.3335609 0.2223876
v 0.225092 -0.3335609 0.2223908
v 0.225092 -0.4520938 0.2223908
v -0.2271736 -0.4520938 0.2223876
v 0.225092 -0.3335609 0.2223908
v 0.225091 -0.3335609 -0.2298757
v 0.225091 -0.4520938 -0.2298757
v 0.225092 -0.4520938 0.2223908
v 0.225091 -0.3335609 -0.2298757
v -0.2271731 -0.3335609 -0.2298777
v -0.2271731 -0.4520938 -0.2298777
v 0.225091 -0.4520938 -0.2298757
v 0.225091 -0.3335609 -0.2298757
v 0.225092 -0.3335609 0.2223908
v -0.2271736 -0.3335609 0.2223876
v -0.2271731 -0.3335609 -0.2298777

vn -0.7789218 0 0.627121
vn -0.7789218 0 0.627121
vn -0.7789218 0 0.627121
vn -0.7789218 0 0.627121
vn 0 1 0
vn 0 1 0
vn 0 1 0
vn 0 1 0
vn 0.7789218 0 -0.627121
vn 0.7789218 0 -0.627121
vn 0.7789218 0 -0.627121
vn 0.7789218 0 -0.627121
vn 0 -1 0
vn 0 -1 0
vn 0 -1 0
vn 0 -1 0
vn 0.627121 0 0.7789218
vn 0.627121 0 0.7789218
vn 0.627121 0 0.7789218
vn 0.627121 0 0.7789218
vn -0.627121 0 -0.7789218
vn -0.627121 0 -0.7789218
vn -0.627121 0 -0.7789218
vn -0.627121 0 -0.7789218
vn -0.7789218 0 0.627121
vn -0.7789218 0 0.627121
vn -0.7789218 0 0.627121
vn -0.7789218 0 0.627121
vn 0.627121 0 0.7789218
vn 0.627121 0 0.7789218
vn 0.627121 0 0.7789218
vn 0.627121 0 0.7789218
vn 0.7789218 0 -0.627121
vn 0.7789218 0 -0.627121
vn 0.7789218 0 -0.627121
vn 0.7789218 0 -0.627121
vn -0.627121 0 -0.7789218
vn -0.627121 0 -0.7789218
vn -0.627121 0 -0.7789218
vn -0.627121 0 -0.7789218
vn -0.7789218 0 0.627121
vn -0.7789218 0 0.627121
vn -0.7789218 0 0.627121
vn -0.7789218 0 0.627121
vn 0 1 0
vn 0 1 0
vn 0 1 0
vn 0 1 0
vn 0.7789218 0 -0.627121
vn 0.7789218 0 -0.627121
vn 0.7789218 0 -0.627121
vn 0.7789218 0 -0.627121
vn 0 -1 0
vn 0 -1 0
vn 0 -1 0
vn 0 -1 0
vn 0.627121 0 0.7789218
vn 0.627121 0 0.7789218
vn 0.627121 0 0.7789218
vn 0.627121 0 0.7789218
vn -0.627121 0 -0.7789218
vn -0.627121 0 -0.7789218
vn -0.627121 0 -0.7789218
vn -0.627121 0 -0.7789218
vn -0.6015025 -0.7046056 0.3764646
vn -0.6015025 -0.7046056 0.3764646
vn -0.6015025 -0.7046056 0.3764646
vn -0.6015025 -0.7046056 0.3764646
vn -0.6015 0.7046083 0.3764635
vn -0.6015 0.7046083 0.3764635
vn -0.6015 0.7046083 0.3764635
vn -0.6015 0.7046083 0.3764635
vn -0.6015 0.7046083 0.3764635
vn 0.4961717 0.7046083 -0.5072876
vn 0.4961717 0.7046083 -0.5072876
vn 0.4961717 0.7046083 -0.5072876
vn 0.4961717 0.7046083 -0.5072876
vn 0.4961734 -0.7046056 -0.5072898
vn 0.4961734 -0.7046056 -0.5072898
vn 0.4961734 -0.7046056 -0.5072898
vn 0.4961734 -0.7046056 -0.5072898
vn 0.4961734 -0.7046056 -0.5072898
vn 0.627121 0 0.7789218
vn 0.627121 0 0.7789218
vn 0.627121 0 0.7789218
vn 0.627121 0 0.7789218
vn -0.627121 0 -0.7789218
vn -0.627121 0 -0.7789218
vn -0.627121 0 -0.7789218
vn -0.627121 0 -0.7789218
vn 0.6395046 0.6989327 -0.3201983
vn 0.6395046 0.6989327 -0.3201983
vn 0.5968672 0.7050655 -0.3829257
vn 0.5968672 0.7050655 -0.3829257
vn 0.6395048 -0.6989298 -0.3202042
vn 0.5968689 -0.7050619 -0.3829299
vn 0.5968689 -0.7050619 -0.3829299
vn 0.6395048 -0.6989298 -0.3202042
vn -0.4493199 -0.6989251 0.5564309
vn -0.5015043 -0.7050547 0.5013894
vn -0.5015043 -0.7050547 0.5013894
vn -0.4493199 -0.6989251 0.5564309
vn -0.4493141 0.698928 0.5564319
vn -0.5014999 0.7050583 0.5013887
vn -0.5014999 0.7050583 0.5013887
vn -0.4493141 0.698928 0.5564319
vn -0.5014999 0.7050583 0.5013887
vn -0.5507817 0.7071059 0.4434421
vn -0.5507817 0.7071059 0.4434421
vn -0.5014999 0.7050583 0.5013887
vn 0.5968672 0.7050655 -0.3829257
vn 0.5507739 0.7071159 -0.4434358
vn 0.5507739 0.7071159 -0.4434358
vn 0.5968672 0.7050655 -0.3829257
vn 0.5968689 -0.7050619 -0.3829299
vn 0.5507771 -0.7071117 -0.4434384
vn 0.5507771 -0.7071117 -0.4434384
vn 0.5968689 -0.7050619 -0.3829299
vn -0.5015043 -0.7050547 0.5013894
vn -0.5507848 -0.7071017 0.4434447
vn -0.5507848 -0.7071017 0.4434447
vn -0.5015043 -0.7050547 0.5013894
vn -0.7789218 0 0.627121
vn -0.7789218 0 0.627121
vn -0.7789218 0 0.627121
vn -0.7789218 0 0.627121
vn 0.627121 0 0.7789218
vn 0.627121 0 0.7789218
vn 0.627121 0 0.7789218
vn 0.627121 0 0.7789218
vn 0.7789218 0 -0.627121
vn 0.7789218 0 -0.627121
vn 0.7789218 0 -0.627121
vn 0.7789218 0 -0.627121
vn -0.627121 0 -0.7789218
vn -0.627121 0 -0.7789218
vn -0.627121 0 -0.7789218
vn -0.627121 0 -0.7789218
vn 0 1 0
vn 0 1 0
vn 0 1 0
vn 0 1 0

vt 0.6079102 0.1318359
vt 0.6079102 0.06799316
vt 0.4245605 0.06799316
vt 0.4245605 0.1318359
vt 0.4074707 0.002120972
vt 0.4074707 0.05975342
vt 0.6157227 0.05975342
vt 0.6157227 0.002120972
vt 0.6079102 0.1318359
vt 0.6079102 0.06799316
vt 0.4245605 0.06799316
vt 0.4245605 0.1318359
vt 0.625 0.02165222
vt 0.625 0.06210327
vt 0.6655273 0.06210327
vt 0.6655273 0.02165222
vt 0.3376465 0.04550171
vt 0.3376465 0.1258545
vt 0.4179688 0.1258545
vt 0.4179688 0.04550171
vt 0.6401367 0.07995605
vt 0.6401367 0.1416016
vt 0.7016602 0.1416016
vt 0.7016602 0.07995605
vt 0.8911133 0.05743408
vt 0.8911133 0.06051636
vt 0.894043 0.06051636
vt 0.894043 0.05743408
vt 0.9511719 0.01100922
vt 0.9511719 0.0166626
vt 0.9570313 0.0166626
vt 0.9570313 0.01100922
vt 0.8911133 0.06359863
vt 0.8911133 0.06665039
vt 0.894043 0.06665039
vt 0.894043 0.06359863
vt 0.9511719 0.02232361
vt 0.9511719 0.02796936
vt 0.9570313 0.02796936
vt 0.9570313 0.02232361
vt 0.6308594 0.949707
vt 0.6308594 0.9633789
vt 0.6445313 0.9633789
vt 0.6445313 0.949707
vt 0.7851563 0.96875
vt 0.8208008 0.96875
vt 0.8208008 0.9375
vt 0.7851563 0.9375
vt 0.6972656 0.8823242
vt 0.6972656 0.8911133
vt 0.706543 0.8911133
vt 0.706543 0.8823242
vt 0.6972656 0.8911133
vt 0.6972656 0.8999023
vt 0.706543 0.8999023
vt 0.706543 0.8911133
vt 0.6962891 0.8999023
vt 0.6962891 0.9140625
vt 0.7099609 0.9140625
vt 0.7099609 0.8999023
vt 0.6865234 0.8974609
vt 0.6865234 0.9111328
vt 0.7001953 0.9111328
vt 0.7001953 0.8974609
vt 0.9033203 0.05215454
vt 0.902832 0.05215454
vt 0.902832 0.0526123
vt 0.9033203 0.0526123
vt 0.980957 0.06036377
vt 0.980957 0.06079102
vt 0.980957 0.06079102
vt 0.980957 0.06079102
vt 0.980957 0.06036377
vt 0.956543 0.06280518
vt 0.9560547 0.06280518
vt 0.9560547 0.06323242
vt 0.956543 0.06323242
vt 0.9033203 0.05084229
vt 0.902832 0.05084229
vt 0.902832 0.05130005
vt 0.9033203 0.05084229
vt 0.9033203 0.05130005
vt 0.625 0
vt 0.625 0.25
vt 0.875 0.25
vt 0.875 0
vt 0.8745117 0.1328125
vt 0.8745117 0.1695557
vt 0.9111328 0.1695557
vt 0.9111328 0.1328125
vt 0.9560547 0.06323242
vt 0.9560547 0.06280518
vt 0.9560547 0.06280518
vt 0.9560547 0.06323242
vt 0.902832 0.05084229
vt 0.902832 0.05084229
vt 0.902832 0.05130005
vt 0.902832 0.05130005
vt 0.902832 0.05215454
vt 0.902832 0.05215454
vt 0.902832 0.0526123
vt 0.902832 0.0526123
vt 0.980957 0.06036377
vt 0.980957 0.06036377
vt 0.980957 0.06079102
vt 0.980957 0.06079102
vt 0.980957 0.06036377
vt 0.9804688 0.06036377
vt 0.9804688 0.06079102
vt 0.980957 0.06079102
vt 0.9560547 0.06280518
vt 0.9560547 0.06280518
vt 0.9560547 0.06323242
vt 0.9560547 0.06323242
vt 0.902832 0.05084229
vt 0.902832 0.05084229
vt 0.902832 0.05130005
vt 0.902832 0.05130005
vt 0.902832 0.05215454
vt 0.902832 0.05215454
vt 0.902832 0.0526123
vt 0.902832 0.0526123
vt 0.8911133 0.05743408
vt 0.8911133 0.06051636
vt 0.894043 0.06051636
vt 0.894043 0.05743408
vt 0.9511719 0.01100922
vt 0.9511719 0.0166626
vt 0.9570313 0.0166626
vt 0.9570313 0.01100922
vt 0.8911133 0.06359863
vt 0.8911133 0.06665039
vt 0.894043 0.06665039
vt 0.894043 0.06359863
vt 0.9511719 0.02232361
vt 0.9511719 0.02796936
vt 0.9570313 0.02796936
vt 0.9570313 0.02232361
vt 0.9399414 0.05755615
vt 0.9399414 0.07019043
vt 0.9526367 0.07019043
vt 0.9526367 0.05755615

g gun_575_201
usemtl gun_575_201
usemap gun_575_201
f 1/1/1 3/3/3 2/2/2
f 1/1/1 4/4/4 3/3/3
f 5/5/5 7/7/7 6/6/6
f 5/5/5 8/8/8 7/7/7
f 9/9/9 11/11/11 10/10/10
f 9/9/9 12/12/12 11/11/11
f 13/13/13 15/15/15 14/14/14
f 13/13/13 16/16/16 15/15/15
f 17/17/17 19/19/19 18/18/18
f 17/17/17 20/20/20 19/19/19
f 21/21/21 23/23/23 22/22/22
f 21/21/21 24/24/24 23/23/23
f 25/25/25 27/27/27 26/26/26
f 25/25/25 28/28/28 27/27/27
f 29/29/29 31/31/31 30/30/30
f 29/29/29 32/32/32 31/31/31
f 33/33/33 35/35/35 34/34/34
f 33/33/33 36/36/36 35/35/35
f 37/37/37 39/39/39 38/38/38
f 37/37/37 40/40/40 39/39/39
f 41/41/41 43/43/43 42/42/42
f 41/41/41 44/44/44 43/43/43
f 45/45/45 47/47/47 46/46/46
f 45/45/45 48/48/48 47/47/47
f 49/49/49 51/51/51 50/50/50
f 49/49/49 52/52/52 51/51/51
f 53/53/53 55/55/55 54/54/54
f 53/53/53 56/56/56 55/55/55
f 57/57/57 59/59/59 58/58/58
f 57/57/57 60/60/60 59/59/59
f 61/61/61 63/63/63 62/62/62
f 61/61/61 64/64/64 63/63/63
f 65/65/65 67/67/67 66/66/66
f 65/65/65 68/68/68 67/67/67
f 69/69/69 71/71/71 70/70/70
f 69/69/69 73/73/73 72/72/72
f 74/74/74 76/76/76 75/75/75
f 74/74/74 77/77/77 76/76/76
f 78/78/78 80/80/80 79/79/79
f 81/81/81 82/82/82 80/80/80
f 83/83/83 85/85/85 84/84/84
f 83/83/83 86/86/86 85/85/85
f 87/87/87 89/89/89 88/88/88
f 87/87/87 90/90/90 89/89/89
f 91/91/91 93/93/93 92/92/92
f 91/91/91 94/94/94 93/93/93
f 95/95/95 97/97/97 96/96/96
f 95/95/95 98/98/98 97/97/97
f 99/99/99 101/101/101 100/100/100
f 99/99/99 102/102/102 101/101/101
f 103/103/103 105/105/105 104/104/104
f 103/103/103 106/106/106 105/105/105
f 107/107/107 109/109/109 108/108/108
f 107/107/107 110/110/110 109/109/109
f 111/111/111 113/113/113 112/112/112
f 111/111/111 114/114/114 113/113/113
f 115/115/115 117/117/117 116/116/116
f 115/115/115 118/118/118 117/117/117
f 119/119/119 121/121/121 120/120/120
f 119/119/119 122/122/122 121/121/121
f 123/123/123 125/125/125 124/124/124
f 123/123/123 126/126/126 125/125/125
f 127/127/127 129/129/129 128/128/128
f 127/127/127 130/130/130 129/129/129
f 131/131/131 133/133/133 132/132/132
f 131/131/131 134/134/134 133/133/133
f 135/135/135 137/137/137 136/136/136
f 135/135/135 138/138/138 137/137/137
f 139/139/139 141/141/141 140/140/140
f 139/139/139 142/142/142 141/141/141
