#Pillar_(3)_759_93.obj

v -0.08712482 -0.6664128 -0.0009613037
v -0.08549976 -0.2634954 -0.001373291
v -0.001629829 -0.2634954 0.08454895
v -0.001629829 -0.6664128 0.08454895
v -0.08712482 0.5639024 0.7170868
v -0.001629829 0.6664128 0.7169037
v 0.0838728 0.5639019 0.7170868
v -0.001629829 0.4613914 0.7172852
v 2.861023E-06 -0.2634954 -0.08688354
v -0.001629829 -0.6664128 -0.0864563
v 0.0838728 -0.6664128 -0.0009613037
v 0.08549786 -0.2634954 -0.001373291
v 0.0838728 -0.6664128 -0.0009613037
v -0.001629829 -0.6664128 0.08454895
v -0.001629829 -0.2634954 0.08454895
v 0.08549786 -0.2634954 -0.001373291
v 2.861023E-06 -0.2634954 -0.08688354
v -0.08549976 -0.2634954 -0.001373291
v -0.08712482 -0.6664128 -0.0009613037
v -0.001629829 -0.6664128 -0.0864563
v -0.08549976 -0.2634954 -0.001373291
v -0.08712482 0.5639024 0.7170868
v -0.001629829 0.4613914 0.7172852
v -0.001629829 -0.2634954 0.08454895
v -0.001629829 -0.2634954 0.08454895
v -0.001629829 0.4613914 0.7172852
v 0.0838728 0.5639019 0.7170868
v 0.08549786 -0.2634954 -0.001373291
v 2.861023E-06 -0.1639624 -0.001281738
v -0.001629829 0.6664128 0.7169037
v -0.08712482 0.5639024 0.7170868
v -0.08549976 -0.2634954 -0.001373291
v 0.08549786 -0.2634954 -0.001373291
v 0.0838728 0.5639019 0.7170868
v -0.001629829 0.6664128 0.7169037
v 2.861023E-06 -0.1639624 -0.001281738
v 0.08713055 0.5639024 -0.7170868
v 0.001627922 0.6664128 -0.7169037
v -0.08386707 0.5639019 -0.7170868
v 0.001627922 0.4613914 -0.7172852
v 0.08549786 -0.2634954 -0.001373291
v 0.08713055 0.5639024 -0.7170868
v 0.001627922 0.4613914 -0.7172852
v 2.861023E-06 -0.2634954 -0.08688354
v 2.861023E-06 -0.2634954 -0.08688354
v 0.001627922 0.4613914 -0.7172852
v -0.08386707 0.5639019 -0.7170868
v -0.08549976 -0.2634954 -0.001373291
v -0.08549976 -0.2634954 -0.001373291
v -0.08386707 0.5639019 -0.7170868
v 0.001627922 0.6664128 -0.7169037
v 2.861023E-06 -0.1639624 -0.001281738
v 2.861023E-06 -0.1639624 -0.001281738
v 0.001627922 0.6664128 -0.7169037
v 0.08713055 0.5639024 -0.7170868
v 0.08549786 -0.2634954 -0.001373291

vn -0.7113599 0.00180723 0.7028256
vn -0.7113599 0.00180723 0.7028256
vn -0.7113599 0.00180723 0.7028256
vn -0.7113599 0.00180723 0.7028256
vn 0 0.00182981 0.9999983
vn 0 0.00182981 0.9999983
vn 0 0.00182981 0.9999983
vn 0 0.00182981 0.9999983
vn 0.7071009 -0.003605424 -0.7071035
vn 0.7071009 -0.003605424 -0.7071035
vn 0.7071009 -0.003605424 -0.7071035
vn 0.7071009 -0.003605424 -0.7071035
vn 0.7046373 -0.001050735 0.7095669
vn 0.7046373 -0.001050735 0.7095669
vn 0.7046373 -0.001050735 0.7095669
vn 0.7046373 -0.001050735 0.7095669
vn -0.707108 0.002109229 -0.7071024
vn -0.707108 0.002109229 -0.7071024
vn -0.707108 0.002109229 -0.7071024
vn -0.707108 0.002109229 -0.7071024
vn -0.6155156 -0.5178186 0.5941418
vn -0.6155156 -0.5178186 0.5941418
vn -0.6155156 -0.5178186 0.5941418
vn -0.6155156 -0.5178186 0.5941418
vn 0.6081491 -0.5208357 0.59907
vn 0.6081491 -0.5208357 0.59907
vn 0.6081491 -0.5208357 0.59907
vn 0.6081491 -0.5208357 0.59907
vn -0.6116561 0.517431 -0.5984497
vn -0.6116561 0.517431 -0.5984497
vn -0.6116561 0.517431 -0.5984497
vn -0.6116561 0.517431 -0.5984497
vn 0.6126689 0.5182865 -0.5966707
vn 0.6126689 0.5182865 -0.5966707
vn 0.6126689 0.5182865 -0.5966707
vn 0.6126689 0.5182865 -0.5966707
vn 0 0.001829845 -0.9999983
vn 0 0.001829845 -0.9999983
vn 0 0.001829845 -0.9999983
vn 0 0.001829845 -0.9999983
vn 0.6108389 -0.5194548 -0.5975304
vn 0.6108389 -0.5194548 -0.5975304
vn 0.6108389 -0.5194548 -0.5975304
vn 0.6108389 -0.5194548 -0.5975304
vn -0.6106986 -0.5180561 -0.5988866
vn -0.6106986 -0.5180561 -0.5988866
vn -0.6106986 -0.5180561 -0.5988866
vn -0.6106986 -0.5180561 -0.5988866
vn -0.6122942 0.5173767 0.5978438
vn -0.6122942 0.5173767 0.5978438
vn -0.6122942 0.5173767 0.5978438
vn -0.6122942 0.5173767 0.5978438
vn 0.6112648 0.5165242 0.5996316
vn 0.6112648 0.5165242 0.5996316
vn 0.6112648 0.5165242 0.5996316
vn 0.6112648 0.5165242 0.5996316

vt 0.1650391 0.1933594
vt 0.1650391 0.1993408
vt 0.1647949 0.199585
vt 0.1647949 0.1937256
vt 0.1650391 0.2145996
vt 0.1647949 0.2160645
vt 0.1645508 0.2145996
vt 0.1647949 0.2130127
vt 0.1647949 0.1988525
vt 0.1647949 0.1929932
vt 0.1645508 0.1933594
vt 0.1645508 0.1992188
vt 0.1645508 0.1933594
vt 0.1647949 0.1937256
vt 0.1647949 0.199585
vt 0.1645508 0.1992188
vt 0.1647949 0.1988525
vt 0.1650391 0.1993408
vt 0.1650391 0.1933594
vt 0.1647949 0.1929932
vt 0.1650391 0.1993408
vt 0.1650391 0.2145996
vt 0.1647949 0.2130127
vt 0.1647949 0.199585
vt 0.1647949 0.199585
vt 0.1647949 0.2130127
vt 0.1645508 0.2145996
vt 0.1645508 0.1992188
vt 0.1647949 0.2008057
vt 0.1647949 0.2160645
vt 0.1650391 0.2145996
vt 0.1650391 0.1993408
vt 0.1645508 0.1992188
vt 0.1645508 0.2145996
vt 0.1647949 0.2160645
vt 0.1647949 0.2008057
vt 0.1646729 0.2084961
vt 0.1647949 0.2099609
vt 0.1650391 0.2084961
vt 0.1647949 0.2070313
vt 0.1645508 0.1992188
vt 0.1646729 0.2084961
vt 0.1647949 0.2070313
vt 0.1647949 0.1988525
vt 0.1647949 0.1988525
vt 0.1647949 0.2070313
vt 0.1650391 0.2084961
vt 0.1650391 0.1993408
vt 0.1650391 0.1993408
vt 0.1650391 0.2084961
vt 0.1647949 0.2099609
vt 0.1647949 0.2008057
vt 0.1647949 0.2008057
vt 0.1647949 0.2099609
vt 0.1646729 0.2084961
vt 0.1645508 0.1992188

g Pillar_(3)_759_93
usemtl Pillar_(3)_759_93
usemap Pillar_(3)_759_93
f 1/1/1 3/3/3 2/2/2
f 1/1/1 4/4/4 3/3/3
f 5/5/5 7/7/7 6/6/6
f 5/5/5 8/8/8 7/7/7
f 9/9/9 11/11/11 10/10/10
f 9/9/9 12/12/12 11/11/11
f 13/13/13 15/15/15 14/14/14
f 13/13/13 16/16/16 15/15/15
f 17/17/17 19/19/19 18/18/18
f 17/17/17 20/20/20 19/19/19
f 21/21/21 23/23/23 22/22/22
f 21/21/21 24/24/24 23/23/23
f 25/25/25 27/27/27 26/26/26
f 25/25/25 28/28/28 27/27/27
f 29/29/29 31/31/31 30/30/30
f 29/29/29 32/32/32 31/31/31
f 33/33/33 35/35/35 34/34/34
f 33/33/33 36/36/36 35/35/35
f 37/37/37 39/39/39 38/38/38
f 37/37/37 40/40/40 39/39/39
f 41/41/41 43/43/43 42/42/42
f 41/41/41 44/44/44 43/43/43
f 45/45/45 47/47/47 46/46/46
f 45/45/45 48/48/48 47/47/47
f 49/49/49 51/51/51 50/50/50
f 49/49/49 52/52/52 51/51/51
f 53/53/53 55/55/55 54/54/54
f 53/53/53 56/56/56 55/55/55
