#road_Asphalt_Town_Transition_523_138.obj

v -8.64407 -0.1947956 -3.165323
v -9.999981 -0.1947956 -10
v -7.143055 -0.1947956 -5.197194
v -4.999989 -0.1947956 -6.403505
v -7.072639 -0.1947956 -10.38006
v -6.849335 -0.1947956 -4.69777
v -6.849335 0 -4.69777
v -8.099331 0 -3.463788
v -8.099331 -0.1947956 -3.463788
v -6.849335 0 -4.007047
v -8.102371 0 -3.105671
v -8.099331 0 -3.463788
v -6.849335 0 -4.69777
v -4.999989 0 -5.248993
v -4.999989 0 -5.878708
v -2.499996 0 -5.690723
v -2.499996 0 -6.381445
v 0 0 -5
v 0 0 -6.25943
v -8.124985 0 -4.768372E-07
v 0 0 -4.768372E-07
v -8.099331 -0.1947956 -3.463788
v -8.64407 -0.1947956 -3.165323
v -7.143055 -0.1947956 -5.197194
v -6.849335 -0.1947956 -4.69777
v -4.999989 -0.1947956 -5.878708
v -4.999989 -0.1947956 -6.403505
v -2.499996 -0.1947956 -6.706423
v -2.499996 -0.1947956 -6.381445
v 0 -0.1947956 -6.25943
v 0 -0.1947956 -6.555624
v -8.668526 -0.1947956 -2.869128
v -8.099331 -0.1947956 -3.463788
v -9.999981 -0.1947956 -2.869129
v -8.64407 -0.1947956 -3.165323
v -9.999981 -0.1947956 -3.165323
v -8.64407 -0.1947956 -3.165323
v -4.999989 -0.1947956 -5.878708
v -4.999989 0 -5.878708
v -6.849335 0 -4.69777
v -6.849335 -0.1947956 -4.69777
v -4.999989 -0.1947956 -6.403505
v -7.072639 -0.1947956 -10.38006
v -2.499992 -0.1947956 -10
v -4.999989 -0.1947956 -14.25002
v -2.499992 -0.1947956 -13.80759
v 0 -0.1947956 -10
v 0 -0.1947956 -6.555624
v -2.499996 -0.1947956 -6.706423
v 0 -0.1947956 -13.44438
v -4.999989 -0.1947956 -6.403505
v -2.499992 -0.1947956 -10
v -2.499996 -0.1947956 -6.706423
v -2.499996 -0.1947956 -6.381445
v -2.499996 0 -6.381445
v -4.999989 0 -5.878708
v -4.999989 -0.1947956 -5.878708
v 0 -0.1947956 -6.25943
v 0 0 -6.25943
v -2.499996 0 -6.381445
v -2.499996 -0.1947956 -6.381445
v 0 -0.1947956 -13.44438
v -2.499992 -0.1947956 -10
v -2.499992 -0.1947956 -13.80759
v -2.499992 -0.1947956 -14.13256
v -2.499992 0 -14.13256
v 0 0 -13.74057
v 0 -0.1947956 -13.74057
v -4.999989 -0.1947956 -14.86871
v -4.999989 0 -14.86871
v -2.499992 0 -14.82329
v 0 0 -15
v 0 0 -13.74057
v -2.499992 0 -14.13256
v -4.999989 0 -15.49843
v -4.999989 0 -14.86871
v -7.499985 0 -16.71292
v -7.499985 0 -16.36896
v 0 0 -20
v -8.029438 0 -20
v -8.558891 0 -17.37971
v -7.499985 0 -16.36896
v 0 -0.1947956 -13.74057
v 0 -0.1947956 -13.44438
v -2.499992 -0.1947956 -13.80759
v -2.499992 -0.1947956 -14.13256
v -4.999989 -0.1947956 -14.86871
v -4.999989 -0.1947956 -14.25002
v -7.720963 -0.1947956 -15.83317
v -7.499985 -0.1947956 -16.29602
v -8.558891 -0.1947956 -16.83468
v -8.558891 -0.1947956 -16.92406
v -4.999989 -0.1947956 -14.25002
v -7.072639 -0.1947956 -10.38006
v -7.720963 -0.1947956 -15.83317
v -9.999981 -0.1947956 -10
v -8.558891 -0.1947956 -16.83468
v -7.499985 -0.1947956 -16.29602
v -7.499985 0 -16.36896
v -4.999989 0 -14.86871
v -4.999989 -0.1947956 -14.86871
v -8.558891 0 -17.37971
v -7.499985 0 -16.36896
v -8.558891 0 -17.01584
v -9.140522 0 -17.54778
v -9.594769 0 -20
v -9.999981 0 -20
v -9.999981 0 -17.54778
v -9.007153 0 -17.13087
v -8.029438 0 -20
v -8.558891 0 -17.01584
v -9.007153 0 -17.13087
v -9.007153 0 -17.13087
v -9.999981 0 -17.13087
v -8.558891 -0.1947956 -16.92406
v -8.558891 0 -17.01584
v -7.499985 0 -16.36896
v -8.558891 -0.1947956 -16.92406
v -7.499985 0 -16.36896
v -7.499985 -0.1947956 -16.29602
v -7.720963 -0.1947956 -15.83317
v -8.558891 -0.1947956 -16.92406
v -7.499985 -0.1947956 -16.29602
v -8.558891 -0.1947956 -16.83468
v -8.919643 -0.1947956 -17.13087
v -8.558891 -0.1947956 -16.83468
v -9.999981 -0.1947956 -17.13087
v -9.999981 -0.1947956 -16.83468
v -8.919643 -0.1947956 -17.13087
v -9.007153 0 -17.13087
v -8.558891 0 -17.01584
v -8.558891 -0.1947956 -16.92406
v -9.999981 -0.1947956 -10
v -9.999981 -0.1947956 -16.83468
v -8.558891 -0.1947956 -16.83468
v -9.999981 -0.1947956 -3.165323
v -8.64407 -0.1947956 -3.165323
v -8.099331 0 -3.463788
v -8.645409 0 -2.869129
v -8.668526 -0.1947956 -2.869128
v -8.668526 -0.1947956 -2.869128
v -8.099331 -0.1947956 -3.463788
v -8.102371 0 -3.105671
v -8.596504 0 -2.532766
v -8.645409 0 -2.869129
v -8.124985 0 -4.768372E-07
v -9.999981 0 -4.768372E-07
v -9.999981 0 -2.869129
v -9.999981 0 -2.532766
v -8.645409 0 -2.869129
v -8.099331 0 -3.463788
v -9.999981 -0.1947956 -17.13087
v -9.999981 0 -17.13087
v -9.007153 0 -17.13087
v -9.999981 -0.1947956 -17.13087
v -9.007153 0 -17.13087
v -8.919643 -0.1947956 -17.13087
v -8.645409 0 -2.869129
v -9.999981 0 -2.869129
v -9.999981 -0.1947956 -2.869129
v -8.645409 0 -2.869129
v -9.999981 -0.1947956 -2.869129
v -8.668526 -0.1947956 -2.869128

vn 0 1 0
vn 0 1 0
vn 0 1 0
vn 0 1 0
vn 0 1 0
vn -0.7025336 0 -0.7116506
vn -0.7025336 0 -0.7116506
vn -0.7159505 0.02163194 -0.6978157
vn -0.7159505 0.02163194 -0.6978157
vn 0 1 0
vn 0 1 0
vn 0 1 0
vn 0 1 0
vn 0 1 0
vn 0 1 0
vn 0 1 0
vn 0 1 0
vn 0 1 0
vn 0 1 0
vn 0 1 0
vn 0 1 0
vn 0 1 0
vn 0 1 0
vn 0 1 0
vn 0 1 0
vn 0 1 0
vn 0 1 0
vn 0 1 0
vn 0 1 0
vn 0 1 0
vn 0 1 0
vn 0 1 0
vn 0 1 0
vn 0 1 0
vn 0 1 0
vn 0 1 0
vn 0 1 0
vn -0.5381992 0 -0.8428177
vn -0.5381992 0 -0.8428177
vn -0.5381992 0 -0.8428177
vn -0.5381992 0 -0.8428177
vn 0 1 0
vn 0 1 0
vn 0 1 0
vn 0 1 0
vn 0 1 0
vn 0 1 0
vn 0 1 0
vn 0 1 0
vn 0 1 0
vn 0 1 0
vn 0 1 0
vn 0 1 0
vn -0.1971487 0 -0.9803736
vn -0.1971487 0 -0.9803736
vn -0.1971487 0 -0.9803736
vn -0.1971487 0 -0.9803736
vn 0.04874824 0 -0.9988111
vn 0.04874824 0 -0.9988111
vn 0.04874824 0 -0.9988111
vn 0.04874824 0 -0.9988111
vn 0 1 0
vn 0 1 0
vn 0 1 0
vn -0.2191555 0 0.97569
vn -0.2191555 0 0.97569
vn -0.1549059 0 0.9879293
vn -0.1549059 0 0.9879293
vn -0.2824675 0 0.9592769
vn -0.2824675 0 0.9592769
vn 0 1 0
vn 0 1 0
vn 0 1 0
vn 0 1 0
vn 0 1 0
vn 0 1 0
vn 0 1 0
vn 0 1 0
vn 0 1 0
vn 0 1 0
vn 0 1 0
vn 0 1 0
vn 0 1 0
vn 0 1 0
vn 0 1 0
vn 0 1 0
vn 0 1 0
vn 0 1 0
vn 0 1 0
vn 0 1 0
vn 0 1 0
vn 0 1 0
vn 0 1 0
vn 0 1 0
vn 0 1 0
vn 0 1 0
vn 0 1 0
vn -0.4988042 0.1594983 0.8519124
vn -0.4988042 0.1594983 0.8519124
vn -0.4988042 0.1594983 0.8519124
vn -0.4988042 0.1594983 0.8519124
vn 0 1 0
vn 0 1 0
vn 0 1 0
vn 0 1 0
vn 0 1 0
vn 0 1 0
vn 0 1 0
vn 0 1 0
vn 0 1 0
vn 0 1 0
vn 0 1 0
vn 0 1 0
vn 0 1 0
vn -0.4849215 0.3405823 0.8055152
vn -0.4849215 0.3405823 0.8055152
vn -0.4849215 0.3405823 0.8055152
vn -0.4849215 0.3405823 0.8055152
vn -0.4849215 0.3405823 0.8055152
vn -0.4849215 0.3405823 0.8055152
vn 0 1 0
vn 0 1 0
vn 0 1 0
vn 0 1 0
vn 0 1 0
vn 0 1 0
vn 0 1 0
vn 0 1 0
vn -0.3662768 0.1346379 0.9207138
vn -0.3662768 0.1346379 0.9207138
vn -0.3662768 0.1346379 0.9207138
vn -0.3662768 0.1346379 0.9207138
vn 0 1 0
vn 0 1 0
vn 0 1 0
vn 0 1 0
vn 0 1 0
vn -0.7159505 0.02163194 -0.6978157
vn -0.7287666 0.04324573 -0.6833951
vn -0.7287666 0.04324573 -0.6833951
vn -0.7287666 0.04324573 -0.6833951
vn -0.7159505 0.02163194 -0.6978157
vn 0 1 0
vn 0 1 0
vn 0 1 0
vn 0 1 0
vn 0 1 0
vn 0 1 0
vn 0 1 0
vn 0 1 0
vn 0 1 0
vn 0 0 1
vn 0 0 1
vn 0 0 1
vn 0 0 1
vn 0 0 1
vn 0 0 1
vn 0 0 -1
vn 0 0 -1
vn 0 0 -1
vn 0 0 -1
vn 0 0 -1
vn 0 0 -1

vt 0.3867188 0.5317383
vt 0.9804688 0.5102539
vt 0.3867188 0.3977051
vt 0.3867188 0.2980957
vt 0.9804688 0.3498535
vt 0.3425293 0.6381836
vt 0.3193359 0.6381836
vt 0.3193359 0.6381836
vt 0.3425293 0.6381836
vt 0.2817383 0.6381836
vt 0.2817383 0.6381836
vt 0.3193359 0.6381836
vt 0.3193359 0.6381836
vt 0.2817383 0.6381836
vt 0.3193359 0.6381836
vt 0.2424316 0.6381836
vt 0.3193359 0.6381836
vt 0.01014709 0.6381836
vt 0.3193359 0.6381836
vt 0.01014709 0.6381836
vt 0.01014709 0.6381836
vt 0.3425293 0.6381836
vt 0.3745117 0.6381836
vt 0.3745117 0.6381836
vt 0.3425293 0.6381836
vt 0.3425293 0.6381836
vt 0.3745117 0.6381836
vt 0.3745117 0.6381836
vt 0.3425293 0.6381836
vt 0.3425293 0.6381836
vt 0.3745117 0.6381836
vt 0.3425293 0.7265625
vt 0.3425293 0.6381836
vt 0.3425293 0.8901367
vt 0.3745117 0.6381836
vt 0.3745117 0.8901367
vt 0.3745117 0.6381836
vt 0.3425293 0.6381836
vt 0.3193359 0.6381836
vt 0.3193359 0.6381836
vt 0.3425293 0.6381836
vt 0.3867188 0.309082
vt 0.9804688 0.309082
vt 0.9804688 0.309082
vt 0.3867188 0.309082
vt 0.3867188 0.309082
vt 0.9804688 0.309082
vt 0.3867188 0.309082
vt 0.3867188 0.309082
vt 0.3867188 0.309082
vt 0.3867188 0.309082
vt 0.9804688 0.309082
vt 0.3867188 0.309082
vt 0.3425293 0.6381836
vt 0.3193359 0.6381836
vt 0.3193359 0.6381836
vt 0.3425293 0.6381836
vt 0.3425293 0.6381836
vt 0.3193359 0.6381836
vt 0.3193359 0.6381836
vt 0.3425293 0.6381836
vt 0.3867188 0.309082
vt 0.9804688 0.309082
vt 0.3867188 0.309082
vt 0.3425293 0.6381836
vt 0.3193359 0.6381836
vt 0.3193359 0.6381836
vt 0.3425293 0.6381836
vt 0.3425293 0.6381836
vt 0.3193359 0.6381836
vt 0.2313232 0.6381836
vt 0.01014709 0.6381836
vt 0.3193359 0.6381836
vt 0.3193359 0.6381836
vt 0.2817383 0.6381836
vt 0.3193359 0.6381836
vt 0.2817383 0.6381836
vt 0.3100586 0.6381836
vt 0.01014709 0.6381836
vt 0.01014709 0.6381836
vt 0.2817383 0.6381836
vt 0.3088379 0.6381836
vt 0.3425293 0.6381836
vt 0.3745117 0.6381836
vt 0.3745117 0.6381836
vt 0.3425293 0.6381836
vt 0.3425293 0.6381836
vt 0.3745117 0.6381836
vt 0.3745117 0.6381836
vt 0.3425293 0.6381836
vt 0.3745117 0.6381836
vt 0.3503418 0.6899414
vt 0.3867188 0.2980957
vt 0.9804688 0.3498535
vt 0.3867188 0.3977051
vt 0.9804688 0.5102539
vt 0.3867188 0.5317383
vt 0.3425293 0.6381836
vt 0.3100586 0.6381836
vt 0.3193359 0.6381836
vt 0.3425293 0.6381836
vt 0.2817383 0.6381836
vt 0.3088379 0.6381836
vt 0.3095703 0.7163086
vt 0.2739258 0.7719727
vt 0.01014709 0.8618164
vt 0.01014709 0.8901367
vt 0.2739258 0.8901367
vt 0.3178711 0.7456055
vt 0.01014709 0.6381836
vt 0.3095703 0.7163086
vt 0.3178711 0.7456055
vt 0.3178711 0.7456055
vt 0.3178711 0.8901367
vt 0.3503418 0.6899414
vt 0.3095703 0.7163086
vt 0.3088379 0.6381836
vt 0.3503418 0.6899414
vt 0.3088379 0.6381836
vt 0.3425293 0.6381836
vt 0.3745117 0.6381836
vt 0.3503418 0.6899414
vt 0.3425293 0.6381836
vt 0.3745117 0.6381836
vt 0.3425293 0.7285156
vt 0.3745117 0.6381836
vt 0.3425293 0.8901367
vt 0.3745117 0.8901367
vt 0.3425293 0.7285156
vt 0.3178711 0.7456055
vt 0.3095703 0.7163086
vt 0.3503418 0.6899414
vt 0.9804688 0.5263672
vt 0.3867188 0.5263672
vt 0.3867188 0.5263672
vt 0.3867188 0.5263672
vt 0.3867188 0.5263672
vt 0.3193359 0.6381836
vt 0.3186035 0.7485352
vt 0.3425293 0.7265625
vt 0.3425293 0.7265625
vt 0.3425293 0.6381836
vt 0.2817383 0.6381836
vt 0.2817383 0.7646484
vt 0.3186035 0.7485352
vt 0.01014709 0.6381836
vt 0.01014709 0.8901367
vt 0.3178711 0.8901367
vt 0.2817383 0.8901367
vt 0.3186035 0.7485352
vt 0.3193359 0.6381836
vt 0.3425293 0.8901367
vt 0.3178711 0.8901367
vt 0.3178711 0.7456055
vt 0.3425293 0.8901367
vt 0.3178711 0.7456055
vt 0.3425293 0.7285156
vt 0.3186035 0.7485352
vt 0.3178711 0.8901367
vt 0.3425293 0.8901367
vt 0.3186035 0.7485352
vt 0.3425293 0.8901367
vt 0.3425293 0.7265625

g road_Asphalt_Town_Transition_523_138
usemtl road_Asphalt_Town_Transition_523_138
usemap road_Asphalt_Town_Transition_523_138
f 1/1/1 3/3/3 2/2/2
f 2/2/2 3/3/3 4/4/4
f 2/2/2 4/4/4 5/5/5
f 6/6/6 8/8/8 7/7/7
f 6/6/6 9/9/9 8/8/8
f 10/10/10 12/12/12 11/11/11
f 10/10/10 13/13/13 12/12/12
f 14/14/14 13/13/13 10/10/10
f 14/14/14 15/15/15 13/13/13
f 16/16/16 15/15/15 14/14/14
f 16/16/16 17/17/17 15/15/15
f 18/18/18 17/17/17 16/16/16
f 18/18/18 19/19/19 17/17/17
f 20/20/20 10/10/10 11/11/11
f 21/21/21 10/10/10 20/20/20
f 21/21/21 14/14/14 10/10/10
f 21/21/21 16/16/16 14/14/14
f 21/21/21 18/18/18 16/16/16
f 22/22/22 24/24/24 23/23/23
f 22/22/22 25/25/25 24/24/24
f 24/24/24 25/25/25 26/26/26
f 24/24/24 26/26/26 27/27/27
f 26/26/26 28/28/28 27/27/27
f 26/26/26 29/29/29 28/28/28
f 28/28/28 29/29/29 30/30/30
f 28/28/28 30/30/30 31/31/31
f 32/32/32 33/33/33 23/23/23
f 34/34/34 32/32/32 35/35/35
f 34/34/34 37/37/37 36/36/36
f 38/38/38 40/40/40 39/39/39
f 38/38/38 41/41/41 40/40/40
f 42/42/42 44/44/44 43/43/43
f 44/44/44 45/45/45 43/43/43
f 44/44/44 46/46/46 45/45/45
f 44/44/44 48/48/48 47/47/47
f 44/44/44 49/49/49 48/48/48
f 50/50/50 44/44/44 47/47/47
f 51/51/51 53/53/53 52/52/52
f 54/54/54 56/56/56 55/55/55
f 54/54/54 57/57/57 56/56/56
f 58/58/58 60/60/60 59/59/59
f 58/58/58 61/61/61 60/60/60
f 62/62/62 64/64/64 63/63/63
f 65/65/65 67/67/67 66/66/66
f 65/65/65 68/68/68 67/67/67
f 69/69/69 65/65/65 66/66/66
f 69/69/69 66/66/66 70/70/70
f 71/71/71 73/73/73 72/72/72
f 71/71/71 74/74/74 73/73/73
f 75/75/75 74/74/74 71/71/71
f 75/75/75 76/76/76 74/74/74
f 77/77/77 76/76/76 75/75/75
f 77/77/77 78/78/78 76/76/76
f 79/79/79 71/71/71 72/72/72
f 79/79/79 75/75/75 71/71/71
f 80/80/80 75/75/75 79/79/79
f 80/80/80 77/77/77 75/75/75
f 80/80/80 81/81/81 77/77/77
f 81/81/81 82/82/82 77/77/77
f 83/83/83 85/85/85 84/84/84
f 83/83/83 86/86/86 85/85/85
f 85/85/85 86/86/86 87/87/87
f 85/85/85 87/87/87 88/88/88
f 87/87/87 89/89/89 88/88/88
f 87/87/87 90/90/90 89/89/89
f 89/89/89 92/92/92 91/91/91
f 93/93/93 95/95/95 94/94/94
f 94/94/94 95/95/95 96/96/96
f 96/96/96 95/95/95 97/97/97
f 98/98/98 100/100/100 99/99/99
f 98/98/98 101/101/101 100/100/100
f 102/102/102 104/104/104 103/103/103
f 105/105/105 104/104/104 102/102/102
f 106/106/106 105/105/105 102/102/102
f 107/107/107 105/105/105 106/106/106
f 107/107/107 108/108/108 105/105/105
f 108/108/108 109/109/109 105/105/105
f 106/106/106 102/102/102 110/110/110
f 105/105/105 112/112/112 111/111/111
f 108/108/108 114/114/114 113/113/113
f 115/115/115 117/117/117 116/116/116
f 118/118/118 120/120/120 119/119/119
f 121/121/121 123/123/123 122/122/122
f 124/124/124 122/122/122 125/125/125
f 126/126/126 125/125/125 127/127/127
f 126/126/126 127/127/127 128/128/128
f 129/129/129 131/131/131 130/130/130
f 129/129/129 132/132/132 131/131/131
f 133/133/133 135/135/135 134/134/134
f 136/136/136 137/137/137 133/133/133
f 138/138/138 140/140/140 139/139/139
f 138/138/138 142/142/142 141/141/141
f 143/143/143 145/145/145 144/144/144
f 146/146/146 143/143/143 144/144/144
f 146/146/146 144/144/144 147/147/147
f 144/144/144 145/145/145 148/148/148
f 144/144/144 148/148/148 149/149/149
f 147/147/147 144/144/144 149/149/149
f 143/143/143 151/151/151 150/150/150
f 152/152/152 154/154/154 153/153/153
f 155/155/155 157/157/157 156/156/156
f 158/158/158 160/160/160 159/159/159
f 161/161/161 163/163/163 162/162/162
