#road_Asphalt_Corner_516_149.obj

v -4.999989 0 -2.384186E-07
v -4.583522 0 -1.073618
v -4.223261 0 -0.8904784
v -4.999989 0 -1.25943
v -4.100853 -0.1947956 -1.019611
v -4.223261 0 -0.8904784
v -4.583522 0 -1.073618
v -4.499274 -0.1947956 -1.211071
v -4.392124 -0.1947956 -1.575097
v -3.835271 -0.1947956 -1.30938
v -4.100853 -0.1947956 -1.019611
v -4.499274 -0.1947956 -1.211071
v -4.999989 -0.1947956 -1.555624
v -4.999989 -0.1947956 -1.25943
v -4.392124 -0.1947956 -1.575097
v -4.999989 -0.1947956 -1.555624
v -4.99999 -0.1947956 -5
v -9.536743E-07 -0.1947956 -5
v -3.835271 -0.1947956 -1.30938
v -4.999989 0 -2.384186E-07
v -3.880236 0 -0.4786828
v -3.740559 0 -2.384186E-07
v -4.223261 0 -0.8904784
v -3.834648 -0.1947956 -0.5518696
v -3.740559 -0.1947956 -2.384186E-07
v -3.740559 0 -2.384186E-07
v -3.834648 -0.1947956 -0.5518696
v -3.740559 0 -2.384186E-07
v -3.880236 0 -0.4786828
v -4.100853 -0.1947956 -1.019611
v -3.835271 -0.1947956 -1.30938
v -3.53636 -0.1947956 -0.6859667
v -3.834648 -0.1947956 -0.5518696
v -3.444365 -0.1947956 -2.384186E-07
v -3.740559 -0.1947956 -2.384186E-07
v -3.53636 -0.1947956 -0.6859667
v -3.835271 -0.1947956 -1.30938
v -9.536743E-07 -0.1947956 -5
v 9.536743E-07 -0.1947956 -1.192093E-06
v -3.444365 -0.1947956 -2.384186E-07
v -4.100853 -0.1947956 -1.019611
v -3.834648 -0.1947956 -0.5518696
v -3.880236 0 -0.4786828
v -4.223261 0 -0.8904784
v -4.583522 0 -1.073618
v -4.999989 0 -1.25943
v -4.999989 -0.1947956 -1.25943
v -4.583522 0 -1.073618
v -4.999989 -0.1947956 -1.25943
v -4.499274 -0.1947956 -1.211071

vn 0 1 0
vn 0 1 0
vn 0 1 0
vn 0 1 0
vn 0.2247862 0.8615151 -0.4552613
vn 0.2247862 0.8615151 -0.4552613
vn 0.2247862 0.8615151 -0.4552613
vn 0.2247862 0.8615151 -0.4552613
vn 0 1 0
vn 0 1 0
vn 0 1 0
vn 0 1 0
vn 0 1 0
vn 0 1 0
vn 0 1 0
vn 0 1 0
vn 0 1 0
vn 0 1 0
vn 0 1 0
vn 0 1 0
vn 0 1 0
vn 0 1 0
vn 0 1 0
vn 0.9311377 0.2972719 -0.211215
vn 0.9311377 0.2972719 -0.211215
vn 0.9311377 0.2972719 -0.211215
vn 0.9311377 0.2972719 -0.211215
vn 0.9311377 0.2972719 -0.211215
vn 0.9311377 0.2972719 -0.211215
vn 0 1 0
vn 0 1 0
vn 0 1 0
vn 0 1 0
vn 0 1 0
vn 0 1 0
vn 0 1 0
vn 0 1 0
vn 0 1 0
vn 0 1 0
vn 0 1 0
vn 0.5011264 0.7927057 -0.3471165
vn 0.5011264 0.7927057 -0.3471165
vn 0.5011264 0.7927057 -0.3471165
vn 0.5011264 0.7927057 -0.3471165
vn 0.1940499 0.6202298 -0.7600393
vn 0.1940499 0.6202298 -0.7600393
vn 0.1940499 0.6202298 -0.7600393
vn 0.1940499 0.6202298 -0.7600393
vn 0.1940499 0.6202298 -0.7600393
vn 0.1940499 0.6202298 -0.7600393

vt 0.01226044 0.4257813
vt 0.3178711 0.5444336
vt 0.3178711 0.4257813
vt 0.3178711 0.6630859
vt 0.3410645 0.4257813
vt 0.3178711 0.4257813
vt 0.3178711 0.5444336
vt 0.3410645 0.5449219
vt 0.3754883 0.5507813
vt 0.3754883 0.4257813
vt 0.3410645 0.4257813
vt 0.3410645 0.5449219
vt 0.3754883 0.6757813
vt 0.3410645 0.6640625
vt 0.3867188 0.5112305
vt 0.3867188 0.6030273
vt 0.9804688 0.6030273
vt 0.9804688 0.4194336
vt 0.3867188 0.4194336
vt 0.01226044 0.4257813
vt 0.3178711 0.5444336
vt 0.3178711 0.6630859
vt 0.3178711 0.4257813
vt 0.3410645 0.5449219
vt 0.3410645 0.6640625
vt 0.3178711 0.6630859
vt 0.3410645 0.5449219
vt 0.3178711 0.6630859
vt 0.3178711 0.5444336
vt 0.3410645 0.4257813
vt 0.3754883 0.4257813
vt 0.3754883 0.5507813
vt 0.3410645 0.5449219
vt 0.3754883 0.6757813
vt 0.3410645 0.6640625
vt 0.3867188 0.5112305
vt 0.3867188 0.4194336
vt 0.9804688 0.4194336
vt 0.9804688 0.6030273
vt 0.3867188 0.6030273
vt 0.3410645 0.4257813
vt 0.3410645 0.5449219
vt 0.3178711 0.5444336
vt 0.3178711 0.4257813
vt 0.3178711 0.5444336
vt 0.3178711 0.6630859
vt 0.3410645 0.6640625
vt 0.3178711 0.5444336
vt 0.3410645 0.6640625
vt 0.3410645 0.5449219

g road_Asphalt_Corner_516_149
usemtl road_Asphalt_Corner_516_149
usemap road_Asphalt_Corner_516_149
f 1/1/1 3/3/3 2/2/2
f 1/1/1 2/2/2 4/4/4
f 5/5/5 7/7/7 6/6/6
f 5/5/5 8/8/8 7/7/7
f 9/9/9 11/11/11 10/10/10
f 9/9/9 12/12/12 11/11/11
f 13/13/13 12/12/12 9/9/9
f 13/13/13 14/14/14 12/12/12
f 15/15/15 17/17/17 16/16/16
f 18/18/18 17/17/17 15/15/15
f 18/18/18 15/15/15 19/19/19
f 20/20/20 22/22/22 21/21/21
f 20/20/20 21/21/21 23/23/23
f 24/24/24 26/26/26 25/25/25
f 27/27/27 29/29/29 28/28/28
f 30/30/30 32/32/32 31/31/31
f 30/30/30 33/33/33 32/32/32
f 34/34/34 32/32/32 33/33/33
f 34/34/34 33/33/33 35/35/35
f 36/36/36 38/38/38 37/37/37
f 39/39/39 38/38/38 36/36/36
f 39/39/39 36/36/36 40/40/40
f 41/41/41 43/43/43 42/42/42
f 41/41/41 44/44/44 43/43/43
f 45/45/45 47/47/47 46/46/46
f 48/48/48 50/50/50 49/49/49
