#rock_brown_03_(1)_693_13.obj

v -0.7181271 0 0.531157
v -0.5305668 0.6002827 0.3436048
v 0.1566426 0.6002827 0.3436032
v 0.3442052 0 0.5311673
v -0.5305668 0.6002827 0.3436048
v -0.5305628 0.6002827 -0.3436005
v 0.1566473 0.6002827 -0.3436028
v 0.1566426 0.6002827 0.3436032
v -0.5305628 0.6002827 -0.3436005
v -0.7181247 0 -0.5311652
v 0.3441973 0 -0.5311663
v 0.1566473 0.6002827 -0.3436028
v -0.7181247 0 -0.5311652
v -0.7181271 0 0.531157
v 0.3442052 0 0.5311673
v 0.3441973 0 -0.5311663
v 0.3442052 0 0.5311673
v 0.1566426 0.6002827 0.3436032
v 0.1566473 0.6002827 -0.3436028
v 0.3441973 0 -0.5311663
v -0.7181247 0 -0.5311652
v -0.5305628 0.6002827 -0.3436005
v -0.5305668 0.6002827 0.3436048
v -0.7181271 0 0.531157
v 0.07751837 0 0.3447872
v 0.1906185 0.294322 0.231695
v 0.6050221 0.294322 0.2316919
v 0.7181164 0 0.3447855
v 0.1906185 0.294322 0.231695
v 0.190619 0.294322 -0.1827103
v 0.6050226 0.294322 -0.1827133
v 0.6050221 0.294322 0.2316919
v 0.190619 0.294322 -0.1827103
v 0.07751516 0 -0.2958157
v 0.718114 0 -0.2958181
v 0.6050226 0.294322 -0.1827133
v 0.07751516 0 -0.2958157
v 0.07751837 0 0.3447872
v 0.7181164 0 0.3447855
v 0.718114 0 -0.2958181
v 0.7181164 0 0.3447855
v 0.6050221 0.294322 0.2316919
v 0.6050226 0.294322 -0.1827133
v 0.718114 0 -0.2958181
v 0.07751516 0 -0.2958157
v 0.190619 0.294322 -0.1827103
v 0.1906185 0.294322 0.231695
v 0.07751837 0 0.3447872

vn -0.5964953 0.2982283 0.7451532
vn -0.5964953 0.2982283 0.7451532
vn -0.5964953 0.2982283 0.7451532
vn -0.5964953 0.2982283 0.7451532
vn 0 1 0
vn 0 1 0
vn 0 1 0
vn 0 1 0
vn 0.5964953 0.2982283 -0.7451532
vn 0.5964953 0.2982283 -0.7451532
vn 0.5964953 0.2982283 -0.7451532
vn 0.5964953 0.2982283 -0.7451532
vn 0 -1 0
vn 0 -1 0
vn 0 -1 0
vn 0 -1 0
vn 0.7451532 0.2982283 0.5964953
vn 0.7451532 0.2982283 0.5964953
vn 0.7451532 0.2982283 0.5964953
vn 0.7451532 0.2982283 0.5964953
vn -0.7451532 0.2982283 -0.5964953
vn -0.7451532 0.2982283 -0.5964953
vn -0.7451532 0.2982283 -0.5964953
vn -0.7451532 0.2982283 -0.5964953
vn -0.5833476 0.3586921 0.7287288
vn -0.5833476 0.3586921 0.7287288
vn -0.5833476 0.3586921 0.7287288
vn -0.5833476 0.3586921 0.7287288
vn 0 1 0
vn 0 1 0
vn 0 1 0
vn 0 1 0
vn 0.5833476 0.3586921 -0.7287288
vn 0.5833476 0.3586921 -0.7287288
vn 0.5833476 0.3586921 -0.7287288
vn 0.5833476 0.3586921 -0.7287288
vn 0 -1 0
vn 0 -1 0
vn 0 -1 0
vn 0 -1 0
vn 0.7287288 0.3586921 0.5833476
vn 0.7287288 0.3586921 0.5833476
vn 0.7287288 0.3586921 0.5833476
vn 0.7287288 0.3586921 0.5833476
vn -0.7287288 0.3586921 -0.5833476
vn -0.7287288 0.3586921 -0.5833476
vn -0.7287288 0.3586921 -0.5833476
vn -0.7287288 0.3586921 -0.5833476

vt 0.07293701 0.8359375
vt 0.07293701 0.8354492
vt 0.0725708 0.8354492
vt 0.0725708 0.8359375
vt 0.1965332 0.609375
vt 0.1965332 0.6635742
vt 0.2509766 0.6635742
vt 0.2509766 0.609375
vt 0.07293701 0.8349609
vt 0.07293701 0.8349609
vt 0.0725708 0.8349609
vt 0.0725708 0.8349609
vt 0.1748047 0.8066406
vt 0.1748047 0.8666992
vt 0.2347412 0.8666992
vt 0.2347412 0.8066406
vt 0.1115112 0.972168
vt 0.1115112 0.9682617
vt 0.1074219 0.9682617
vt 0.1074219 0.972168
vt 0.1196289 0.972168
vt 0.1196289 0.9682617
vt 0.1155396 0.9682617
vt 0.1155396 0.972168
vt 0.07293701 0.8359375
vt 0.07293701 0.8354492
vt 0.0725708 0.8354492
vt 0.0725708 0.8359375
vt 0.1965332 0.609375
vt 0.1965332 0.6635742
vt 0.2509766 0.6635742
vt 0.2509766 0.609375
vt 0.07293701 0.8349609
vt 0.07293701 0.8349609
vt 0.0725708 0.8349609
vt 0.0725708 0.8349609
vt 0.1748047 0.8066406
vt 0.1748047 0.8666992
vt 0.2347412 0.8666992
vt 0.2347412 0.8066406
vt 0.1115112 0.972168
vt 0.1115112 0.9682617
vt 0.1074219 0.9682617
vt 0.1074219 0.972168
vt 0.1196289 0.972168
vt 0.1196289 0.9682617
vt 0.1155396 0.9682617
vt 0.1155396 0.972168

g rock_brown_03_(1)_693_13
usemtl rock_brown_03_(1)_693_13
usemap rock_brown_03_(1)_693_13
f 1/1/1 3/3/3 2/2/2
f 1/1/1 4/4/4 3/3/3
f 5/5/5 7/7/7 6/6/6
f 5/5/5 8/8/8 7/7/7
f 9/9/9 11/11/11 10/10/10
f 9/9/9 12/12/12 11/11/11
f 13/13/13 15/15/15 14/14/14
f 13/13/13 16/16/16 15/15/15
f 17/17/17 19/19/19 18/18/18
f 17/17/17 20/20/20 19/19/19
f 21/21/21 23/23/23 22/22/22
f 21/21/21 24/24/24 23/23/23
f 25/25/25 27/27/27 26/26/26
f 25/25/25 28/28/28 27/27/27
f 29/29/29 31/31/31 30/30/30
f 29/29/29 32/32/32 31/31/31
f 33/33/33 35/35/35 34/34/34
f 33/33/33 36/36/36 35/35/35
f 37/37/37 39/39/39 38/38/38
f 37/37/37 40/40/40 39/39/39
f 41/41/41 43/43/43 42/42/42
f 41/41/41 44/44/44 43/43/43
f 45/45/45 47/47/47 46/46/46
f 45/45/45 48/48/48 47/47/47
