#rock_brown_03_(2)_647_14.obj

v -0.718121 0 0.5311651
v -0.5305684 0.6002831 0.3436059
v 0.1566471 0.6002831 0.343609
v 0.3441983 0 0.5311588
v -0.5305684 0.6002831 0.3436059
v -0.5305643 0.6002831 -0.3436018
v 0.156642 0.6002831 -0.3436081
v 0.1566471 0.6002831 0.343609
v -0.5305643 0.6002831 -0.3436018
v -0.7181247 0 -0.531161
v 0.3442038 0 -0.5311578
v 0.156642 0.6002831 -0.3436081
v -0.7181247 0 -0.531161
v -0.718121 0 0.5311651
v 0.3441983 0 0.5311588
v 0.3442038 0 -0.5311578
v 0.3441983 0 0.5311588
v 0.1566471 0.6002831 0.343609
v 0.156642 0.6002831 -0.3436081
v 0.3442038 0 -0.5311578
v -0.7181247 0 -0.531161
v -0.5305643 0.6002831 -0.3436018
v -0.5305684 0.6002831 0.3436059
v -0.718121 0 0.5311651
v 0.07751985 0 0.3447897
v 0.1906167 0.2943219 0.2316947
v 0.6050214 0.2943219 0.2316958
v 0.7181203 0 0.3447907
v 0.1906167 0.2943219 0.2316947
v 0.1906162 0.2943219 -0.1827112
v 0.6050237 0.2943219 -0.1827117
v 0.6050214 0.2943219 0.2316958
v 0.1906162 0.2943219 -0.1827112
v 0.07752009 0 -0.2958077
v 0.7181141 0 -0.2958177
v 0.6050237 0.2943219 -0.1827117
v 0.07752009 0 -0.2958077
v 0.07751985 0 0.3447897
v 0.7181203 0 0.3447907
v 0.7181141 0 -0.2958177
v 0.7181203 0 0.3447907
v 0.6050214 0.2943219 0.2316958
v 0.6050237 0.2943219 -0.1827117
v 0.7181141 0 -0.2958177
v 0.07752009 0 -0.2958077
v 0.1906162 0.2943219 -0.1827112
v 0.1906167 0.2943219 0.2316947
v 0.07751985 0 0.3447897

vn -0.4135381 0.5743029 0.7065142
vn -0.4135381 0.5743029 0.7065142
vn -0.4135381 0.5743029 0.7065142
vn -0.4135381 0.5743029 0.7065142
vn 0 1 0
vn 0 1 0
vn 0 1 0
vn 0 1 0
vn 0.4135381 0.5743029 -0.7065142
vn 0.4135381 0.5743029 -0.7065142
vn 0.4135381 0.5743029 -0.7065142
vn 0.4135381 0.5743029 -0.7065142
vn 0 -1 0
vn 0 -1 0
vn 0 -1 0
vn 0 -1 0
vn 0.704556 0.5775238 0.412392
vn 0.704556 0.5775238 0.412392
vn 0.704556 0.5775238 0.412392
vn 0.704556 0.5775238 0.412392
vn -0.704556 0.5775238 -0.412392
vn -0.704556 0.5775238 -0.412392
vn -0.704556 0.5775238 -0.412392
vn -0.704556 0.5775238 -0.412392
vn -0.3824721 0.6532476 0.653439
vn -0.3824721 0.6532476 0.653439
vn -0.3824721 0.6532476 0.653439
vn -0.3824721 0.6532476 0.653439
vn 0 1 0
vn 0 1 0
vn 0 1 0
vn 0 1 0
vn 0.3824721 0.6532476 -0.653439
vn 0.3824721 0.6532476 -0.653439
vn 0.3824721 0.6532476 -0.653439
vn 0.3824721 0.6532476 -0.653439
vn 0 -1 0
vn 0 -1 0
vn 0 -1 0
vn 0 -1 0
vn 0.6510986 0.6563777 0.3811022
vn 0.6510986 0.6563777 0.3811022
vn 0.6510986 0.6563777 0.3811022
vn 0.6510986 0.6563777 0.3811022
vn -0.6510986 0.6563777 -0.3811022
vn -0.6510986 0.6563777 -0.3811022
vn -0.6510986 0.6563777 -0.3811022
vn -0.6510986 0.6563777 -0.3811022

vt 0.07293701 0.8359375
vt 0.07293701 0.8354492
vt 0.0725708 0.8354492
vt 0.0725708 0.8359375
vt 0.1965332 0.609375
vt 0.1965332 0.6635742
vt 0.2509766 0.6635742
vt 0.2509766 0.609375
vt 0.07293701 0.8349609
vt 0.07293701 0.8349609
vt 0.0725708 0.8349609
vt 0.0725708 0.8349609
vt 0.1748047 0.8066406
vt 0.1748047 0.8666992
vt 0.2347412 0.8666992
vt 0.2347412 0.8066406
vt 0.1115112 0.972168
vt 0.1115112 0.9682617
vt 0.1074219 0.9682617
vt 0.1074219 0.972168
vt 0.1196289 0.972168
vt 0.1196289 0.9682617
vt 0.1155396 0.9682617
vt 0.1155396 0.972168
vt 0.07293701 0.8359375
vt 0.07293701 0.8354492
vt 0.0725708 0.8354492
vt 0.0725708 0.8359375
vt 0.1965332 0.609375
vt 0.1965332 0.6635742
vt 0.2509766 0.6635742
vt 0.2509766 0.609375
vt 0.07293701 0.8349609
vt 0.07293701 0.8349609
vt 0.0725708 0.8349609
vt 0.0725708 0.8349609
vt 0.1748047 0.8066406
vt 0.1748047 0.8666992
vt 0.2347412 0.8666992
vt 0.2347412 0.8066406
vt 0.1115112 0.972168
vt 0.1115112 0.9682617
vt 0.1074219 0.9682617
vt 0.1074219 0.972168
vt 0.1196289 0.972168
vt 0.1196289 0.9682617
vt 0.1155396 0.9682617
vt 0.1155396 0.972168

g rock_brown_03_(2)_647_14
usemtl rock_brown_03_(2)_647_14
usemap rock_brown_03_(2)_647_14
f 1/1/1 3/3/3 2/2/2
f 1/1/1 4/4/4 3/3/3
f 5/5/5 7/7/7 6/6/6
f 5/5/5 8/8/8 7/7/7
f 9/9/9 11/11/11 10/10/10
f 9/9/9 12/12/12 11/11/11
f 13/13/13 15/15/15 14/14/14
f 13/13/13 16/16/16 15/15/15
f 17/17/17 19/19/19 18/18/18
f 17/17/17 20/20/20 19/19/19
f 21/21/21 23/23/23 22/22/22
f 21/21/21 24/24/24 23/23/23
f 25/25/25 27/27/27 26/26/26
f 25/25/25 28/28/28 27/27/27
f 29/29/29 31/31/31 30/30/30
f 29/29/29 32/32/32 31/31/31
f 33/33/33 35/35/35 34/34/34
f 33/33/33 36/36/36 35/35/35
f 37/37/37 39/39/39 38/38/38
f 37/37/37 40/40/40 39/39/39
f 41/41/41 43/43/43 42/42/42
f 41/41/41 44/44/44 43/43/43
f 45/45/45 47/47/47 46/46/46
f 45/45/45 48/48/48 47/47/47
