#rock_brown_03_(3)_646_15.obj

v -0.7181257 0 0.531166
v -0.5305547 0.6002827 0.3436119
v 0.1566455 0.6002827 0.3436068
v 0.3441896 0 0.5311588
v -0.5305547 0.6002827 0.3436119
v -0.5305771 0.6002827 -0.3436096
v 0.15665 0.6002827 -0.3435984
v 0.1566455 0.6002827 0.3436068
v -0.5305771 0.6002827 -0.3436096
v -0.7181211 0 -0.5311616
v 0.3441919 0 -0.5311615
v 0.15665 0.6002827 -0.3435984
v -0.7181211 0 -0.5311616
v -0.7181257 0 0.531166
v 0.3441896 0 0.5311588
v 0.3441919 0 -0.5311615
v 0.3441896 0 0.5311588
v 0.1566455 0.6002827 0.3436068
v 0.15665 0.6002827 -0.3435984
v 0.3441919 0 -0.5311615
v -0.7181211 0 -0.5311616
v -0.5305771 0.6002827 -0.3436096
v -0.5305547 0.6002827 0.3436119
v -0.7181257 0 0.531166
v 0.07753067 0 0.3447925
v 0.1906204 0.294322 0.2316898
v 0.6050271 0.294322 0.2316954
v 0.7181203 0 0.3447901
v 0.1906204 0.294322 0.2316898
v 0.1906091 0.294322 -0.1827142
v 0.6050181 0.294322 -0.1827159
v 0.6050271 0.294322 0.2316954
v 0.1906091 0.294322 -0.1827142
v 0.077516 0 -0.2958089
v 0.7181056 0 -0.2958113
v 0.6050181 0.294322 -0.1827159
v 0.077516 0 -0.2958089
v 0.07753067 0 0.3447925
v 0.7181203 0 0.3447901
v 0.7181056 0 -0.2958113
v 0.7181203 0 0.3447901
v 0.6050271 0.294322 0.2316954
v 0.6050181 0.294322 -0.1827159
v 0.7181056 0 -0.2958113
v 0.077516 0 -0.2958089
v 0.1906091 0.294322 -0.1827142
v 0.1906204 0.294322 0.2316898
v 0.07753067 0 0.3447925

vn -0.9118044 0.2982281 0.2822638
vn -0.9118044 0.2982281 0.2822638
vn -0.9118044 0.2982281 0.2822638
vn -0.9118044 0.2982281 0.2822638
vn 0 0.9999995 0
vn 0 0.9999995 0
vn 0 0.9999995 0
vn 0 0.9999995 0
vn 0.9118044 0.2982281 -0.2822638
vn 0.9118044 0.2982281 -0.2822638
vn 0.9118044 0.2982281 -0.2822638
vn 0.9118044 0.2982281 -0.2822638
vn 0 -0.9999995 0
vn 0 -0.9999995 0
vn 0 -0.9999995 0
vn 0 -0.9999995 0
vn 0.2822638 0.2982281 0.9118044
vn 0.2822638 0.2982281 0.9118044
vn 0.2822638 0.2982281 0.9118044
vn 0.2822638 0.2982281 0.9118044
vn -0.2822638 0.2982281 -0.9118044
vn -0.2822638 0.2982281 -0.9118044
vn -0.2822638 0.2982281 -0.9118044
vn -0.2822638 0.2982281 -0.9118044
vn -0.8917067 0.3586919 0.2760422
vn -0.8917067 0.3586919 0.2760422
vn -0.8917067 0.3586919 0.2760422
vn -0.8917067 0.3586919 0.2760422
vn 0 0.9999995 0
vn 0 0.9999995 0
vn 0 0.9999995 0
vn 0 0.9999995 0
vn 0.8917067 0.3586919 -0.2760422
vn 0.8917067 0.3586919 -0.2760422
vn 0.8917067 0.3586919 -0.2760422
vn 0.8917067 0.3586919 -0.2760422
vn 0 -0.9999995 0
vn 0 -0.9999995 0
vn 0 -0.9999995 0
vn 0 -0.9999995 0
vn 0.2760422 0.3586919 0.8917067
vn 0.2760422 0.3586919 0.8917067
vn 0.2760422 0.3586919 0.8917067
vn 0.2760422 0.3586919 0.8917067
vn -0.2760422 0.3586919 -0.8917067
vn -0.2760422 0.3586919 -0.8917067
vn -0.2760422 0.3586919 -0.8917067
vn -0.2760422 0.3586919 -0.8917067

vt 0.07293701 0.8359375
vt 0.07293701 0.8354492
vt 0.0725708 0.8354492
vt 0.0725708 0.8359375
vt 0.1965332 0.609375
vt 0.1965332 0.6635742
vt 0.2509766 0.6635742
vt 0.2509766 0.609375
vt 0.07293701 0.8349609
vt 0.07293701 0.8349609
vt 0.0725708 0.8349609
vt 0.0725708 0.8349609
vt 0.1748047 0.8066406
vt 0.1748047 0.8666992
vt 0.2347412 0.8666992
vt 0.2347412 0.8066406
vt 0.1115112 0.972168
vt 0.1115112 0.9682617
vt 0.1074219 0.9682617
vt 0.1074219 0.972168
vt 0.1196289 0.972168
vt 0.1196289 0.9682617
vt 0.1155396 0.9682617
vt 0.1155396 0.972168
vt 0.07293701 0.8359375
vt 0.07293701 0.8354492
vt 0.0725708 0.8354492
vt 0.0725708 0.8359375
vt 0.1965332 0.609375
vt 0.1965332 0.6635742
vt 0.2509766 0.6635742
vt 0.2509766 0.609375
vt 0.07293701 0.8349609
vt 0.07293701 0.8349609
vt 0.0725708 0.8349609
vt 0.0725708 0.8349609
vt 0.1748047 0.8066406
vt 0.1748047 0.8666992
vt 0.2347412 0.8666992
vt 0.2347412 0.8066406
vt 0.1115112 0.972168
vt 0.1115112 0.9682617
vt 0.1074219 0.9682617
vt 0.1074219 0.972168
vt 0.1196289 0.972168
vt 0.1196289 0.9682617
vt 0.1155396 0.9682617
vt 0.1155396 0.972168

g rock_brown_03_(3)_646_15
usemtl rock_brown_03_(3)_646_15
usemap rock_brown_03_(3)_646_15
f 1/1/1 3/3/3 2/2/2
f 1/1/1 4/4/4 3/3/3
f 5/5/5 7/7/7 6/6/6
f 5/5/5 8/8/8 7/7/7
f 9/9/9 11/11/11 10/10/10
f 9/9/9 12/12/12 11/11/11
f 13/13/13 15/15/15 14/14/14
f 13/13/13 16/16/16 15/15/15
f 17/17/17 19/19/19 18/18/18
f 17/17/17 20/20/20 19/19/19
f 21/21/21 23/23/23 22/22/22
f 21/21/21 24/24/24 23/23/23
f 25/25/25 27/27/27 26/26/26
f 25/25/25 28/28/28 27/27/27
f 29/29/29 31/31/31 30/30/30
f 29/29/29 32/32/32 31/31/31
f 33/33/33 35/35/35 34/34/34
f 33/33/33 36/36/36 35/35/35
f 37/37/37 39/39/39 38/38/38
f 37/37/37 40/40/40 39/39/39
f 41/41/41 43/43/43 42/42/42
f 41/41/41 44/44/44 43/43/43
f 45/45/45 47/47/47 46/46/46
f 45/45/45 48/48/48 47/47/47
