#rubble_03_(6)_687_175.obj

v 0.8702515 0 -0.7566265
v -0.03670702 0 -0.2014894
v -0.03670702 0.2653828 -0.2014894
v 0.8702515 0.2653828 -0.7566265
v 0.8702515 0.2653828 -0.7566265
v -0.03670702 0.2653828 -0.2014894
v -0.559813 0.2653828 -1.163983
v -0.559813 0.2653828 -1.163983
v 0.2446924 0.2653828 -1.247518
v 0.2446924 0.2653828 -1.247518
v -0.559813 0.2653828 -1.163983
v -0.559813 0 -1.163983
v 0.2446924 0 -1.247518
v -0.03670702 0 -0.2014894
v -0.559813 0 -1.163983
v -0.559813 0.2653828 -1.163983
v -0.03670702 0.2653828 -0.2014894
v 0.2446924 0 -1.247518
v 0.8702515 0 -0.7566265
v 0.8702515 0.2653828 -0.7566265
v 0.2446924 0.2653828 -1.247518
v -1.205485 0 -0.006715766
v -1.109056 0 4.627855
v -1.109056 0.2653828 4.627855
v -1.205485 0.2653828 -0.006715766
v -1.205485 0.2653828 -0.006715766
v -1.109056 0.2653828 4.627855
v -1.516619 0.2653828 4.645166
v -1.613049 0.2653828 0.01059533
v -1.613049 0.2653828 0.01059533
v -1.516619 0.2653828 4.645166
v -1.516619 0 4.645166
v -1.613049 0 0.01059533
v -1.109056 0 4.627855
v -1.516619 0 4.645166
v -1.516619 0.2653828 4.645166
v -1.109056 0.2653828 4.627855
v -1.613049 0 0.01059533
v -1.205485 0 -0.006715766
v -1.205485 0.2653828 -0.006715766
v -1.613049 0.2653828 0.01059533
v 1.53048 0 1.588171
v 0.2459275 0 1.575274
v 0.2459275 0.2653828 1.575274
v 1.53048 0.2653828 1.588171
v 1.53048 0.2653828 1.588171
v 0.2459275 0.2653828 1.575274
v 0.2580822 0.2653828 0.8297985
v 1.171467 0.2653828 0.5793229
v 1.171467 0.2653828 0.5793229
v 0.2580822 0.2653828 0.8297985
v 0.2580822 0 0.8297985
v 1.241594 0 0.4937502
v 0.2459275 0 1.575274
v 0.2580822 0 0.8297985
v 0.2580822 0.2653828 0.8297985
v 0.2459275 0.2653828 1.575274
v 1.241594 0 0.4937502
v 1.53048 0 1.588171
v 1.53048 0.2653828 1.588171
v 1.241594 0 0.4937502
v 1.171467 0.2653828 0.5793229
v -2.714551 0 2.232077
v -2.990856 0 2.690546
v -2.990856 0.2653828 2.690546
v -2.714551 0.2653828 2.232077
v -2.714551 0.2653828 2.232077
v -2.990856 0.2653828 2.690546
v -3.422874 0.2653828 2.285444
v -3.04114 0.2653828 1.826976
v -3.04114 0.2653828 1.826976
v -3.422874 0.2653828 2.285444
v -3.422874 0 2.285444
v -3.04114 0 1.826976
v -2.990856 0 2.690546
v -3.422874 0 2.285444
v -3.422874 0.2653828 2.285444
v -2.990856 0.2653828 2.690546
v -3.04114 0 1.826976
v -2.714551 0 2.232077
v -2.714551 0.2653828 2.232077
v -3.04114 0.2653828 1.826976
v 0.404021 0 2.817268
v 0.1293743 0 3.147125
v 0.1293743 0.2653828 3.147125
v 0.404021 0.2653828 2.817268
v 0.404021 0.2653828 2.817268
v 0.1293743 0.2653828 3.147125
v -0.1814491 0.2653828 2.855665
v 0.404021 0.2653828 2.817268
v 0.09319459 0.2653828 2.542798
v 0.09319459 0.2653828 2.542798
v -0.1814491 0.2653828 2.855665
v -0.1814491 0 2.855665
v 0.09319459 0 2.542798
v 0.1293743 0 3.147125
v -0.1814491 0 2.855665
v -0.1814491 0.2653828 2.855665
v 0.1293743 0.2653828 3.147125
v 0.09319459 0 2.542798
v 0.404021 0 2.817268
v 0.404021 0.2653828 2.817268
v 0.09319459 0.2653828 2.542798
v 3.928007 0 -1.892303
v 1.755167 0 -0.5247503
v 1.755167 0.2653828 -0.5247503
v 3.928007 0.2653828 -1.892303
v 3.928007 0.2653828 -1.892303
v 1.755167 0.2653828 -0.5247503
v 1.551379 0.2653828 -0.8997149
v 3.72422 0.2653828 -2.267268
v 3.72422 0.2653828 -2.267268
v 1.551379 0.2653828 -0.8997149
v 1.551379 0 -0.8997149
v 3.72422 0 -2.267268
v 1.755167 0 -0.5247503
v 1.551379 0 -0.8997149
v 1.551379 0.2653828 -0.8997149
v 1.755167 0.2653828 -0.5247503
v 3.72422 0 -2.267268
v 3.928007 0 -1.892303
v 3.928007 0.2653828 -1.892303
v 3.72422 0.2653828 -2.267268
v 1.798596 0 -1.857389
v -2.334593 0 -1.898883
v -2.134134 0.2653828 -2.129748
v 1.798596 0.2653828 -1.857389
v 1.798596 0.2653828 -1.857389
v -2.134134 0.2653828 -2.129748
v -2.184615 0.2653828 -3.140591
v 1.798596 0.2653828 -1.857389
v -2.184615 0.2653828 -3.140591
v 1.81075 0.2653828 -3.220588
v 1.81075 0.2653828 -3.220588
v -2.184615 0.2653828 -3.140591
v -2.322446 0 -3.262083
v 1.81075 0.2653828 -3.220588
v 1.81075 0 -3.220588
v -2.334593 0 -1.898883
v -2.322446 0 -3.262083
v -2.184615 0.2653828 -3.140591
v -2.334593 0 -1.898883
v -2.184615 0.2653828 -3.140591
v -2.134134 0.2653828 -2.129748
v 1.81075 0 -3.220588
v 1.798596 0 -1.857389
v 1.798596 0.2653828 -1.857389
v 1.81075 0.2653828 -3.220588

vn -0.7715296 0 0.6361935
vn -0.7715296 0 0.6361935
vn -0.7715296 0 0.6361935
vn -0.7715296 0 0.6361935
vn 0 1 0
vn 0 1 0
vn 0 1 0
vn 0 1 0
vn 0 1 0
vn 0.9704372 0 -0.2413541
vn 0.9704372 0 -0.2413541
vn 0.9704372 0 -0.2413541
vn 0.9704372 0 -0.2413541
vn -0.5956923 0 -0.8032128
vn -0.5956923 0 -0.8032128
vn -0.5956923 0 -0.8032128
vn -0.5956923 0 -0.8032128
vn 0.8652949 0 0.5012631
vn 0.8652949 0 0.5012631
vn 0.8652949 0 0.5012631
vn 0.8652949 0 0.5012631
vn 0.1604032 0 0.9870516
vn 0.1604032 0 0.9870516
vn 0.1604032 0 0.9870516
vn 0.1604032 0 0.9870516
vn 0 1 0
vn 0 1 0
vn 0 1 0
vn 0 1 0
vn -0.1604034 0 -0.9870515
vn -0.1604034 0 -0.9870515
vn -0.1604034 0 -0.9870515
vn -0.1604034 0 -0.9870515
vn -0.983349 0 0.1817271
vn -0.983349 0 0.1817271
vn -0.983349 0 0.1817271
vn -0.983349 0 0.1817271
vn 0.9833485 0 -0.1817293
vn 0.9833485 0 -0.1817293
vn 0.9833485 0 -0.1817293
vn 0.9833485 0 -0.1817293
vn -0.9915286 0 0.1298886
vn -0.9915286 0 0.1298886
vn -0.9915286 0 0.1298886
vn -0.9915286 0 0.1298886
vn 0 1 0
vn 0 1 0
vn 0 1 0
vn 0 1 0
vn 0.8987548 0.1142451 -0.4233057
vn 0.8987548 0.1142451 -0.4233057
vn 0.8987548 0.1142451 -0.4233057
vn 0.8987548 0.1142451 -0.4233057
vn -0.1236777 0 -0.9923224
vn -0.1236777 0 -0.9923224
vn -0.1236777 0 -0.9923224
vn -0.1236777 0 -0.9923224
vn 0.4188606 0.171173 0.8917711
vn 0.4188606 0.171173 0.8917711
vn 0.4188606 0.171173 0.8917711
vn 0.4188606 0.171173 0.8917711
vn 0.4188606 0.171173 0.8917711
vn -0.391332 0 0.9202496
vn -0.391332 0 0.9202496
vn -0.391332 0 0.9202496
vn -0.391332 0 0.9202496
vn 0 1 0
vn 0 1 0
vn 0 1 0
vn 0 1 0
vn 0.5261074 0 -0.8504182
vn 0.5261074 0 -0.8504182
vn 0.5261074 0 -0.8504182
vn 0.5261074 0 -0.8504182
vn -0.8179479 0 -0.5752923
vn -0.8179479 0 -0.5752923
vn -0.8179479 0 -0.5752923
vn -0.8179479 0 -0.5752923
vn 0.7303288 0 0.6830959
vn 0.7303288 0 0.6830959
vn 0.7303288 0 0.6830959
vn 0.7303288 0 0.6830959
vn -0.5261078 0 0.8504179
vn -0.5261078 0 0.8504179
vn -0.5261078 0 0.8504179
vn -0.5261078 0 0.8504179
vn 0 1 0
vn 0 1 0
vn 0 1 0
vn 0 1 0
vn 0 1 0
vn 0.5481361 0 -0.8363892
vn 0.5481361 0 -0.8363892
vn 0.5481361 0 -0.8363892
vn 0.5481361 0 -0.8363892
vn -0.817948 0 -0.5752923
vn -0.817948 0 -0.5752923
vn -0.817948 0 -0.5752923
vn -0.817948 0 -0.5752923
vn 0.8347775 0 0.5505875
vn 0.8347775 0 0.5505875
vn 0.8347775 0 0.5505875
vn 0.8347775 0 0.5505875
vn -0.7635252 0 0.6457782
vn -0.7635252 0 0.6457782
vn -0.7635252 0 0.6457782
vn -0.7635252 0 0.6457782
vn 0 1 0
vn 0 1 0
vn 0 1 0
vn 0 1 0
vn 0.7635249 0 -0.6457783
vn 0.7635249 0 -0.6457783
vn 0.7635249 0 -0.6457783
vn 0.7635249 0 -0.6457783
vn -0.5956951 0 -0.8032107
vn -0.5956951 0 -0.8032107
vn -0.5956951 0 -0.8032107
vn -0.5956951 0 -0.8032107
vn 0.5956944 0 0.8032112
vn 0.5956944 0 0.8032112
vn 0.5956944 0 0.8032112
vn 0.5956944 0 0.8032112
vn -0.9074675 0.4098492 0.09233778
vn -0.9074675 0.4098492 0.09233778
vn -0.9074675 0.4098492 0.09233778
vn -0.9074675 0.4098492 0.09233778
vn 0 1 0
vn 0 1 0
vn 0 1 0
vn 0 1 0
vn 0 1 0
vn 0 1 0
vn 0.9642967 0.2242659 -0.1408431
vn 0.9642967 0.2242659 -0.1408431
vn 0.9642967 0.2242659 -0.1408431
vn 0.9642967 0.2242659 -0.1408431
vn 0.9642967 0.2242659 -0.1408431
vn -0.1311916 0.5394123 -0.831759
vn -0.1311916 0.5394123 -0.831759
vn -0.1311916 0.5394123 -0.831759
vn -0.1311916 0.5394123 -0.831759
vn -0.1311916 0.5394123 -0.831759
vn -0.1311916 0.5394123 -0.831759
vn 0.1310055 0 0.9913817
vn 0.1310055 0 0.9913817
vn 0.1310055 0 0.9913817
vn 0.1310055 0 0.9913817

vt 0.04656982 0.8208008
vt 0.0501709 0.8208008
vt 0.0501709 0.8266602
vt 0.04656982 0.8266602
vt 0.1264648 0.6264648
vt 0.1300049 0.6264648
vt 0.1300049 0.6323242
vt 0.1300049 0.6323242
vt 0.1264648 0.6323242
vt 0.06671143 0.8193359
vt 0.0703125 0.8193359
vt 0.0703125 0.8251953
vt 0.06671143 0.8251953
vt 0.1037598 0.7216797
vt 0.1073608 0.7216797
vt 0.1073608 0.7275391
vt 0.1037598 0.7275391
vt 0.1074829 0.7216797
vt 0.111084 0.7216797
vt 0.111084 0.7275391
vt 0.1074829 0.7275391
vt 0.04656982 0.8208008
vt 0.0501709 0.8208008
vt 0.0501709 0.8266602
vt 0.04656982 0.8266602
vt 0.1264648 0.6264648
vt 0.1300049 0.6264648
vt 0.1300049 0.6323242
vt 0.1264648 0.6323242
vt 0.06671143 0.8193359
vt 0.0703125 0.8193359
vt 0.0703125 0.8251953
vt 0.06671143 0.8251953
vt 0.1037598 0.7216797
vt 0.1073608 0.7216797
vt 0.1073608 0.7275391
vt 0.1037598 0.7275391
vt 0.1074829 0.7216797
vt 0.111084 0.7216797
vt 0.111084 0.7275391
vt 0.1074829 0.7275391
vt 0.04656982 0.8208008
vt 0.0501709 0.8208008
vt 0.0501709 0.8266602
vt 0.04656982 0.8266602
vt 0.1264648 0.6264648
vt 0.1300049 0.6264648
vt 0.1300049 0.6323242
vt 0.1264648 0.6323242
vt 0.06671143 0.8193359
vt 0.0703125 0.8193359
vt 0.0703125 0.8251953
vt 0.06671143 0.8251953
vt 0.1037598 0.7216797
vt 0.1073608 0.7216797
vt 0.1073608 0.7275391
vt 0.1037598 0.7275391
vt 0.1074829 0.7216797
vt 0.111084 0.7216797
vt 0.111084 0.7275391
vt 0.1074829 0.7216797
vt 0.1074829 0.7275391
vt 0.04656982 0.8208008
vt 0.0501709 0.8208008
vt 0.0501709 0.8266602
vt 0.04656982 0.8266602
vt 0.1264648 0.6264648
vt 0.1300049 0.6264648
vt 0.1300049 0.6323242
vt 0.1264648 0.6323242
vt 0.06671143 0.8193359
vt 0.0703125 0.8193359
vt 0.0703125 0.8251953
vt 0.06671143 0.8251953
vt 0.1037598 0.7216797
vt 0.1073608 0.7216797
vt 0.1073608 0.7275391
vt 0.1037598 0.7275391
vt 0.1074829 0.7216797
vt 0.111084 0.7216797
vt 0.111084 0.7275391
vt 0.1074829 0.7275391
vt 0.04656982 0.8208008
vt 0.0501709 0.8208008
vt 0.0501709 0.8266602
vt 0.04656982 0.8266602
vt 0.1264648 0.6264648
vt 0.1300049 0.6264648
vt 0.1300049 0.6323242
vt 0.1264648 0.6264648
vt 0.1264648 0.6323242
vt 0.06671143 0.8193359
vt 0.0703125 0.8193359
vt 0.0703125 0.8251953
vt 0.06671143 0.8251953
vt 0.1037598 0.7216797
vt 0.1073608 0.7216797
vt 0.1073608 0.7275391
vt 0.1037598 0.7275391
vt 0.1074829 0.7216797
vt 0.111084 0.7216797
vt 0.111084 0.7275391
vt 0.1074829 0.7275391
vt 0.04656982 0.8208008
vt 0.0501709 0.8208008
vt 0.0501709 0.8266602
vt 0.04656982 0.8266602
vt 0.1264648 0.6264648
vt 0.1300049 0.6264648
vt 0.1300049 0.6323242
vt 0.1264648 0.6323242
vt 0.06671143 0.8193359
vt 0.0703125 0.8193359
vt 0.0703125 0.8251953
vt 0.06671143 0.8251953
vt 0.1037598 0.7216797
vt 0.1073608 0.7216797
vt 0.1073608 0.7275391
vt 0.1037598 0.7275391
vt 0.1074829 0.7216797
vt 0.111084 0.7216797
vt 0.111084 0.7275391
vt 0.1074829 0.7275391
vt 0.04656982 0.8208008
vt 0.0501709 0.8208008
vt 0.0501709 0.8266602
vt 0.04656982 0.8266602
vt 0.1264648 0.6264648
vt 0.1300049 0.6264648
vt 0.1300049 0.6323242
vt 0.1264648 0.6264648
vt 0.1300049 0.6323242
vt 0.1264648 0.6323242
vt 0.06671143 0.8193359
vt 0.0703125 0.8193359
vt 0.0703125 0.8251953
vt 0.06671143 0.8193359
vt 0.06671143 0.8251953
vt 0.1037598 0.7216797
vt 0.1073608 0.7216797
vt 0.1073608 0.7275391
vt 0.1037598 0.7216797
vt 0.1073608 0.7275391
vt 0.1037598 0.7275391
vt 0.1074829 0.7216797
vt 0.111084 0.7216797
vt 0.111084 0.7275391
vt 0.1074829 0.7275391

g rubble_03_(6)_687_175
usemtl rubble_03_(6)_687_175
usemap rubble_03_(6)_687_175
f 1/1/1 3/3/3 2/2/2
f 1/1/1 4/4/4 3/3/3
f 5/5/5 7/7/7 6/6/6
f 5/5/5 9/9/9 8/8/8
f 10/10/10 12/12/12 11/11/11
f 10/10/10 13/13/13 12/12/12
f 14/14/14 16/16/16 15/15/15
f 14/14/14 17/17/17 16/16/16
f 18/18/18 20/20/20 19/19/19
f 18/18/18 21/21/21 20/20/20
f 22/22/22 24/24/24 23/23/23
f 22/22/22 25/25/25 24/24/24
f 26/26/26 28/28/28 27/27/27
f 26/26/26 29/29/29 28/28/28
f 30/30/30 32/32/32 31/31/31
f 30/30/30 33/33/33 32/32/32
f 34/34/34 36/36/36 35/35/35
f 34/34/34 37/37/37 36/36/36
f 38/38/38 40/40/40 39/39/39
f 38/38/38 41/41/41 40/40/40
f 42/42/42 44/44/44 43/43/43
f 42/42/42 45/45/45 44/44/44
f 46/46/46 48/48/48 47/47/47
f 46/46/46 49/49/49 48/48/48
f 50/50/50 52/52/52 51/51/51
f 50/50/50 53/53/53 52/52/52
f 54/54/54 56/56/56 55/55/55
f 54/54/54 57/57/57 56/56/56
f 58/58/58 60/60/60 59/59/59
f 61/61/61 62/62/62 60/60/60
f 63/63/63 65/65/65 64/64/64
f 63/63/63 66/66/66 65/65/65
f 67/67/67 69/69/69 68/68/68
f 67/67/67 70/70/70 69/69/69
f 71/71/71 73/73/73 72/72/72
f 71/71/71 74/74/74 73/73/73
f 75/75/75 77/77/77 76/76/76
f 75/75/75 78/78/78 77/77/77
f 79/79/79 81/81/81 80/80/80
f 79/79/79 82/82/82 81/81/81
f 83/83/83 85/85/85 84/84/84
f 83/83/83 86/86/86 85/85/85
f 87/87/87 89/89/89 88/88/88
f 90/90/90 91/91/91 89/89/89
f 92/92/92 94/94/94 93/93/93
f 92/92/92 95/95/95 94/94/94
f 96/96/96 98/98/98 97/97/97
f 96/96/96 99/99/99 98/98/98
f 100/100/100 102/102/102 101/101/101
f 100/100/100 103/103/103 102/102/102
f 104/104/104 106/106/106 105/105/105
f 104/104/104 107/107/107 106/106/106
f 108/108/108 110/110/110 109/109/109
f 108/108/108 111/111/111 110/110/110
f 112/112/112 114/114/114 113/113/113
f 112/112/112 115/115/115 114/114/114
f 116/116/116 118/118/118 117/117/117
f 116/116/116 119/119/119 118/118/118
f 120/120/120 122/122/122 121/121/121
f 120/120/120 123/123/123 122/122/122
f 124/124/124 126/126/126 125/125/125
f 124/124/124 127/127/127 126/126/126
f 128/128/128 130/130/130 129/129/129
f 131/131/131 133/133/133 132/132/132
f 134/134/134 136/136/136 135/135/135
f 137/137/137 138/138/138 136/136/136
f 139/139/139 141/141/141 140/140/140
f 142/142/142 144/144/144 143/143/143
f 145/145/145 147/147/147 146/146/146
f 145/145/145 148/148/148 147/147/147
