#spool_02_(2)_452_110.obj

v 0.550469 0.1645088 -0.5504726
v 0.550469 1.957566 -0.5504726
v -1.052619E-06 1.957566 -0.7784853
v -1.052619E-06 0.1645088 -0.7784853
v -1.052619E-06 0.1645088 -0.7784853
v -1.052619E-06 1.957566 -0.7784853
v -0.5504714 1.957566 -0.5504727
v -0.5504714 0.1645088 -0.5504727
v -0.5504714 0.1645088 -0.5504727
v -0.5504714 1.957566 -0.5504727
v -0.7784825 1.957566 -1.6866E-06
v -0.7784825 0.1645088 -1.6866E-06
v -0.7784825 0.1645088 -1.6866E-06
v -0.7784825 1.957566 -1.6866E-06
v -0.5504707 1.957566 0.5504681
v -0.5504707 0.1645088 0.5504681
v -0.5504707 0.1645088 0.5504681
v -0.5504707 1.957566 0.5504681
v -6.813285E-07 1.957566 0.7784809
v -6.813285E-07 0.1645088 0.7784809
v -6.813285E-07 0.1645088 0.7784809
v -6.813285E-07 1.957566 0.7784809
v 0.5504696 1.957566 0.5504683
v 0.5504696 0.1645088 0.5504683
v 0.5504696 0.1645088 0.5504683
v 0.5504696 1.957566 0.5504683
v 0.7784808 1.957566 -2.755335E-06
v 0.7784808 0.1645088 -2.755335E-06
v 0.7784808 0.1645088 -2.755335E-06
v 0.7784808 1.957566 -2.755335E-06
v 0.550469 1.957566 -0.5504726
v 0.550469 0.1645088 -0.5504726
v 0.8211621 1.892506 -0.8211637
v 0.8211621 2.120993 -0.8211637
v 1.574702E-07 2.120993 -1.161302
v 1.574702E-07 1.892506 -1.161302
v 1.574702E-07 1.892506 -1.161302
v 1.574702E-07 2.120993 -1.161302
v -0.8211629 2.120993 -0.8211644
v -0.8211629 1.892506 -0.8211644
v -0.8211629 1.892506 -0.8211644
v -0.8211629 2.120993 -0.8211644
v -1.161301 2.120993 -2.686266E-06
v -1.161301 1.892506 -2.686266E-06
v -1.161301 1.892506 -2.686266E-06
v -1.161301 2.120993 -2.686266E-06
v -0.8211638 2.120993 0.8211593
v -0.8211638 1.892506 0.8211593
v -0.8211638 1.892506 0.8211593
v -0.8211638 2.120993 0.8211593
v -1.891418E-06 2.120993 1.161297
v -1.891418E-06 1.892506 1.161297
v -1.891418E-06 1.892506 1.161297
v -1.891418E-06 2.120993 1.161297
v 0.8211612 2.120993 0.8211599
v 0.8211612 1.892506 0.8211599
v 0.8211612 1.892506 0.8211599
v 0.8211612 2.120993 0.8211599
v 1.1613 2.120993 -1.75567E-06
v 1.1613 1.892506 -1.75567E-06
v 1.1613 1.892506 -1.75567E-06
v 1.1613 2.120993 -1.75567E-06
v 0.8211621 2.120993 -0.8211637
v 0.8211621 1.892506 -0.8211637
v 1.574702E-07 1.892506 -1.161302
v -8.66974E-07 1.892506 -2.220968E-06
v 0.8211621 1.892506 -0.8211637
v -0.8211629 1.892506 -0.8211644
v -1.161301 1.892506 -2.686266E-06
v -0.8211638 1.892506 0.8211593
v -1.891418E-06 1.892506 1.161297
v 0.8211612 1.892506 0.8211599
v 1.1613 1.892506 -1.75567E-06
v 0.8211621 2.120993 -0.8211637
v -8.66974E-07 2.120993 -2.220968E-06
v 1.574702E-07 2.120993 -1.161302
v -0.8211629 2.120993 -0.8211644
v -1.161301 2.120993 -2.686266E-06
v -0.8211638 2.120993 0.8211593
v -1.891418E-06 2.120993 1.161297
v 0.8211612 2.120993 0.8211599
v 1.1613 2.120993 -1.75567E-06
v 0.8211621 0 -0.8211637
v 0.8211621 0.228487 -0.8211637
v 1.574702E-07 0.228487 -1.161302
v 1.574702E-07 0 -1.161302
v 1.574702E-07 0 -1.161302
v 1.574702E-07 0.228487 -1.161302
v -0.8211629 0.228487 -0.8211644
v -0.8211629 0 -0.8211644
v -0.8211629 0 -0.8211644
v -0.8211629 0.228487 -0.8211644
v -1.161301 0.228487 -2.686266E-06
v -1.161301 0 -2.686266E-06
v -1.161301 0 -2.686266E-06
v -1.161301 0.228487 -2.686266E-06
v -0.8211638 0.228487 0.8211593
v -0.8211638 0 0.8211593
v -0.8211638 0 0.8211593
v -0.8211638 0.228487 0.8211593
v -1.891418E-06 0.228487 1.161297
v -1.891418E-06 0 1.161297
v -1.891418E-06 0 1.161297
v -1.891418E-06 0.228487 1.161297
v 0.8211612 0.228487 0.8211599
v 0.8211612 0 0.8211599
v 0.8211612 0 0.8211599
v 0.8211612 0.228487 0.8211599
v 1.1613 0.228487 -1.75567E-06
v 1.1613 0 -1.75567E-06
v 1.1613 0 -1.75567E-06
v 1.1613 0.228487 -1.75567E-06
v 0.8211621 0.228487 -0.8211637
v 0.8211621 0 -0.8211637
v 1.574702E-07 0 -1.161302
v -8.66974E-07 0 -2.220968E-06
v 0.8211621 0 -0.8211637
v -0.8211629 0 -0.8211644
v -1.161301 0 -2.686266E-06
v -0.8211638 0 0.8211593
v -1.891418E-06 0 1.161297
v 0.8211612 0 0.8211599
v 1.1613 0 -1.75567E-06
v 0.8211621 0.228487 -0.8211637
v -8.66974E-07 0.228487 -2.220968E-06
v 1.574702E-07 0.228487 -1.161302
v -0.8211629 0.228487 -0.8211644
v -1.161301 0.228487 -2.686266E-06
v -0.8211638 0.228487 0.8211593
v -1.891418E-06 0.228487 1.161297
v 0.8211612 0.228487 0.8211599
v 1.1613 0.228487 -1.75567E-06

vn 0.9868376 0 -0.1617147
vn 0.9868376 0 -0.1617147
vn 0.9868376 0 -0.1617147
vn 0.9868376 0 -0.1617147
vn 0.5834486 0 -0.8121501
vn 0.5834486 0 -0.8121501
vn 0.5834486 0 -0.8121501
vn 0.5834486 0 -0.8121501
vn -0.1617147 0 -0.9868376
vn -0.1617147 0 -0.9868376
vn -0.1617147 0 -0.9868376
vn -0.1617147 0 -0.9868376
vn -0.8121501 0 -0.5834486
vn -0.8121501 0 -0.5834486
vn -0.8121501 0 -0.5834486
vn -0.8121501 0 -0.5834486
vn -0.9868376 0 0.1617147
vn -0.9868376 0 0.1617147
vn -0.9868376 0 0.1617147
vn -0.9868376 0 0.1617147
vn -0.5834486 0 0.8121501
vn -0.5834486 0 0.8121501
vn -0.5834486 0 0.8121501
vn -0.5834486 0 0.8121501
vn 0.1617147 0 0.9868376
vn 0.1617147 0 0.9868376
vn 0.1617147 0 0.9868376
vn 0.1617147 0 0.9868376
vn 0.8121501 0 0.5834486
vn 0.8121501 0 0.5834486
vn 0.8121501 0 0.5834486
vn 0.8121501 0 0.5834486
vn 0.9868377 0 -0.1617136
vn 0.9868377 0 -0.1617136
vn 0.9868377 0 -0.1617136
vn 0.9868377 0 -0.1617136
vn 0.5834477 0 -0.8121507
vn 0.5834477 0 -0.8121507
vn 0.5834477 0 -0.8121507
vn 0.5834477 0 -0.8121507
vn -0.1617136 0 -0.9868377
vn -0.1617136 0 -0.9868377
vn -0.1617136 0 -0.9868377
vn -0.1617136 0 -0.9868377
vn -0.8121507 0 -0.5834477
vn -0.8121507 0 -0.5834477
vn -0.8121507 0 -0.5834477
vn -0.8121507 0 -0.5834477
vn -0.9868377 0 0.1617136
vn -0.9868377 0 0.1617136
vn -0.9868377 0 0.1617136
vn -0.9868377 0 0.1617136
vn -0.5834477 0 0.8121507
vn -0.5834477 0 0.8121507
vn -0.5834477 0 0.8121507
vn -0.5834477 0 0.8121507
vn 0.1617136 0 0.9868377
vn 0.1617136 0 0.9868377
vn 0.1617136 0 0.9868377
vn 0.1617136 0 0.9868377
vn 0.8121507 0 0.5834477
vn 0.8121507 0 0.5834477
vn 0.8121507 0 0.5834477
vn 0.8121507 0 0.5834477
vn 0 -1 0
vn 0 -1 0
vn 0 -1 0
vn 0 -1 0
vn 0 -1 0
vn 0 -1 0
vn 0 -1 0
vn 0 -1 0
vn 0 -1 0
vn 0 1 0
vn 0 1 0
vn 0 1 0
vn 0 1 0
vn 0 1 0
vn 0 1 0
vn 0 1 0
vn 0 1 0
vn 0 1 0
vn 0.9868377 0 -0.1617137
vn 0.9868377 0 -0.1617137
vn 0.9868377 0 -0.1617137
vn 0.9868377 0 -0.1617137
vn 0.5834478 0 -0.8121507
vn 0.5834478 0 -0.8121507
vn 0.5834478 0 -0.8121507
vn 0.5834478 0 -0.8121507
vn -0.1617137 0 -0.9868377
vn -0.1617137 0 -0.9868377
vn -0.1617137 0 -0.9868377
vn -0.1617137 0 -0.9868377
vn -0.8121507 0 -0.5834478
vn -0.8121507 0 -0.5834478
vn -0.8121507 0 -0.5834478
vn -0.8121507 0 -0.5834478
vn -0.9868377 0 0.1617137
vn -0.9868377 0 0.1617137
vn -0.9868377 0 0.1617137
vn -0.9868377 0 0.1617137
vn -0.5834478 0 0.8121507
vn -0.5834478 0 0.8121507
vn -0.5834478 0 0.8121507
vn -0.5834478 0 0.8121507
vn 0.1617137 0 0.9868377
vn 0.1617137 0 0.9868377
vn 0.1617137 0 0.9868377
vn 0.1617137 0 0.9868377
vn 0.8121507 0 0.5834478
vn 0.8121507 0 0.5834478
vn 0.8121507 0 0.5834478
vn 0.8121507 0 0.5834478
vn 0 -1 0
vn 0 -1 0
vn 0 -1 0
vn 0 -1 0
vn 0 -1 0
vn 0 -1 0
vn 0 -1 0
vn 0 -1 0
vn 0 -1 0
vn 0 1 0
vn 0 1 0
vn 0 1 0
vn 0 1 0
vn 0 1 0
vn 0 1 0
vn 0 1 0
vn 0 1 0
vn 0 1 0

vt 0.9609375 0.8227539
vt 0.9609375 0.8442383
vt 0.9628906 0.8442383
vt 0.9628906 0.8227539
vt 0.9760742 0.7368164
vt 0.9760742 0.7587891
vt 0.9780273 0.7587891
vt 0.9780273 0.7368164
vt 0.9702148 0.8398438
vt 0.9702148 0.8618164
vt 0.972168 0.8618164
vt 0.972168 0.8398438
vt 0.9609375 0.9331055
vt 0.9609375 0.9550781
vt 0.9624023 0.9550781
vt 0.9624023 0.9331055
vt 0.9682617 0.8227539
vt 0.9682617 0.8442383
vt 0.9702148 0.8442383
vt 0.9702148 0.8227539
vt 0.9833984 0.7368164
vt 0.9833984 0.7587891
vt 0.9853516 0.7587891
vt 0.9853516 0.7368164
vt 0.9775391 0.8398438
vt 0.9775391 0.8618164
vt 0.9794922 0.8618164
vt 0.9794922 0.8398438
vt 0.9677734 0.9331055
vt 0.9677734 0.9550781
vt 0.9697266 0.9550781
vt 0.9697266 0.9331055
vt 0.7358398 0.9194336
vt 0.7358398 0.9296875
vt 0.7368164 0.9296875
vt 0.7368164 0.9194336
vt 0.9179688 0.9799805
vt 0.9179688 0.9902344
vt 0.9189453 0.9902344
vt 0.9189453 0.9799805
vt 0.737793 0.9194336
vt 0.737793 0.9296875
vt 0.7382813 0.9296875
vt 0.7382813 0.9194336
vt 0.7338867 0.8535156
vt 0.7338867 0.8637695
vt 0.7348633 0.8637695
vt 0.7348633 0.8535156
vt 0.7392578 0.9194336
vt 0.7392578 0.9296875
vt 0.7402344 0.9296875
vt 0.7402344 0.9194336
vt 0.9213867 0.9799805
vt 0.9213867 0.9902344
vt 0.9223633 0.9902344
vt 0.9223633 0.9799805
vt 0.7412109 0.9194336
vt 0.7412109 0.9296875
vt 0.7416992 0.9296875
vt 0.7416992 0.9194336
vt 0.7373047 0.8535156
vt 0.7373047 0.8637695
vt 0.7382813 0.8637695
vt 0.7382813 0.8535156
vt 0.8320313 0.8432617
vt 0.8320313 0.8579102
vt 0.8432617 0.8476563
vt 0.8212891 0.8476563
vt 0.8164063 0.8588867
vt 0.8212891 0.8696289
vt 0.8320313 0.8745117
vt 0.8432617 0.8696289
vt 0.8476563 0.8588867
vt 0.8564453 0.6611328
vt 0.7880859 0.5888672
vt 0.7880859 0.6894531
vt 0.7197266 0.6611328
vt 0.6914063 0.5927734
vt 0.7197266 0.5244141
vt 0.7880859 0.4960938
vt 0.8564453 0.5244141
vt 0.8847656 0.5927734
vt 0.7358398 0.9194336
vt 0.7358398 0.9296875
vt 0.7368164 0.9296875
vt 0.7368164 0.9194336
vt 0.9179688 0.9799805
vt 0.9179688 0.9902344
vt 0.9189453 0.9902344
vt 0.9189453 0.9799805
vt 0.737793 0.9194336
vt 0.737793 0.9296875
vt 0.7382813 0.9296875
vt 0.7382813 0.9194336
vt 0.7338867 0.8535156
vt 0.7338867 0.8637695
vt 0.7348633 0.8637695
vt 0.7348633 0.8535156
vt 0.7392578 0.9194336
vt 0.7392578 0.9296875
vt 0.7402344 0.9296875
vt 0.7402344 0.9194336
vt 0.9213867 0.9799805
vt 0.9213867 0.9902344
vt 0.9223633 0.9902344
vt 0.9223633 0.9799805
vt 0.7412109 0.9194336
vt 0.7412109 0.9296875
vt 0.7416992 0.9296875
vt 0.7416992 0.9194336
vt 0.7373047 0.8535156
vt 0.7373047 0.8637695
vt 0.7382813 0.8637695
vt 0.7382813 0.8535156
vt 0.7880859 0.4963379
vt 0.7880859 0.5888672
vt 0.8564453 0.5244141
vt 0.7197266 0.5244141
vt 0.6914063 0.5927734
vt 0.7197266 0.6611328
vt 0.7880859 0.6894531
vt 0.8564453 0.6611328
vt 0.8847656 0.5927734
vt 0.8432617 0.8696289
vt 0.8320313 0.8579102
vt 0.8320313 0.8745117
vt 0.8212891 0.8696289
vt 0.8164063 0.8588867
vt 0.8212891 0.8476563
vt 0.8320313 0.8432617
vt 0.8432617 0.8476563
vt 0.8476563 0.8588867

g spool_02_(2)_452_110
usemtl spool_02_(2)_452_110
usemap spool_02_(2)_452_110
f 1/1/1 3/3/3 2/2/2
f 1/1/1 4/4/4 3/3/3
f 5/5/5 7/7/7 6/6/6
f 5/5/5 8/8/8 7/7/7
f 9/9/9 11/11/11 10/10/10
f 9/9/9 12/12/12 11/11/11
f 13/13/13 15/15/15 14/14/14
f 13/13/13 16/16/16 15/15/15
f 17/17/17 19/19/19 18/18/18
f 17/17/17 20/20/20 19/19/19
f 21/21/21 23/23/23 22/22/22
f 21/21/21 24/24/24 23/23/23
f 25/25/25 27/27/27 26/26/26
f 25/25/25 28/28/28 27/27/27
f 29/29/29 31/31/31 30/30/30
f 29/29/29 32/32/32 31/31/31
f 33/33/33 35/35/35 34/34/34
f 33/33/33 36/36/36 35/35/35
f 37/37/37 39/39/39 38/38/38
f 37/37/37 40/40/40 39/39/39
f 41/41/41 43/43/43 42/42/42
f 41/41/41 44/44/44 43/43/43
f 45/45/45 47/47/47 46/46/46
f 45/45/45 48/48/48 47/47/47
f 49/49/49 51/51/51 50/50/50
f 49/49/49 52/52/52 51/51/51
f 53/53/53 55/55/55 54/54/54
f 53/53/53 56/56/56 55/55/55
f 57/57/57 59/59/59 58/58/58
f 57/57/57 60/60/60 59/59/59
f 61/61/61 63/63/63 62/62/62
f 61/61/61 64/64/64 63/63/63
f 65/65/65 67/67/67 66/66/66
f 68/68/68 65/65/65 66/66/66
f 69/69/69 68/68/68 66/66/66
f 70/70/70 69/69/69 66/66/66
f 71/71/71 70/70/70 66/66/66
f 72/72/72 71/71/71 66/66/66
f 73/73/73 72/72/72 66/66/66
f 67/67/67 73/73/73 66/66/66
f 74/74/74 76/76/76 75/75/75
f 76/76/76 77/77/77 75/75/75
f 77/77/77 78/78/78 75/75/75
f 78/78/78 79/79/79 75/75/75
f 79/79/79 80/80/80 75/75/75
f 80/80/80 81/81/81 75/75/75
f 81/81/81 82/82/82 75/75/75
f 82/82/82 74/74/74 75/75/75
f 83/83/83 85/85/85 84/84/84
f 83/83/83 86/86/86 85/85/85
f 87/87/87 89/89/89 88/88/88
f 87/87/87 90/90/90 89/89/89
f 91/91/91 93/93/93 92/92/92
f 91/91/91 94/94/94 93/93/93
f 95/95/95 97/97/97 96/96/96
f 95/95/95 98/98/98 97/97/97
f 99/99/99 101/101/101 100/100/100
f 99/99/99 102/102/102 101/101/101
f 103/103/103 105/105/105 104/104/104
f 103/103/103 106/106/106 105/105/105
f 107/107/107 109/109/109 108/108/108
f 107/107/107 110/110/110 109/109/109
f 111/111/111 113/113/113 112/112/112
f 111/111/111 114/114/114 113/113/113
f 115/115/115 117/117/117 116/116/116
f 118/118/118 115/115/115 116/116/116
f 119/119/119 118/118/118 116/116/116
f 120/120/120 119/119/119 116/116/116
f 121/121/121 120/120/120 116/116/116
f 122/122/122 121/121/121 116/116/116
f 123/123/123 122/122/122 116/116/116
f 117/117/117 123/123/123 116/116/116
f 124/124/124 126/126/126 125/125/125
f 126/126/126 127/127/127 125/125/125
f 127/127/127 128/128/128 125/125/125
f 128/128/128 129/129/129 125/125/125
f 129/129/129 130/130/130 125/125/125
f 130/130/130 131/131/131 125/125/125
f 131/131/131 132/132/132 125/125/125
f 132/132/132 124/124/124 125/125/125
