#tank_stop_(1)_692_111.obj

v 0.04862022 2.130001 0.212532
v 0.04858494 1.806042 0.2123795
v -0.04858589 1.806042 0.2123795
v -0.04862118 2.130001 0.212532
v -0.04858589 2.024477 -0.1198273
v -0.04858589 2.024477 0.1198196
v 0.04858494 2.024477 0.1198196
v 0.04858494 2.024477 -0.1198273
v 0.04862022 2.130001 0.212532
v -0.04862118 2.130001 0.212532
v -0.04862118 2.130001 -0.212532
v 0.04862022 2.130001 -0.212532
v -0.04858589 2.024477 0.1198196
v -0.04858589 1.806042 0.1198196
v 0.04858494 1.806042 0.1198196
v 0.04858494 2.024477 0.1198196
v 0.04862022 2.130001 -0.212532
v 0.04858494 2.024477 -0.1198273
v 0.04858494 2.024477 0.1198196
v 0.04862022 2.130001 0.212532
v 0.04858494 1.806042 0.2123795
v 0.04858494 1.806042 0.1198196
v 0.04858494 1.806042 -0.1198273
v 0.04858494 1.806042 -0.2123795
v 0.04858494 2.024477 -0.1198273
v 0.04858494 1.806042 -0.1198273
v -0.04858589 1.806042 -0.1198273
v -0.04858589 2.024477 -0.1198273
v -0.04862118 2.130001 -0.212532
v -0.04858589 2.024477 -0.1198273
v -0.04858589 1.806042 -0.1198273
v -0.04862118 2.130001 -0.212532
v -0.04858589 1.806042 -0.1198273
v -0.04858589 1.806042 -0.2123795
v -0.04862118 2.130001 0.212532
v -0.04858589 2.024477 0.1198196
v -0.04858589 1.806042 0.1198196
v -0.04858589 1.806042 0.2123795
v -0.04858589 2.024477 -0.1198273
v 0.04862022 2.130001 -0.212532
v -0.04862118 2.130001 -0.212532
v -0.04858589 1.806042 -0.2123795
v 0.04858494 1.806042 -0.2123795
v -0.2635441 1.724599 0.2635422
v -0.2637367 1.840116 0.2637329
v 0.2637367 1.840116 0.2637329
v 0.2635441 1.724599 0.2635422
v -0.2637367 1.840116 0.2637329
v -0.2637367 1.840116 -0.2637329
v 0.2637367 1.840116 -0.2637329
v 0.2637367 1.840116 0.2637329
v -0.2637367 1.840116 -0.2637329
v -0.2635441 1.724599 -0.2635422
v 0.2635441 1.724599 -0.2635422
v 0.2637367 1.840116 -0.2637329
v -0.2635441 1.724599 -0.2635422
v -0.2635441 1.724599 0.2635422
v 0.2635441 1.724599 0.2635422
v 0.2635441 1.724599 -0.2635422
v 0.2635441 1.724599 0.2635422
v 0.2637367 1.840116 0.2637329
v 0.2637367 1.840116 -0.2637329
v 0.2635441 1.724599 -0.2635422
v -0.2635441 1.724599 -0.2635422
v -0.2637367 1.840116 -0.2637329
v -0.2637367 1.840116 0.2637329
v -0.2635441 1.724599 0.2635422
v -0.8651371 0 0.8651352
v -0.321949 1.730274 0.3219528
v 0.321949 1.730274 0.3219528
v 0.8651371 0 0.8651352
v -0.321949 1.730274 0.3219528
v -0.321949 1.730274 -0.3219528
v 0.321949 1.730274 -0.3219528
v 0.321949 1.730274 0.3219528
v -0.321949 1.730274 -0.3219528
v -0.8651371 0 -0.8651352
v 0.8651371 0 -0.8651352
v 0.321949 1.730274 -0.3219528
v -0.8651371 0 -0.8651352
v -0.8651371 0 0.8651352
v 0.8651371 0 0.8651352
v 0.8651371 0 -0.8651352
v 0.8651371 0 0.8651352
v 0.321949 1.730274 0.3219528
v 0.321949 1.730274 -0.3219528
v 0.8651371 0 -0.8651352
v -0.8651371 0 -0.8651352
v -0.321949 1.730274 -0.3219528
v -0.321949 1.730274 0.3219528
v -0.8651371 0 0.8651352

vn 0 -0.0004744134 0.9999999
vn 0 -0.0004744134 0.9999999
vn 0 -0.0004744134 0.9999999
vn 0 -0.0004744134 0.9999999
vn 0 -1 0
vn 0 -1 0
vn 0 -1 0
vn 0 -1 0
vn 0 1 0
vn 0 1 0
vn 0 1 0
vn 0 1 0
vn 0 0 -1
vn 0 0 -1
vn 0 0 -1
vn 0 0 -1
vn 1 -0.0001677061 0
vn 1 -0.0001677061 0
vn 1 -0.0001677061 0
vn 1 -0.0001677061 0
vn 1 0 0
vn 1 0 0
vn 1 0 0
vn 1 0 0
vn 0 0 1
vn 0 0 1
vn 0 0 1
vn 0 0 1
vn -1 -0.0001662763 0
vn -1 -0.0001662763 0
vn -1 0 0
vn -1 -0.0001662763 0
vn -1 0 0
vn -1 0 0
vn -1 -0.0001662763 0
vn -1 -0.0001662763 0
vn -1 0 0
vn -1 0 0
vn -1 -0.0001662763 0
vn 0 -0.0004743674 -0.9999999
vn 0 -0.0004743674 -0.9999999
vn 0 -0.0004743674 -0.9999999
vn 0 -0.0004743674 -0.9999999
vn 0 -0.0016656 0.9999986
vn 0 -0.0016656 0.9999986
vn 0 -0.0016656 0.9999986
vn 0 -0.0016656 0.9999986
vn 0 1 0
vn 0 1 0
vn 0 1 0
vn 0 1 0
vn 0 -0.0016656 -0.9999986
vn 0 -0.0016656 -0.9999986
vn 0 -0.0016656 -0.9999986
vn 0 -0.0016656 -0.9999986
vn 0 -1 0
vn 0 -1 0
vn 0 -1 0
vn 0 -1 0
vn 0.9999986 -0.0016656 0
vn 0.9999986 -0.0016656 0
vn 0.9999986 -0.0016656 0
vn 0.9999986 -0.0016656 0
vn -0.9999986 -0.0016656 0
vn -0.9999986 -0.0016656 0
vn -0.9999986 -0.0016656 0
vn -0.9999986 -0.0016656 0
vn 0 0.2995192 0.9540902
vn 0 0.2995192 0.9540902
vn 0 0.2995192 0.9540902
vn 0 0.2995192 0.9540902
vn 0 1 0
vn 0 1 0
vn 0 1 0
vn 0 1 0
vn 0 0.2995192 -0.9540902
vn 0 0.2995192 -0.9540902
vn 0 0.2995192 -0.9540902
vn 0 0.2995192 -0.9540902
vn 0 -1 0
vn 0 -1 0
vn 0 -1 0
vn 0 -1 0
vn 0.9540902 0.2995193 0
vn 0.9540902 0.2995193 0
vn 0.9540902 0.2995193 0
vn 0.9540902 0.2995193 0
vn -0.9540902 0.2995193 0
vn -0.9540902 0.2995193 0
vn -0.9540902 0.2995193 0
vn -0.9540902 0.2995193 0

vt 0.3828125 0.25
vt 0.3828125 0
vt 0.3664551 0
vt 0.3664551 0.25
vt 0.3725586 0.4365234
vt 0.3725586 0.4621582
vt 0.3742676 0.4621582
vt 0.3742676 0.4365234
vt 0.375 0.8779297
vt 0.3710938 0.8779297
vt 0.3710938 0.9379883
vt 0.375 0.9379883
vt 0.3725586 0.3596191
vt 0.3725586 0.3596191
vt 0.3742676 0.3596191
vt 0.3742676 0.3596191
vt 0.3747559 0.6147461
vt 0.3747559 0.640625
vt 0.3747559 0.5634766
vt 0.3747559 0.5893555
vt 0.3747559 0.5634766
vt 0.3747559 0.5634766
vt 0.3747559 0.640625
vt 0.3747559 0.640625
vt 0.3742676 0.4365234
vt 0.3742676 0.4365234
vt 0.3725586 0.4365234
vt 0.3725586 0.4365234
vt 0.3730469 0.6147461
vt 0.3713379 0.5634766
vt 0.3730469 0.640625
vt 0.3730469 0.6147461
vt 0.3730469 0.640625
vt 0.3730469 0.640625
vt 0.3730469 0.5893555
vt 0.3730469 0.5634766
vt 0.3730469 0.5634766
vt 0.3730469 0.5634766
vt 0.3713379 0.5634766
vt 0.3754883 0.7163086
vt 0.3701172 0.7163086
vt 0.3701172 0.7973633
vt 0.3754883 0.7973633
vt 0.3789063 0.59375
vt 0.3789063 0.59375
vt 0.3786621 0.59375
vt 0.3786621 0.59375
vt 0.378418 0.9135742
vt 0.378418 0.9135742
vt 0.378418 0.9135742
vt 0.378418 0.9135742
vt 0.3789063 0.5932617
vt 0.3789063 0.5927734
vt 0.3786621 0.5927734
vt 0.3786621 0.5932617
vt 0.3793945 0.4042969
vt 0.3793945 0.4040527
vt 0.3793945 0.4040527
vt 0.3793945 0.4042969
vt 0.3793945 0.4055176
vt 0.3793945 0.4050293
vt 0.3793945 0.4050293
vt 0.3793945 0.4055176
vt 0.3793945 0.4055176
vt 0.3793945 0.4050293
vt 0.3793945 0.4050293
vt 0.3793945 0.4055176
vt 0.03372192 0.359375
vt 0.1169434 0.6245117
vt 0.2156982 0.6245117
vt 0.2988281 0.359375
vt 0.1279297 0.8051758
vt 0.1279297 0.9052734
vt 0.2276611 0.9052734
vt 0.2276611 0.8051758
vt 0.2161865 0.6279297
vt 0.2993164 0.3625488
vt 0.03421021 0.3625488
vt 0.1174927 0.6279297
vt 0.7011719 0.3562012
vt 0.7011719 0.6181641
vt 0.9633789 0.6181641
vt 0.9633789 0.3562012
vt 0.7036133 0.6875
vt 0.7885742 0.9575195
vt 0.8891602 0.9575195
vt 0.9736328 0.6875
vt 0.7011719 0.6875
vt 0.7861328 0.9575195
vt 0.8867188 0.9575195
vt 0.9716797 0.6875

g tank_stop_(1)_692_111
usemtl tank_stop_(1)_692_111
usemap tank_stop_(1)_692_111
f 1/1/1 3/3/3 2/2/2
f 1/1/1 4/4/4 3/3/3
f 5/5/5 7/7/7 6/6/6
f 5/5/5 8/8/8 7/7/7
f 9/9/9 11/11/11 10/10/10
f 9/9/9 12/12/12 11/11/11
f 13/13/13 15/15/15 14/14/14
f 13/13/13 16/16/16 15/15/15
f 17/17/17 19/19/19 18/18/18
f 17/17/17 20/20/20 19/19/19
f 19/19/19 20/20/20 21/21/21
f 19/19/19 21/21/21 22/22/22
f 17/17/17 18/18/18 23/23/23
f 17/17/17 23/23/23 24/24/24
f 25/25/25 27/27/27 26/26/26
f 25/25/25 28/28/28 27/27/27
f 29/29/29 31/31/31 30/30/30
f 32/32/32 34/34/34 33/33/33
f 32/32/32 36/36/36 35/35/35
f 35/35/35 36/36/36 37/37/37
f 35/35/35 37/37/37 38/38/38
f 32/32/32 39/39/39 36/36/36
f 40/40/40 42/42/42 41/41/41
f 40/40/40 43/43/43 42/42/42
f 44/44/44 46/46/46 45/45/45
f 44/44/44 47/47/47 46/46/46
f 48/48/48 50/50/50 49/49/49
f 48/48/48 51/51/51 50/50/50
f 52/52/52 54/54/54 53/53/53
f 52/52/52 55/55/55 54/54/54
f 56/56/56 58/58/58 57/57/57
f 56/56/56 59/59/59 58/58/58
f 60/60/60 62/62/62 61/61/61
f 60/60/60 63/63/63 62/62/62
f 64/64/64 66/66/66 65/65/65
f 64/64/64 67/67/67 66/66/66
f 68/68/68 70/70/70 69/69/69
f 68/68/68 71/71/71 70/70/70
f 72/72/72 74/74/74 73/73/73
f 72/72/72 75/75/75 74/74/74
f 76/76/76 78/78/78 77/77/77
f 76/76/76 79/79/79 78/78/78
f 80/80/80 82/82/82 81/81/81
f 80/80/80 83/83/83 82/82/82
f 84/84/84 86/86/86 85/85/85
f 84/84/84 87/87/87 86/86/86
f 88/88/88 90/90/90 89/89/89
f 88/88/88 91/91/91 90/90/90
