#wall_01_(12)_767_92.obj

v -2.360783 0.7157965 0.2676897
v -2.360783 4.551568 0.2676897
v 2.360783 4.551568 0.2676973
v 2.360783 0.7157965 0.2676973
v -2.360783 4.551568 0.2676897
v -2.360783 4.551568 -0.2677031
v 2.360783 4.551568 -0.2676954
v 2.360783 4.551568 0.2676973
v -2.360783 4.551568 -0.2677031
v -2.360783 0.7157965 -0.2677031
v 2.360783 0.7157965 -0.2676954
v 2.360783 4.551568 -0.2676954
v -2.360783 0.7157965 -0.2677031
v -2.360783 0.3346748 -0.7664518
v 2.360783 0.3346748 -0.7664442
v 2.360783 0.7157965 -0.2676954
v 2.360783 0.7157965 0.2676973
v 2.360783 0.3346748 0.7664461
v -2.360783 0.3346748 0.7664385
v -2.360783 0.7157965 0.2676897
v -2.360783 0.3346748 -0.7664518
v -2.360783 -1 -0.7664518
v 2.360783 -1 -0.7664442
v 2.360783 0.3346748 -0.7664442
v 2.360783 0.3346748 0.7664461
v 2.360783 -1 0.7664461
v -2.360783 -1 0.7664385
v -2.360783 0.3346748 0.7664385

vn -1 0 -1.192093E-07
vn -1 0 -1.192093E-07
vn -1 0 -1.192093E-07
vn -1 0 -1.192093E-07
vn 0 1 0
vn 0 1 0
vn 0 1 0
vn 0 1 0
vn 1 0 1.192093E-07
vn 1 0 1.192093E-07
vn 1 0 1.192093E-07
vn 1 0 1.192093E-07
vn 0.607172 0.7945704 7.238054E-08
vn 0.607172 0.7945704 7.238054E-08
vn 0.607172 0.7945704 7.238054E-08
vn 0.607172 0.7945704 7.238054E-08
vn -0.607174 0.794569 -7.238077E-08
vn -0.607174 0.794569 -7.238077E-08
vn -0.607174 0.794569 -7.238077E-08
vn -0.607174 0.794569 -7.238077E-08
vn 1 0 1.192093E-07
vn 1 0 1.192093E-07
vn 1 0 1.192093E-07
vn 1 0 1.192093E-07
vn -1 0 -1.192093E-07
vn -1 0 -1.192093E-07
vn -1 0 -1.192093E-07
vn -1 0 -1.192093E-07

vt 0.2636719 0.1499023
vt 0.2636719 0.2807617
vt 0.07000732 0.2736816
vt 0.07000732 0.1428223
vt 0.2636719 0.2807617
vt 0.2661133 0.2734375
vt 0.0723877 0.2666016
vt 0.07000732 0.2736816
vt 0.2661133 0.2734375
vt 0.2661133 0.1425781
vt 0.0723877 0.135498
vt 0.0723877 0.2666016
vt 0.2661133 0.1425781
vt 0.2683105 0.1227417
vt 0.074646 0.1157227
vt 0.0723877 0.135498
vt 0.07000732 0.1428223
vt 0.06781006 0.1367188
vt 0.2614746 0.1436768
vt 0.2636719 0.1499023
vt 0.2683105 0.1227417
vt 0.2683105 0.07714844
vt 0.074646 0.07012939
vt 0.074646 0.1157227
vt 0.06781006 0.1367188
vt 0.06781006 0.09112549
vt 0.2614746 0.0980835
vt 0.2614746 0.1436768

g wall_01_(12)_767_92
usemtl wall_01_(12)_767_92
usemap wall_01_(12)_767_92
f 1/1/1 3/3/3 2/2/2
f 1/1/1 4/4/4 3/3/3
f 5/5/5 7/7/7 6/6/6
f 5/5/5 8/8/8 7/7/7
f 9/9/9 11/11/11 10/10/10
f 9/9/9 12/12/12 11/11/11
f 13/13/13 15/15/15 14/14/14
f 13/13/13 16/16/16 15/15/15
f 17/17/17 19/19/19 18/18/18
f 17/17/17 20/20/20 19/19/19
f 21/21/21 23/23/23 22/22/22
f 21/21/21 24/24/24 23/23/23
f 25/25/25 27/27/27 26/26/26
f 25/25/25 28/28/28 27/27/27
