#wheel_fl1_462_52.obj

v 0.16581 0.6573421 -0.3795156
v -0.1658112 0.6573421 -0.3795156
v 0.16581 0.3795167 -0.6573362
v -0.1658112 0.3795167 -0.6573362
v 0.16581 0.3795167 -0.6573362
v -0.1658112 0.3795167 -0.6573362
v 0.16581 -8.34465E-07 -0.7590313
v -0.1658112 -8.34465E-07 -0.7590313
v 0.16581 -8.34465E-07 -0.7590313
v -0.1658112 -8.34465E-07 -0.7590313
v 0.16581 -0.3795174 -0.6573362
v -0.1658112 -0.3795174 -0.6573362
v 0.16581 -0.3795174 -0.6573362
v -0.1658112 -0.3795174 -0.6573362
v 0.16581 -0.6573428 -0.3795156
v -0.1658112 -0.6573428 -0.3795156
v 0.16581 -0.6573428 -0.3795156
v -0.1658112 -0.6573428 -0.3795156
v 0.16581 -0.759035 1.049042E-05
v -0.1658112 -0.759035 1.049042E-05
v 0.16581 -0.759035 1.049042E-05
v -0.1658112 -0.759035 1.049042E-05
v 0.16581 -0.6573428 0.3795176
v -0.1658112 -0.6573428 0.3795176
v 0.16581 -0.6573428 0.3795176
v -0.1658112 -0.6573428 0.3795176
v 0.16581 -0.3795174 0.6573477
v -0.1658112 -0.3795174 0.6573477
v 0.16581 -0.3795174 0.6573477
v -0.1658112 -0.3795174 0.6573477
v 0.16581 -8.34465E-07 0.7590322
v -0.1658112 -8.34465E-07 0.7590322
v 0.16581 -8.34465E-07 0.7590322
v -0.1658112 -8.34465E-07 0.7590322
v 0.16581 0.3795167 0.6573477
v -0.1658112 0.3795167 0.6573477
v 0.16581 0.3795167 0.6573477
v -0.1658112 0.3795167 0.6573477
v 0.16581 0.6573421 0.3795176
v -0.1658112 0.6573421 0.3795176
v 0.16581 0.6573421 0.3795176
v -0.1658112 0.6573421 0.3795176
v 0.16581 0.7590333 1.049042E-05
v -0.1658112 0.7590333 1.049042E-05
v 0.16581 0.7590333 1.049042E-05
v -0.1658112 0.7590333 1.049042E-05
v 0.16581 0.6573421 -0.3795156
v -0.1658112 0.6573421 -0.3795156
v -0.1658112 0.6573421 -0.3795156
v -0.1658112 -8.34465E-07 1.049042E-05
v -0.1658112 0.3795167 -0.6573362
v -0.1658112 -8.34465E-07 -0.7590313
v -0.1658112 -0.3795174 -0.6573362
v -0.1658112 -0.6573428 -0.3795156
v -0.1658112 -0.759035 1.049042E-05
v -0.1658112 -0.6573428 0.3795176
v -0.1658112 -0.3795174 0.6573477
v -0.1658112 -8.34465E-07 0.7590322
v -0.1658112 0.3795167 0.6573477
v -0.1658112 0.6573421 0.3795176
v -0.1658112 0.7590333 1.049042E-05
v 0.16581 0.3795167 -0.6573362
v 0.16581 -8.34465E-07 -0.7590313
v 0.16581 0.6573421 -0.3795156
v 0.16581 -0.3795174 -0.6573362
v 0.16581 -0.6573428 -0.3795156
v 0.16581 -0.759035 1.049042E-05
v 0.16581 -0.6573428 0.3795176
v 0.16581 -0.3795174 0.6573477
v 0.16581 -8.34465E-07 0.7590322
v 0.16581 0.3795167 0.6573477
v 0.16581 0.6573421 0.3795176
v 0.16581 0.7590333 1.049042E-05

vn 0 0.7071003 -0.7071133
vn 0 0.7071003 -0.7071133
vn 0 0.7071003 -0.7071133
vn 0 0.7071003 -0.7071133
vn 0 0.2588291 -0.9659231
vn 0 0.2588291 -0.9659231
vn 0 0.2588291 -0.9659231
vn 0 0.2588291 -0.9659231
vn 0 -0.2588291 -0.9659231
vn 0 -0.2588291 -0.9659231
vn 0 -0.2588291 -0.9659231
vn 0 -0.2588291 -0.9659231
vn 0 -0.7071006 -0.707113
vn 0 -0.7071006 -0.707113
vn 0 -0.7071006 -0.707113
vn 0 -0.7071006 -0.707113
vn 0 -0.9659272 -0.258814
vn 0 -0.9659272 -0.258814
vn 0 -0.9659272 -0.258814
vn 0 -0.9659272 -0.258814
vn 0 -0.9659236 0.2588272
vn 0 -0.9659236 0.2588272
vn 0 -0.9659236 0.2588272
vn 0 -0.9659236 0.2588272
vn 0 -0.707114 0.7070996
vn 0 -0.707114 0.7070996
vn 0 -0.707114 0.7070996
vn 0 -0.707114 0.7070996
vn 0 -0.2588036 0.96593
vn 0 -0.2588036 0.96593
vn 0 -0.2588036 0.96593
vn 0 -0.2588036 0.96593
vn 0 0.2588036 0.96593
vn 0 0.2588036 0.96593
vn 0 0.2588036 0.96593
vn 0 0.2588036 0.96593
vn 0 0.7071136 0.7071
vn 0 0.7071136 0.7071
vn 0 0.7071136 0.7071
vn 0 0.7071136 0.7071
vn 0 0.9659243 0.2588249
vn 0 0.9659243 0.2588249
vn 0 0.9659243 0.2588249
vn 0 0.9659243 0.2588249
vn 0 0.9659278 -0.2588117
vn 0 0.9659278 -0.2588117
vn 0 0.9659278 -0.2588117
vn 0 0.9659278 -0.2588117
vn -1 0 0
vn -1 0 0
vn -1 0 0
vn -1 0 0
vn -1 0 0
vn -1 0 0
vn -1 0 0
vn -1 0 0
vn -1 0 0
vn -1 0 0
vn -1 0 0
vn -1 0 0
vn -1 0 0
vn 1 0 0
vn 1 0 0
vn 1 0 0
vn 1 0 0
vn 1 0 0
vn 1 0 0
vn 1 0 0
vn 1 0 0
vn 1 0 0
vn 1 0 0
vn 1 0 0
vn 1 0 0

vt 0.1203613 0.2858887
vt 0.1203613 0.3012695
vt 0.1516113 0.2858887
vt 0.1516113 0.3012695
vt 0.1516113 0.2858887
vt 0.1516113 0.3012695
vt 0.1828613 0.2858887
vt 0.1828613 0.3012695
vt 0.1828613 0.2858887
vt 0.1828613 0.3012695
vt 0.2142334 0.2858887
vt 0.2142334 0.3012695
vt 0.2142334 0.2858887
vt 0.2142334 0.3012695
vt 0.2454834 0.2858887
vt 0.2454834 0.3012695
vt 0.2340088 0.296875
vt 0.2340088 0.28125
vt 0.2027588 0.296875
vt 0.2027588 0.28125
vt 0.2027588 0.296875
vt 0.2027588 0.28125
vt 0.1715088 0.296875
vt 0.1715088 0.28125
vt 0.1715088 0.296875
vt 0.1715088 0.28125
vt 0.1401367 0.296875
vt 0.1401367 0.28125
vt 0.2272949 0.3010254
vt 0.2272949 0.2854004
vt 0.1960449 0.3010254
vt 0.1960449 0.2854004
vt 0.1960449 0.3010254
vt 0.1960449 0.2854004
vt 0.1647949 0.3010254
vt 0.1647949 0.2854004
vt 0.1647949 0.3010254
vt 0.1647949 0.2854004
vt 0.1334229 0.3010254
vt 0.1334229 0.2854004
vt 0.1600342 0.2861328
vt 0.1600342 0.3015137
vt 0.1914063 0.2861328
vt 0.1914063 0.3015137
vt 0.1914063 0.2861328
vt 0.1914063 0.3015137
vt 0.2226563 0.2861328
vt 0.2226563 0.3015137
vt 0.07196045 0.2227783
vt 0.1617432 0.1329346
vt 0.03903198 0.1657715
vt 0.03903198 0.1000366
vt 0.07196045 0.04302979
vt 0.1289063 0.01015472
vt 0.1947021 0.01015472
vt 0.251709 0.04302979
vt 0.284668 0.1000366
vt 0.284668 0.1657715
vt 0.251709 0.2227783
vt 0.1947021 0.2556152
vt 0.1289063 0.2556152
vt 0.2841797 0.1656494
vt 0.2514648 0.2226563
vt 0.2841797 0.09991455
vt 0.194458 0.2556152
vt 0.1286621 0.2556152
vt 0.07165527 0.2226563
vt 0.03878784 0.1656494
vt 0.03878784 0.09991455
vt 0.07165527 0.04293823
vt 0.1286621 0.01006317
vt 0.194458 0.01006317
vt 0.2514648 0.04293823

g wheel_fl1_462_52
usemtl wheel_fl1_462_52
usemap wheel_fl1_462_52
f 1/1/1 3/3/3 2/2/2
f 2/2/2 3/3/3 4/4/4
f 5/5/5 7/7/7 6/6/6
f 6/6/6 7/7/7 8/8/8
f 9/9/9 11/11/11 10/10/10
f 10/10/10 11/11/11 12/12/12
f 13/13/13 15/15/15 14/14/14
f 14/14/14 15/15/15 16/16/16
f 17/17/17 19/19/19 18/18/18
f 18/18/18 19/19/19 20/20/20
f 21/21/21 23/23/23 22/22/22
f 22/22/22 23/23/23 24/24/24
f 25/25/25 27/27/27 26/26/26
f 26/26/26 27/27/27 28/28/28
f 29/29/29 31/31/31 30/30/30
f 30/30/30 31/31/31 32/32/32
f 33/33/33 35/35/35 34/34/34
f 34/34/34 35/35/35 36/36/36
f 37/37/37 39/39/39 38/38/38
f 38/38/38 39/39/39 40/40/40
f 41/41/41 43/43/43 42/42/42
f 42/42/42 43/43/43 44/44/44
f 45/45/45 47/47/47 46/46/46
f 46/46/46 47/47/47 48/48/48
f 49/49/49 51/51/51 50/50/50
f 51/51/51 52/52/52 50/50/50
f 52/52/52 53/53/53 50/50/50
f 53/53/53 54/54/54 50/50/50
f 54/54/54 55/55/55 50/50/50
f 55/55/55 56/56/56 50/50/50
f 56/56/56 57/57/57 50/50/50
f 57/57/57 58/58/58 50/50/50
f 58/58/58 59/59/59 50/50/50
f 59/59/59 60/60/60 50/50/50
f 60/60/60 61/61/61 50/50/50
f 61/61/61 49/49/49 50/50/50
f 62/62/62 64/64/64 63/63/63
f 63/63/63 64/64/64 65/65/65
f 65/65/65 64/64/64 66/66/66
f 66/66/66 64/64/64 67/67/67
f 67/67/67 64/64/64 68/68/68
f 68/68/68 64/64/64 69/69/69
f 69/69/69 64/64/64 70/70/70
f 70/70/70 64/64/64 71/71/71
f 71/71/71 64/64/64 72/72/72
f 72/72/72 64/64/64 73/73/73
