#wheel_rl_811_28.obj

v 0.2043883 0.6152053 -0.3551866
v -0.2043883 0.6152053 -0.3551879
v -0.2043908 0.3551889 -0.6152099
v 0.2043939 0.3551889 -0.6152111
v 0.2043939 0.3551889 -0.6152111
v -0.2043908 0.3551889 -0.6152099
v -0.2043898 5.960464E-08 -0.7103786
v 0.2043923 5.960464E-08 -0.7103826
v 0.2043923 5.960464E-08 -0.7103826
v -0.2043898 5.960464E-08 -0.7103786
v -0.2043908 -0.3551897 -0.6152099
v 0.2043939 -0.3551897 -0.6152111
v 0.2043939 -0.3551897 -0.6152111
v -0.2043908 -0.3551897 -0.6152099
v -0.2043883 -0.6152067 -0.3551879
v 0.2043883 -0.6152067 -0.3551866
v 0.2043883 -0.6152067 -0.3551866
v -0.2043883 -0.6152067 -0.3551879
v -0.2043865 -0.7103795 -7.969655E-06
v 0.20439 -0.7103795 -6.691468E-06
v 0.20439 -0.7103795 -6.691468E-06
v -0.2043865 -0.7103795 -7.969655E-06
v -0.2043905 -0.6152067 0.355188
v 0.2043942 -0.6152067 0.3551868
v 0.2043942 -0.6152067 0.3551868
v -0.2043905 -0.6152067 0.355188
v -0.2043906 -0.3551897 0.6152073
v 0.2043914 -0.3551897 0.6152033
v 0.2043914 -0.3551897 0.6152033
v -0.2043906 -0.3551897 0.6152073
v -0.204389 5.960464E-08 0.7103788
v 0.2043931 5.960464E-08 0.7103748
v 0.2043931 5.960464E-08 0.7103748
v -0.204389 5.960464E-08 0.7103788
v -0.2043906 0.3551889 0.6152073
v 0.2043914 0.3551889 0.6152033
v 0.2043914 0.3551889 0.6152033
v -0.2043906 0.3551889 0.6152073
v -0.2043905 0.6152053 0.355188
v 0.2043942 0.6152053 0.3551868
v 0.2043942 0.6152053 0.3551868
v -0.2043905 0.6152053 0.355188
v -0.2043865 0.7103787 -7.969655E-06
v 0.20439 0.7103787 -6.691468E-06
v 0.20439 0.7103787 -6.691468E-06
v -0.2043865 0.7103787 -7.969655E-06
v -0.2043883 0.6152053 -0.3551879
v 0.2043883 0.6152053 -0.3551866
v -0.2043883 0.6152053 -0.3551879
v -0.2043865 5.960464E-08 -7.969655E-06
v -0.2043908 0.3551889 -0.6152099
v -0.2043898 5.960464E-08 -0.7103786
v -0.2043908 -0.3551897 -0.6152099
v -0.2043883 -0.6152067 -0.3551879
v -0.2043865 -0.7103795 -7.969655E-06
v -0.2043905 -0.6152067 0.355188
v -0.2043906 -0.3551897 0.6152073
v -0.204389 5.960464E-08 0.7103788
v -0.2043906 0.3551889 0.6152073
v -0.2043905 0.6152053 0.355188
v -0.2043865 0.7103787 -7.969655E-06
v 0.2043883 0.6152053 -0.3551866
v 0.2043939 0.3551889 -0.6152111
v 0.20439 0.7103787 -6.691468E-06
v 0.2043942 -0.6152067 0.3551868
v 0.20439 -0.7103795 -6.691468E-06
v 0.2043914 -0.3551897 0.6152033
v 0.2043939 0.3551889 -0.6152111
v 0.20439 0.7103787 -6.691468E-06
v 0.2043939 0.3551889 -0.6152111
v 0.2043942 0.6152053 0.3551868
v 0.2043939 0.3551889 -0.6152111
v 0.2043914 0.3551889 0.6152033
v 0.2043939 0.3551889 -0.6152111
v 0.2043931 5.960464E-08 0.7103748
v 0.20439 -0.7103795 -6.691468E-06
v 0.2043883 -0.6152067 -0.3551866
v 0.2043931 5.960464E-08 0.7103748
v 0.2043939 0.3551889 -0.6152111
v 0.2043914 -0.3551897 0.6152033
v 0.2043883 -0.6152067 -0.3551866
v 0.2043939 0.3551889 -0.6152111
v 0.2043939 -0.3551897 -0.6152111
v 0.2043923 5.960464E-08 -0.7103826

vn -0.5096392 0.7071167 -0.4901569
vn -0.5096392 0.7071167 -0.4901569
vn -0.5096392 0.7071167 -0.4901569
vn -0.5096392 0.7071167 -0.4901569
vn -0.6961913 0.2588119 -0.6695775
vn -0.6961913 0.2588119 -0.6695775
vn -0.6961913 0.2588119 -0.6695775
vn -0.6961913 0.2588119 -0.6695775
vn -0.6961914 -0.2588111 -0.6695777
vn -0.6961914 -0.2588111 -0.6695777
vn -0.6961914 -0.2588111 -0.6695777
vn -0.6961914 -0.2588111 -0.6695777
vn -0.5096394 -0.7071164 -0.4901571
vn -0.5096394 -0.7071164 -0.4901571
vn -0.5096394 -0.7071164 -0.4901571
vn -0.5096394 -0.7071164 -0.4901571
vn -0.1865479 -0.9659242 -0.1794166
vn -0.1865479 -0.9659242 -0.1794166
vn -0.1865479 -0.9659242 -0.1794166
vn -0.1865479 -0.9659242 -0.1794166
vn 0.186542 -0.9659264 0.1794109
vn 0.186542 -0.9659264 0.1794109
vn 0.186542 -0.9659264 0.1794109
vn 0.186542 -0.9659264 0.1794109
vn 0.5096455 -0.707108 0.4901629
vn 0.5096455 -0.707108 0.4901629
vn 0.5096455 -0.707108 0.4901629
vn 0.5096455 -0.707108 0.4901629
vn 0.6961905 -0.2588163 0.6695767
vn 0.6961905 -0.2588163 0.6695767
vn 0.6961905 -0.2588163 0.6695767
vn 0.6961905 -0.2588163 0.6695767
vn 0.6961903 0.258817 0.6695766
vn 0.6961903 0.258817 0.6695766
vn 0.6961903 0.258817 0.6695766
vn 0.6961903 0.258817 0.6695766
vn 0.5096453 0.7071083 0.4901627
vn 0.5096453 0.7071083 0.4901627
vn 0.5096453 0.7071083 0.4901627
vn 0.5096453 0.7071083 0.4901627
vn 0.1865424 0.9659262 0.1794114
vn 0.1865424 0.9659262 0.1794114
vn 0.1865424 0.9659262 0.1794114
vn 0.1865424 0.9659262 0.1794114
vn -0.1865483 0.965924 -0.179417
vn -0.1865483 0.965924 -0.179417
vn -0.1865483 0.965924 -0.179417
vn -0.1865483 0.965924 -0.179417
vn -0.6931963 0 0.7207488
vn -0.6931963 0 0.7207488
vn -0.6931963 0 0.7207488
vn -0.6931963 0 0.7207488
vn -0.6931963 0 0.7207488
vn -0.6931963 0 0.7207488
vn -0.6931963 0 0.7207488
vn -0.6931963 0 0.7207488
vn -0.6931963 0 0.7207488
vn -0.6931963 0 0.7207488
vn -0.6931963 0 0.7207488
vn -0.6931963 0 0.7207488
vn -0.6931963 0 0.7207488
vn 0.6931963 0 -0.7207488
vn 0.6931963 0 -0.7207488
vn 0.6931963 0 -0.7207488
vn 0.6931963 0 -0.7207488
vn 0.6931963 0 -0.7207488
vn 0.6931963 0 -0.7207488
vn 0.6931963 0 -0.7207488
vn 0.6931963 0 -0.7207488
vn 0.6931963 0 -0.7207488
vn 0.6931963 0 -0.7207488
vn 0.6931963 0 -0.7207488
vn 0.6931963 0 -0.7207488
vn 0.6931963 0 -0.7207488
vn 0.6931963 0 -0.7207488
vn 0.6931963 0 -0.7207488
vn 0.6931963 0 -0.7207488
vn 0.6931963 0 -0.7207488
vn 0.6931963 0 -0.7207488
vn 0.6931963 0 -0.7207488
vn 0.6931963 0 -0.7207488
vn 0.6931963 0 -0.7207488
vn 0.6931963 0 -0.7207488
vn 0.6931963 0 -0.7207488

vt 0.09240723 0.2819824
vt 0.09240723 0.3022461
vt 0.1148682 0.3022461
vt 0.1148682 0.2819824
vt 0.1148682 0.2819824
vt 0.1148682 0.3022461
vt 0.1373291 0.3022461
vt 0.1373291 0.2819824
vt 0.1373291 0.2819824
vt 0.1373291 0.3022461
vt 0.15979 0.3022461
vt 0.15979 0.2819824
vt 0.15979 0.2819824
vt 0.15979 0.3022461
vt 0.182251 0.3022461
vt 0.182251 0.2819824
vt 0.1739502 0.2961426
vt 0.1739502 0.276123
vt 0.1514893 0.276123
vt 0.1514893 0.2961426
vt 0.1514893 0.2961426
vt 0.1514893 0.276123
vt 0.1290283 0.276123
vt 0.1290283 0.2961426
vt 0.1290283 0.2961426
vt 0.1290283 0.276123
vt 0.1066284 0.276123
vt 0.1066284 0.2961426
vt 0.1691895 0.3017578
vt 0.1691895 0.2814941
vt 0.1467285 0.2814941
vt 0.1467285 0.3017578
vt 0.1467285 0.3017578
vt 0.1467285 0.2814941
vt 0.1242676 0.2814941
vt 0.1242676 0.3017578
vt 0.1242676 0.3017578
vt 0.1242676 0.2814941
vt 0.1018066 0.2814941
vt 0.1018066 0.3017578
vt 0.1209106 0.2824707
vt 0.1209106 0.3024902
vt 0.1434326 0.3024902
vt 0.1434326 0.2824707
vt 0.1434326 0.2824707
vt 0.1434326 0.3024902
vt 0.1658936 0.3024902
vt 0.1658936 0.2824707
vt 0.1624756 0.008926392
vt 0.1624756 0.1331787
vt 0.2246094 0.02557373
vt 0.2700195 0.07110596
vt 0.2868652 0.1331787
vt 0.2700195 0.1954346
vt 0.2246094 0.2408447
vt 0.1624756 0.2575684
vt 0.1002808 0.2408447
vt 0.05480957 0.1954346
vt 0.03814697 0.1331787
vt 0.05480957 0.07110596
vt 0.1002808 0.02558899
vt 0.159668 0.2849121
vt 0.1218872 0.284668
vt 0.1430664 0.2849121
vt 0.1324463 0.295166
vt 0.1490479 0.295166
vt 0.1157837 0.295166
vt 0.1218872 0.284668
vt 0.1430664 0.2849121
vt 0.1218872 0.284668
vt 0.1122437 0.2990723
vt 0.1218872 0.284668
vt 0.1289063 0.2990723
vt 0.1218872 0.284668
vt 0.1455078 0.2990723
vt 0.1490479 0.295166
vt 0.1717529 0.284668
vt 0.1455078 0.2990723
vt 0.1218872 0.284668
vt 0.1157837 0.295166
vt 0.1717529 0.284668
vt 0.1218872 0.284668
vt 0.1551514 0.284668
vt 0.1385498 0.284668

g wheel_rl_811_28
usemtl wheel_rl_811_28
usemap wheel_rl_811_28
f 1/1/1 3/3/3 2/2/2
f 1/1/1 4/4/4 3/3/3
f 5/5/5 7/7/7 6/6/6
f 5/5/5 8/8/8 7/7/7
f 9/9/9 11/11/11 10/10/10
f 9/9/9 12/12/12 11/11/11
f 13/13/13 15/15/15 14/14/14
f 13/13/13 16/16/16 15/15/15
f 17/17/17 19/19/19 18/18/18
f 17/17/17 20/20/20 19/19/19
f 21/21/21 23/23/23 22/22/22
f 21/21/21 24/24/24 23/23/23
f 25/25/25 27/27/27 26/26/26
f 25/25/25 28/28/28 27/27/27
f 29/29/29 31/31/31 30/30/30
f 29/29/29 32/32/32 31/31/31
f 33/33/33 35/35/35 34/34/34
f 33/33/33 36/36/36 35/35/35
f 37/37/37 39/39/39 38/38/38
f 37/37/37 40/40/40 39/39/39
f 41/41/41 43/43/43 42/42/42
f 41/41/41 44/44/44 43/43/43
f 45/45/45 47/47/47 46/46/46
f 45/45/45 48/48/48 47/47/47
f 49/49/49 51/51/51 50/50/50
f 51/51/51 52/52/52 50/50/50
f 52/52/52 53/53/53 50/50/50
f 53/53/53 54/54/54 50/50/50
f 54/54/54 55/55/55 50/50/50
f 55/55/55 56/56/56 50/50/50
f 56/56/56 57/57/57 50/50/50
f 57/57/57 58/58/58 50/50/50
f 58/58/58 59/59/59 50/50/50
f 59/59/59 60/60/60 50/50/50
f 60/60/60 61/61/61 50/50/50
f 61/61/61 49/49/49 50/50/50
f 62/62/62 64/64/64 63/63/63
f 65/65/65 66/66/66 63/63/63
f 67/67/67 65/65/65 68/68/68
f 69/69/69 71/71/71 70/70/70
f 71/71/71 73/73/73 72/72/72
f 73/73/73 75/75/75 74/74/74
f 76/76/76 77/77/77 74/74/74
f 78/78/78 80/80/80 79/79/79
f 81/81/81 83/83/83 82/82/82
f 83/83/83 84/84/84 82/82/82
