#wheel_fl_794_194.obj

v 0.2043898 0.6152053 -0.3551816
v -0.2043909 0.6152053 -0.355181
v -0.2043897 0.3551889 -0.6152018
v 0.2043891 0.3551889 -0.6152024
v 0.2043891 0.3551889 -0.6152024
v -0.2043897 0.3551889 -0.6152018
v -0.2043902 5.960464E-08 -0.7103797
v 0.2043886 5.960464E-08 -0.7103803
v 0.2043886 5.960464E-08 -0.7103803
v -0.2043902 5.960464E-08 -0.7103797
v -0.2043897 -0.3551897 -0.6152018
v 0.2043891 -0.3551897 -0.6152024
v 0.2043891 -0.3551897 -0.6152024
v -0.2043897 -0.3551897 -0.6152018
v -0.2043909 -0.6152067 -0.355181
v 0.2043898 -0.6152067 -0.3551816
v 0.2043898 -0.6152067 -0.3551816
v -0.2043909 -0.6152067 -0.355181
v -0.2043898 -0.7103795 2.507225E-06
v 0.204389 -0.7103795 9.541616E-06
v 0.204389 -0.7103795 9.541616E-06
v -0.2043898 -0.7103795 2.507225E-06
v -0.2043906 -0.6152067 0.3551936
v 0.2043901 -0.6152067 0.355193
v 0.2043901 -0.6152067 0.355193
v -0.2043906 -0.6152067 0.3551936
v -0.2043899 -0.3551897 0.6152144
v 0.2043888 -0.3551897 0.6152138
v 0.2043888 -0.3551897 0.6152138
v -0.2043899 -0.3551897 0.6152144
v -0.2043914 5.960464E-08 0.7103847
v 0.2043893 5.960464E-08 0.7103841
v 0.2043893 5.960464E-08 0.7103841
v -0.2043914 5.960464E-08 0.7103847
v -0.2043899 0.3551889 0.6152144
v 0.2043888 0.3551889 0.6152138
v 0.2043888 0.3551889 0.6152138
v -0.2043899 0.3551889 0.6152144
v -0.2043906 0.6152053 0.3551936
v 0.2043901 0.6152053 0.355193
v 0.2043901 0.6152053 0.355193
v -0.2043906 0.6152053 0.3551936
v -0.2043898 0.7103787 2.507225E-06
v 0.204389 0.7103787 9.541616E-06
v 0.204389 0.7103787 9.541616E-06
v -0.2043898 0.7103787 2.507225E-06
v -0.2043909 0.6152053 -0.355181
v 0.2043898 0.6152053 -0.3551816
v -0.2043909 0.6152053 -0.355181
v -0.2043898 5.960464E-08 2.507225E-06
v -0.2043897 0.3551889 -0.6152018
v -0.2043902 5.960464E-08 -0.7103797
v -0.2043897 -0.3551897 -0.6152018
v -0.2043909 -0.6152067 -0.355181
v -0.2043898 -0.7103795 2.507225E-06
v -0.2043906 -0.6152067 0.3551936
v -0.2043899 -0.3551897 0.6152144
v -0.2043914 5.960464E-08 0.7103847
v -0.2043899 0.3551889 0.6152144
v -0.2043906 0.6152053 0.3551936
v -0.2043898 0.7103787 2.507225E-06
v 0.2043898 0.6152053 -0.3551816
v 0.2043891 0.3551889 -0.6152024
v 0.204389 0.7103787 9.541616E-06
v 0.2043901 -0.6152067 0.355193
v 0.204389 -0.7103795 9.541616E-06
v 0.2043888 -0.3551897 0.6152138
v 0.2043891 0.3551889 -0.6152024
v 0.204389 0.7103787 9.541616E-06
v 0.2043891 0.3551889 -0.6152024
v 0.2043901 0.6152053 0.355193
v 0.2043891 0.3551889 -0.6152024
v 0.2043888 0.3551889 0.6152138
v 0.2043891 0.3551889 -0.6152024
v 0.2043893 5.960464E-08 0.7103841
v 0.204389 -0.7103795 9.541616E-06
v 0.2043898 -0.6152067 -0.3551816
v 0.2043893 5.960464E-08 0.7103841
v 0.2043891 0.3551889 -0.6152024
v 0.2043888 -0.3551897 0.6152138
v 0.2043898 -0.6152067 -0.3551816
v 0.2043891 0.3551889 -0.6152024
v 0.2043891 -0.3551897 -0.6152024
v 0.2043886 5.960464E-08 -0.7103803

vn 0.003617095 0.7071084 -0.7070958
vn 0.003617095 0.7071084 -0.7070958
vn 0.003617095 0.7071084 -0.7070958
vn 0.003617095 0.7071084 -0.7070958
vn 0.004941044 0.2588273 -0.9659109
vn 0.004941044 0.2588273 -0.9659109
vn 0.004941044 0.2588273 -0.9659109
vn 0.004941044 0.2588273 -0.9659109
vn 0.004941045 -0.2588266 -0.9659111
vn 0.004941045 -0.2588266 -0.9659111
vn 0.004941045 -0.2588266 -0.9659111
vn 0.004941045 -0.2588266 -0.9659111
vn 0.003617097 -0.7071081 -0.7070962
vn 0.003617097 -0.7071081 -0.7070962
vn 0.003617097 -0.7071081 -0.7070962
vn 0.003617097 -0.7071081 -0.7070962
vn 0.001323955 -0.9659256 -0.2588163
vn 0.001323955 -0.9659256 -0.2588163
vn 0.001323955 -0.9659256 -0.2588163
vn 0.001323955 -0.9659256 -0.2588163
vn -0.001323969 -0.9659249 0.258819
vn -0.001323969 -0.9659249 0.258819
vn -0.001323969 -0.9659249 0.258819
vn -0.001323969 -0.9659249 0.258819
vn -0.003617082 -0.7071109 0.7070933
vn -0.003617082 -0.7071109 0.7070933
vn -0.003617082 -0.7071109 0.7070933
vn -0.003617082 -0.7071109 0.7070933
vn -0.004941066 -0.2588111 0.9659153
vn -0.004941066 -0.2588111 0.9659153
vn -0.004941066 -0.2588111 0.9659153
vn -0.004941066 -0.2588111 0.9659153
vn -0.004941065 0.2588118 0.9659151
vn -0.004941065 0.2588118 0.9659151
vn -0.004941065 0.2588118 0.9659151
vn -0.004941065 0.2588118 0.9659151
vn -0.003617081 0.7071113 0.707093
vn -0.003617081 0.7071113 0.707093
vn -0.003617081 0.7071113 0.707093
vn -0.003617081 0.7071113 0.707093
vn -0.001323972 0.9659247 0.2588196
vn -0.001323972 0.9659247 0.2588196
vn -0.001323972 0.9659247 0.2588196
vn -0.001323972 0.9659247 0.2588196
vn 0.001323958 0.9659255 -0.2588169
vn 0.001323958 0.9659255 -0.2588169
vn 0.001323958 0.9659255 -0.2588169
vn 0.001323958 0.9659255 -0.2588169
vn -0.9999869 0 -0.005115357
vn -0.9999869 0 -0.005115357
vn -0.9999869 0 -0.005115357
vn -0.9999869 0 -0.005115357
vn -0.9999869 0 -0.005115357
vn -0.9999869 0 -0.005115357
vn -0.9999869 0 -0.005115357
vn -0.9999869 0 -0.005115357
vn -0.9999869 0 -0.005115357
vn -0.9999869 0 -0.005115357
vn -0.9999869 0 -0.005115357
vn -0.9999869 0 -0.005115357
vn -0.9999869 0 -0.005115357
vn 0.9999869 0 0.005115357
vn 0.9999869 0 0.005115357
vn 0.9999869 0 0.005115357
vn 0.9999869 0 0.005115357
vn 0.9999869 0 0.005115357
vn 0.9999869 0 0.005115357
vn 0.9999869 0 0.005115357
vn 0.9999869 0 0.005115357
vn 0.9999869 0 0.005115357
vn 0.9999869 0 0.005115357
vn 0.9999869 0 0.005115357
vn 0.9999869 0 0.005115357
vn 0.9999869 0 0.005115357
vn 0.9999869 0 0.005115357
vn 0.9999869 0 0.005115357
vn 0.9999869 0 0.005115357
vn 0.9999869 0 0.005115357
vn 0.9999869 0 0.005115357
vn 0.9999869 0 0.005115357
vn 0.9999869 0 0.005115357
vn 0.9999869 0 0.005115357
vn 0.9999869 0 0.005115357
vn 0.9999869 0 0.005115357

vt 0.09240723 0.2819824
vt 0.09240723 0.3022461
vt 0.1148682 0.3022461
vt 0.1148682 0.2819824
vt 0.1148682 0.2819824
vt 0.1148682 0.3022461
vt 0.1373291 0.3022461
vt 0.1373291 0.2819824
vt 0.1373291 0.2819824
vt 0.1373291 0.3022461
vt 0.15979 0.3022461
vt 0.15979 0.2819824
vt 0.15979 0.2819824
vt 0.15979 0.3022461
vt 0.182251 0.3022461
vt 0.182251 0.2819824
vt 0.1739502 0.2961426
vt 0.1739502 0.276123
vt 0.1514893 0.276123
vt 0.1514893 0.2961426
vt 0.1514893 0.2961426
vt 0.1514893 0.276123
vt 0.1290283 0.276123
vt 0.1290283 0.2961426
vt 0.1290283 0.2961426
vt 0.1290283 0.276123
vt 0.1066284 0.276123
vt 0.1066284 0.2961426
vt 0.1691895 0.3017578
vt 0.1691895 0.2814941
vt 0.1467285 0.2814941
vt 0.1467285 0.3017578
vt 0.1467285 0.3017578
vt 0.1467285 0.2814941
vt 0.1242676 0.2814941
vt 0.1242676 0.3017578
vt 0.1242676 0.3017578
vt 0.1242676 0.2814941
vt 0.1018066 0.2814941
vt 0.1018066 0.3017578
vt 0.1209106 0.2824707
vt 0.1209106 0.3024902
vt 0.1434326 0.3024902
vt 0.1434326 0.2824707
vt 0.1434326 0.2824707
vt 0.1434326 0.3024902
vt 0.1658936 0.3024902
vt 0.1658936 0.2824707
vt 0.1624756 0.008926392
vt 0.1624756 0.1331787
vt 0.2246094 0.02557373
vt 0.2700195 0.07110596
vt 0.2868652 0.1331787
vt 0.2700195 0.1954346
vt 0.2246094 0.2408447
vt 0.1624756 0.2575684
vt 0.1002808 0.2408447
vt 0.05480957 0.1954346
vt 0.03814697 0.1331787
vt 0.05480957 0.07110596
vt 0.1002808 0.02558899
vt 0.159668 0.2849121
vt 0.1218872 0.284668
vt 0.1430664 0.2849121
vt 0.1324463 0.295166
vt 0.1490479 0.295166
vt 0.1157837 0.295166
vt 0.1218872 0.284668
vt 0.1430664 0.2849121
vt 0.1218872 0.284668
vt 0.1122437 0.2990723
vt 0.1218872 0.284668
vt 0.1289063 0.2990723
vt 0.1218872 0.284668
vt 0.1455078 0.2990723
vt 0.1490479 0.295166
vt 0.1717529 0.284668
vt 0.1455078 0.2990723
vt 0.1218872 0.284668
vt 0.1157837 0.295166
vt 0.1717529 0.284668
vt 0.1218872 0.284668
vt 0.1551514 0.284668
vt 0.1385498 0.284668

g wheel_fl_794_194
usemtl wheel_fl_794_194
usemap wheel_fl_794_194
f 1/1/1 3/3/3 2/2/2
f 1/1/1 4/4/4 3/3/3
f 5/5/5 7/7/7 6/6/6
f 5/5/5 8/8/8 7/7/7
f 9/9/9 11/11/11 10/10/10
f 9/9/9 12/12/12 11/11/11
f 13/13/13 15/15/15 14/14/14
f 13/13/13 16/16/16 15/15/15
f 17/17/17 19/19/19 18/18/18
f 17/17/17 20/20/20 19/19/19
f 21/21/21 23/23/23 22/22/22
f 21/21/21 24/24/24 23/23/23
f 25/25/25 27/27/27 26/26/26
f 25/25/25 28/28/28 27/27/27
f 29/29/29 31/31/31 30/30/30
f 29/29/29 32/32/32 31/31/31
f 33/33/33 35/35/35 34/34/34
f 33/33/33 36/36/36 35/35/35
f 37/37/37 39/39/39 38/38/38
f 37/37/37 40/40/40 39/39/39
f 41/41/41 43/43/43 42/42/42
f 41/41/41 44/44/44 43/43/43
f 45/45/45 47/47/47 46/46/46
f 45/45/45 48/48/48 47/47/47
f 49/49/49 51/51/51 50/50/50
f 51/51/51 52/52/52 50/50/50
f 52/52/52 53/53/53 50/50/50
f 53/53/53 54/54/54 50/50/50
f 54/54/54 55/55/55 50/50/50
f 55/55/55 56/56/56 50/50/50
f 56/56/56 57/57/57 50/50/50
f 57/57/57 58/58/58 50/50/50
f 58/58/58 59/59/59 50/50/50
f 59/59/59 60/60/60 50/50/50
f 60/60/60 61/61/61 50/50/50
f 61/61/61 49/49/49 50/50/50
f 62/62/62 64/64/64 63/63/63
f 65/65/65 66/66/66 63/63/63
f 67/67/67 65/65/65 68/68/68
f 69/69/69 71/71/71 70/70/70
f 71/71/71 73/73/73 72/72/72
f 73/73/73 75/75/75 74/74/74
f 76/76/76 77/77/77 74/74/74
f 78/78/78 80/80/80 79/79/79
f 81/81/81 83/83/83 82/82/82
f 83/83/83 84/84/84 82/82/82
