#Wires_(1)_760_96.obj

v 2.22014 0.2864532 -0.6389313
v -2.220139 0.2864532 -0.6389313
v -2.220139 0.2864532 -0.6821594
v 2.22014 0.2864532 -0.6821594
v -2.220139 0.2432265 -0.6389313
v 2.22014 0.2432265 -0.6389313
v 2.22014 0.2432265 -0.6821594
v -2.220139 0.2432265 -0.6821594
v 2.22014 0.2432265 -0.6821594
v 2.22014 0.2864532 -0.6821594
v -2.220139 0.2864532 -0.6821594
v -2.220139 0.2432265 -0.6821594
v -2.220139 0.2432265 -0.6389313
v -2.220139 0.2864532 -0.6389313
v 2.22014 0.2864532 -0.6389313
v 2.22014 0.2432265 -0.6389313
v 2.22014 -0.2432261 -0.1811676
v -2.220139 -0.2432261 -0.1811676
v -2.220139 -0.2432261 -0.2243958
v 2.22014 -0.2432261 -0.2243958
v -2.220139 -0.2864532 -0.1811676
v 2.22014 -0.2864532 -0.1811676
v 2.22014 -0.2864532 -0.2243958
v -2.220139 -0.2864532 -0.2243958
v 2.22014 -0.2864532 -0.2243958
v 2.22014 -0.2432261 -0.2243958
v -2.220139 -0.2432261 -0.2243958
v -2.220139 -0.2864532 -0.2243958
v -2.220139 -0.2864532 -0.1811676
v -2.220139 -0.2432261 -0.1811676
v 2.22014 -0.2432261 -0.1811676
v 2.22014 -0.2864532 -0.1811676
v 2.22014 0.02895355 -0.4206543
v -2.220139 0.02895355 -0.4206543
v -2.220139 0.02895355 -0.4638672
v 2.22014 0.02895355 -0.4638672
v -2.220139 -0.01427364 -0.4206543
v 2.22014 -0.01427364 -0.4206543
v 2.22014 -0.01427364 -0.4638672
v -2.220139 -0.01427364 -0.4638672
v 2.22014 -0.01427364 -0.4638672
v 2.22014 0.02895355 -0.4638672
v -2.220139 0.02895355 -0.4638672
v -2.220139 -0.01427364 -0.4638672
v -2.220139 -0.01427364 -0.4206543
v -2.220139 0.02895355 -0.4206543
v 2.22014 0.02895355 -0.4206543
v 2.22014 -0.01427364 -0.4206543
v -2.220139 -0.2432261 0.1811676
v 2.22014 -0.2432261 0.1811676
v 2.22014 -0.2432261 0.2243958
v -2.220139 -0.2432261 0.2243958
v 2.22014 -0.2864532 0.1811676
v -2.220139 -0.2864532 0.1811676
v -2.220139 -0.2864532 0.2243958
v 2.22014 -0.2864532 0.2243958
v -2.220139 -0.2864532 0.2243958
v -2.220139 -0.2432261 0.2243958
v 2.22014 -0.2432261 0.2243958
v 2.22014 -0.2864532 0.2243958
v 2.22014 -0.2864532 0.1811676
v 2.22014 -0.2432261 0.1811676
v -2.220139 -0.2432261 0.1811676
v -2.220139 -0.2864532 0.1811676
v -2.220139 0.2864532 0.6389313
v 2.22014 0.2864532 0.6389313
v 2.22014 0.2864532 0.6821594
v -2.220139 0.2864532 0.6821594
v 2.22014 0.2432265 0.6389313
v -2.220139 0.2432265 0.6389313
v -2.220139 0.2432265 0.6821594
v 2.22014 0.2432265 0.6821594
v -2.220139 0.2432265 0.6821594
v -2.220139 0.2864532 0.6821594
v 2.22014 0.2864532 0.6821594
v 2.22014 0.2432265 0.6821594
v 2.22014 0.2432265 0.6389313
v 2.22014 0.2864532 0.6389313
v -2.220139 0.2864532 0.6389313
v -2.220139 0.2432265 0.6389313
v -2.220139 0.02895355 0.4206543
v 2.22014 0.02895355 0.4206543
v 2.22014 0.02895355 0.4638672
v -2.220139 0.02895355 0.4638672
v 2.22014 -0.01427364 0.4206543
v -2.220139 -0.01427364 0.4206543
v -2.220139 -0.01427364 0.4638672
v 2.22014 -0.01427364 0.4638672
v -2.220139 -0.01427364 0.4638672
v -2.220139 0.02895355 0.4638672
v 2.22014 0.02895355 0.4638672
v 2.22014 -0.01427364 0.4638672
v 2.22014 -0.01427364 0.4206543
v 2.22014 0.02895355 0.4206543
v -2.220139 0.02895355 0.4206543
v -2.220139 -0.01427364 0.4206543

vn 0 1 0
vn 0 1 0
vn 0 1 0
vn 0 1 0
vn 0 -1 0
vn 0 -1 0
vn 0 -1 0
vn 0 -1 0
vn 0 0 -1
vn 0 0 -1
vn 0 0 -1
vn 0 0 -1
vn 0 0 1
vn 0 0 1
vn 0 0 1
vn 0 0 1
vn 0 1 0
vn 0 1 0
vn 0 1 0
vn 0 1 0
vn 0 -1 0
vn 0 -1 0
vn 0 -1 0
vn 0 -1 0
vn 0 0 -1
vn 0 0 -1
vn 0 0 -1
vn 0 0 -1
vn 0 0 1
vn 0 0 1
vn 0 0 1
vn 0 0 1
vn 0 1 0
vn 0 1 0
vn 0 1 0
vn 0 1 0
vn 0 -1 0
vn 0 -1 0
vn 0 -1 0
vn 0 -1 0
vn 0 0 -1
vn 0 0 -1
vn 0 0 -1
vn 0 0 -1
vn 0 0 1
vn 0 0 1
vn 0 0 1
vn 0 0 1
vn 0 1 0
vn 0 1 0
vn 0 1 0
vn 0 1 0
vn 0 -1 0
vn 0 -1 0
vn 0 -1 0
vn 0 -1 0
vn 0 0 1
vn 0 0 1
vn 0 0 1
vn 0 0 1
vn 0 0 -1
vn 0 0 -1
vn 0 0 -1
vn 0 0 -1
vn 0 1 0
vn 0 1 0
vn 0 1 0
vn 0 1 0
vn 0 -1 0
vn 0 -1 0
vn 0 -1 0
vn 0 -1 0
vn 0 0 1
vn 0 0 1
vn 0 0 1
vn 0 0 1
vn 0 0 -1
vn 0 0 -1
vn 0 0 -1
vn 0 0 -1
vn 0 1 0
vn 0 1 0
vn 0 1 0
vn 0 1 0
vn 0 -1 0
vn 0 -1 0
vn 0 -1 0
vn 0 -1 0
vn 0 0 1
vn 0 0 1
vn 0 0 1
vn 0 0 1
vn 0 0 -1
vn 0 0 -1
vn 0 0 -1
vn 0 0 -1

vt 0.1538086 0.2077637
vt 0.1647949 0.208252
vt 0.1647949 0.2080078
vt 0.1538086 0.2076416
vt 0.1647949 0.2076416
vt 0.1538086 0.2071533
vt 0.1538086 0.2069092
vt 0.1647949 0.2073975
vt 0.1538086 0.2069092
vt 0.1538086 0.2076416
vt 0.1647949 0.2080078
vt 0.1647949 0.2073975
vt 0.1647949 0.2076416
vt 0.1647949 0.208252
vt 0.1538086 0.2077637
vt 0.1538086 0.2071533
vt 0.1538086 0.2019043
vt 0.1647949 0.2022705
vt 0.1647949 0.2021484
vt 0.1538086 0.2016602
vt 0.1647949 0.2016602
vt 0.1538086 0.2011719
vt 0.1538086 0.2010498
vt 0.1647949 0.2015381
vt 0.1538086 0.2010498
vt 0.1538086 0.2016602
vt 0.1647949 0.2021484
vt 0.1647949 0.2015381
vt 0.1647949 0.2016602
vt 0.1647949 0.2022705
vt 0.1538086 0.2019043
vt 0.1538086 0.2011719
vt 0.1538086 0.204834
vt 0.1647949 0.2053223
vt 0.1647949 0.2052002
vt 0.1538086 0.2047119
vt 0.1647949 0.2047119
vt 0.1538086 0.2042236
vt 0.1538086 0.2041016
vt 0.1647949 0.2044678
vt 0.1538086 0.2041016
vt 0.1538086 0.2047119
vt 0.1647949 0.2052002
vt 0.1647949 0.2044678
vt 0.1647949 0.2047119
vt 0.1647949 0.2053223
vt 0.1538086 0.204834
vt 0.1538086 0.2042236
vt 0.1647949 0.2038574
vt 0.1538086 0.2033691
vt 0.1538086 0.2036133
vt 0.1647949 0.2041016
vt 0.1538086 0.2027588
vt 0.1647949 0.2032471
vt 0.1647949 0.2033691
vt 0.1538086 0.2030029
vt 0.1647949 0.2033691
vt 0.1647949 0.2041016
vt 0.1538086 0.2036133
vt 0.1538086 0.2030029
vt 0.1538086 0.2027588
vt 0.1538086 0.2033691
vt 0.1647949 0.2038574
vt 0.1647949 0.2032471
vt 0.1647949 0.213623
vt 0.1538086 0.2131348
vt 0.1538086 0.2133789
vt 0.1647949 0.2138672
vt 0.1538086 0.2125244
vt 0.1647949 0.2130127
vt 0.1647949 0.2131348
vt 0.1538086 0.2127686
vt 0.1647949 0.2131348
vt 0.1647949 0.2138672
vt 0.1538086 0.2133789
vt 0.1538086 0.2127686
vt 0.1538086 0.2125244
vt 0.1538086 0.2131348
vt 0.1647949 0.213623
vt 0.1647949 0.2130127
vt 0.1647949 0.2088623
vt 0.1538086 0.2084961
vt 0.1538086 0.2086182
vt 0.1647949 0.2091064
vt 0.1538086 0.2077637
vt 0.1647949 0.208252
vt 0.1647949 0.2084961
vt 0.1538086 0.2080078
vt 0.1647949 0.2084961
vt 0.1647949 0.2091064
vt 0.1538086 0.2086182
vt 0.1538086 0.2080078
vt 0.1538086 0.2077637
vt 0.1538086 0.2084961
vt 0.1647949 0.2088623
vt 0.1647949 0.208252

g Wires_(1)_760_96
usemtl Wires_(1)_760_96
usemap Wires_(1)_760_96
f 1/1/1 3/3/3 2/2/2
f 1/1/1 4/4/4 3/3/3
f 5/5/5 7/7/7 6/6/6
f 5/5/5 8/8/8 7/7/7
f 9/9/9 11/11/11 10/10/10
f 9/9/9 12/12/12 11/11/11
f 13/13/13 15/15/15 14/14/14
f 13/13/13 16/16/16 15/15/15
f 17/17/17 19/19/19 18/18/18
f 17/17/17 20/20/20 19/19/19
f 21/21/21 23/23/23 22/22/22
f 21/21/21 24/24/24 23/23/23
f 25/25/25 27/27/27 26/26/26
f 25/25/25 28/28/28 27/27/27
f 29/29/29 31/31/31 30/30/30
f 29/29/29 32/32/32 31/31/31
f 33/33/33 35/35/35 34/34/34
f 33/33/33 36/36/36 35/35/35
f 37/37/37 39/39/39 38/38/38
f 37/37/37 40/40/40 39/39/39
f 41/41/41 43/43/43 42/42/42
f 41/41/41 44/44/44 43/43/43
f 45/45/45 47/47/47 46/46/46
f 45/45/45 48/48/48 47/47/47
f 49/49/49 51/51/51 50/50/50
f 49/49/49 52/52/52 51/51/51
f 53/53/53 55/55/55 54/54/54
f 53/53/53 56/56/56 55/55/55
f 57/57/57 59/59/59 58/58/58
f 57/57/57 60/60/60 59/59/59
f 61/61/61 63/63/63 62/62/62
f 61/61/61 64/64/64 63/63/63
f 65/65/65 67/67/67 66/66/66
f 65/65/65 68/68/68 67/67/67
f 69/69/69 71/71/71 70/70/70
f 69/69/69 72/72/72 71/71/71
f 73/73/73 75/75/75 74/74/74
f 73/73/73 76/76/76 75/75/75
f 77/77/77 79/79/79 78/78/78
f 77/77/77 80/80/80 79/79/79
f 81/81/81 83/83/83 82/82/82
f 81/81/81 84/84/84 83/83/83
f 85/85/85 87/87/87 86/86/86
f 85/85/85 88/88/88 87/87/87
f 89/89/89 91/91/91 90/90/90
f 89/89/89 92/92/92 91/91/91
f 93/93/93 95/95/95 94/94/94
f 93/93/93 96/96/96 95/95/95
